<svg width="25" height="25" viewBox="0 0 25 25" fill="none" xmlns="http://www.w3.org/2000/svg">
<rect x="1" y="1" width="23" height="23" rx="11.5" fill="#FBFBFB"/>
<rect x="1" y="1" width="23" height="23" rx="11.5" stroke="url(#paint0_linear_291_7288)" stroke-width="2"/>
<g clip-path="url(#clip0_291_7288)">
<path d="M12 5.88757L13.9875 9.00007H9.97505L12 5.88757ZM12 3.75007C11.8712 3.7556 11.7457 3.79269 11.6345 3.85807C11.5234 3.92346 11.43 4.01514 11.3625 4.12507L7.95005 9.37507C7.89358 9.49202 7.86426 9.62021 7.86426 9.75007C7.86426 9.87993 7.89358 10.0081 7.95005 10.1251C8.01181 10.2399 8.10392 10.3356 8.21633 10.4018C8.32874 10.4679 8.45714 10.5019 8.58755 10.5001H15.375C15.5039 10.4945 15.6294 10.4575 15.7406 10.3921C15.8517 10.3267 15.9451 10.235 16.0125 10.1251C16.0867 10.0141 16.1263 9.88357 16.1263 9.75007C16.1263 9.61657 16.0867 9.48607 16.0125 9.37507L12.6375 4.12507C12.5758 4.01021 12.4837 3.9145 12.3713 3.84837C12.2589 3.78225 12.1305 3.74825 12 3.75007Z" fill="url(#paint1_linear_291_7288)"/>
<path d="M19.125 19.125H13.875C13.6761 19.125 13.4853 19.046 13.3447 18.9053C13.204 18.7647 13.125 18.5739 13.125 18.375V13.125C13.125 12.9261 13.204 12.7353 13.3447 12.5947C13.4853 12.454 13.6761 12.375 13.875 12.375H19.125C19.3239 12.375 19.5147 12.454 19.6553 12.5947C19.796 12.7353 19.875 12.9261 19.875 13.125V18.375C19.875 18.5739 19.796 18.7647 19.6553 18.9053C19.5147 19.046 19.3239 19.125 19.125 19.125ZM14.625 17.625H18.375V13.875H14.625V17.625Z" fill="url(#paint2_linear_291_7288)"/>
<path d="M7.875 13.5C8.32001 13.5 8.75502 13.632 9.12503 13.8792C9.49505 14.1264 9.78343 14.4778 9.95373 14.889C10.124 15.3001 10.1686 15.7525 10.0818 16.189C9.99495 16.6254 9.78066 17.0263 9.46599 17.341C9.15132 17.6557 8.75041 17.8699 8.31395 17.9568C7.8775 18.0436 7.4251 17.999 7.01396 17.8287C6.60283 17.6584 6.25143 17.37 6.0042 17C5.75696 16.63 5.625 16.195 5.625 15.75C5.625 15.1533 5.86205 14.581 6.28401 14.159C6.70597 13.7371 7.27826 13.5 7.875 13.5ZM7.875 12C7.13332 12 6.4083 12.2199 5.79161 12.632C5.17493 13.044 4.69428 13.6297 4.41045 14.3149C4.12662 15.0002 4.05236 15.7542 4.19706 16.4816C4.34175 17.209 4.6989 17.8772 5.22335 18.4016C5.7478 18.9261 6.41598 19.2832 7.14341 19.4279C7.87084 19.5726 8.62484 19.4984 9.31006 19.2145C9.99529 18.9307 10.581 18.4501 10.993 17.8334C11.4051 17.2167 11.625 16.4917 11.625 15.75C11.625 15.2575 11.528 14.7699 11.3396 14.3149C11.1511 13.86 10.8749 13.4466 10.5267 13.0983C10.1784 12.7501 9.76504 12.4739 9.31006 12.2855C8.85509 12.097 8.36746 12 7.875 12Z" fill="url(#paint3_linear_291_7288)"/>
</g>
<circle cx="20.5" cy="4.5" r="4.5" fill="#0060F0"/>
<path d="M22.75 3.15039L19.8571 5.85039L18.25 4.77039" stroke="#FBFBFB" stroke-opacity="0.7" stroke-linecap="round" stroke-linejoin="round"/>
<defs>
<linearGradient id="paint0_linear_291_7288" x1="12.5" y1="0" x2="12.5" y2="25" gradientUnits="userSpaceOnUse">
<stop stop-color="#0060F0"/>
<stop offset="1" stop-color="#00378A"/>
</linearGradient>
<linearGradient id="paint1_linear_291_7288" x1="11.9953" y1="3.75" x2="11.9953" y2="10.5001" gradientUnits="userSpaceOnUse">
<stop stop-color="#0060F0"/>
<stop offset="1" stop-color="#00378A"/>
</linearGradient>
<linearGradient id="paint2_linear_291_7288" x1="16.5" y1="12.375" x2="16.5" y2="19.125" gradientUnits="userSpaceOnUse">
<stop stop-color="#0060F0"/>
<stop offset="1" stop-color="#00378A"/>
</linearGradient>
<linearGradient id="paint3_linear_291_7288" x1="7.875" y1="12" x2="7.875" y2="19.5" gradientUnits="userSpaceOnUse">
<stop stop-color="#0060F0"/>
<stop offset="1" stop-color="#00378A"/>
</linearGradient>
<clipPath id="clip0_291_7288">
<rect width="18" height="18" fill="white" transform="translate(3 3)"/>
</clipPath>
</defs>
</svg>
