<svg width="25" height="25" viewBox="0 0 25 25" fill="none" xmlns="http://www.w3.org/2000/svg">
<path d="M23.9999 12.5C23.9999 18.8513 18.8511 24 12.4999 24C6.14859 24 0.999867 18.8513 0.999867 12.5C0.999867 6.14873 6.14859 1 12.4999 1C18.8511 1 23.9999 6.14873 23.9999 12.5Z" fill="#FBFBFB" stroke="url(#paint0_linear_158_7935)" stroke-width="2"/>
<path d="M12.5 0C19.4037 0 25 5.59625 25 12.5C25 19.4037 19.4037 25 12.5 25C5.59625 25 0 19.4037 0 12.5C0 5.59625 5.59625 0 12.5 0ZM17.505 13.5975C17.0737 12.9412 16.7625 12.4688 15.5775 12.6562C13.34 13.0113 13.0912 13.4025 12.985 14.0475L12.955 14.2425L12.9237 14.45C12.8025 15.3038 12.8062 15.6263 13.1987 16.0375C14.78 17.6975 15.7275 18.8938 16.015 19.5938C16.155 19.935 16.515 20.9688 16.2675 21.9913C17.7844 21.3863 19.1348 20.4276 20.2063 19.195C20.3438 18.7275 20.4437 18.145 20.4437 17.44V17.3088C20.4437 16.1563 20.4437 15.63 19.6287 15.1637C19.3672 15.0145 19.0981 14.879 18.8225 14.7575C18.3638 14.5487 18.06 14.4125 17.65 13.8125C17.6 13.7417 17.5517 13.67 17.505 13.5975ZM12.5 2.29125C9.60375 2.29125 6.9875 3.49875 5.13 5.43625C5.35125 5.59 5.54375 5.80625 5.67625 6.10375C5.93125 6.675 5.93125 7.26375 5.93125 7.785C5.93125 8.195 5.93125 8.585 6.0625 8.86625C6.2425 9.25125 7.02 9.41625 7.70625 9.55875C7.9525 9.61125 8.205 9.66375 8.435 9.7275C9.0675 9.9025 9.5575 10.4712 9.94875 10.9275C10.1112 11.1162 10.3525 11.395 10.4737 11.465C10.5362 11.42 10.7375 11.2012 10.8362 10.8425C10.9137 10.5675 10.8912 10.325 10.78 10.1925C10.08 9.3675 10.1187 7.78 10.335 7.19375C10.675 6.27 11.7375 6.33875 12.515 6.38875C12.805 6.4075 13.0775 6.42625 13.2825 6.4C14.06 6.3025 14.3 5.11875 14.4688 4.8875C14.8338 4.3875 15.9512 3.63375 16.6437 3.16875C15.3398 2.58738 13.9277 2.28833 12.5 2.29125Z" fill="url(#paint1_linear_158_7935)"/>
<circle cx="20.5" cy="4.5" r="4.5" fill="#0060F0"/>
<path d="M22.75 3.15039L19.8571 5.85039L18.25 4.77039" stroke="#FBFBFB" stroke-opacity="0.7" stroke-linecap="round" stroke-linejoin="round"/>
<defs>
<linearGradient id="paint0_linear_158_7935" x1="12.5" y1="0" x2="12.5" y2="25" gradientUnits="userSpaceOnUse">
<stop stop-color="#0060F0"/>
<stop offset="1" stop-color="#00378A"/>
</linearGradient>
<linearGradient id="paint1_linear_158_7935" x1="12.5" y1="0" x2="12.5" y2="25" gradientUnits="userSpaceOnUse">
<stop stop-color="#0060F0"/>
<stop offset="1" stop-color="#00378A"/>
</linearGradient>
</defs>
</svg>
