<svg width="25" height="25" viewBox="0 0 25 25" fill="none" xmlns="http://www.w3.org/2000/svg">
<circle cx="12.5" cy="12.5" r="11.5" fill="#FBFBFB" stroke="#0A60E1" stroke-width="2"/>
<path d="M6.66593 16H14.6659C14.8358 16.0002 14.9993 16.0653 15.1228 16.1819C15.2464 16.2985 15.3208 16.458 15.3307 16.6276C15.3407 16.7972 15.2855 16.9643 15.1764 17.0946C15.0674 17.2249 14.9127 17.3086 14.7439 17.3287L14.6659 17.3333H6.66593C6.49601 17.3331 6.33257 17.2681 6.20902 17.1514C6.08546 17.0348 6.0111 16.8754 6.00115 16.7057C5.99119 16.5361 6.04638 16.3691 6.15544 16.2388C6.2645 16.1085 6.4192 16.0247 6.58793 16.0047L6.66593 16ZM6.66593 13.3333H18.6659C18.8358 13.3335 18.9993 13.3986 19.1228 13.5152C19.2464 13.6319 19.3208 13.7913 19.3307 13.9609C19.3407 14.1306 19.2855 14.2976 19.1764 14.4279C19.0674 14.5582 18.9127 14.6419 18.7439 14.662L18.6659 14.6667H6.66593C6.49601 14.6665 6.33257 14.6014 6.20902 14.4848C6.08546 14.3681 6.0111 14.2087 6.00115 14.0391C5.99119 13.8694 6.04638 13.7024 6.15544 13.5721C6.2645 13.4418 6.4192 13.3581 6.58793 13.338L6.66593 13.3333ZM6.66593 10.6667H18.6659C18.8358 10.6669 18.9993 10.7319 19.1228 10.8486C19.2464 10.9652 19.3208 11.1246 19.3307 11.2943C19.3407 11.4639 19.2855 11.6309 19.1764 11.7612C19.0674 11.8915 18.9127 11.9753 18.7439 11.9953L18.6659 12H6.66593C6.49601 11.9998 6.33257 11.9347 6.20902 11.8181C6.08546 11.7015 6.0111 11.542 6.00115 11.3724C5.99119 11.2028 6.04638 11.0357 6.15544 10.9054C6.2645 10.7751 6.4192 10.6914 6.58793 10.6713L6.66593 10.6667ZM6.66593 8H18.6659C18.8358 8.00019 18.9993 8.06525 19.1228 8.1819C19.2464 8.29854 19.3208 8.45797 19.3307 8.6276C19.3407 8.79722 19.2855 8.96425 19.1764 9.09455C19.0674 9.22486 18.9127 9.3086 18.7439 9.32867L18.6659 9.33333H6.66593C6.49601 9.33314 6.33257 9.26808 6.20902 9.15143C6.08546 9.03479 6.0111 8.87536 6.00115 8.70574C5.99119 8.53611 6.04638 8.36908 6.15544 8.23878C6.2645 8.10848 6.4192 8.02474 6.58793 8.00467L6.66593 8Z" fill="#0A60E1"/>
<circle cx="20.5" cy="4.5" r="4.5" fill="#0060F0"/>
<path d="M22.75 3.15039L19.8571 5.85039L18.25 4.77039" stroke="#FBFBFB" stroke-opacity="0.7" stroke-linecap="round" stroke-linejoin="round"/>
</svg>
