<svg width="25" height="25" viewBox="0 0 25 25" fill="none" xmlns="http://www.w3.org/2000/svg">
<circle cx="12.5" cy="12.5" r="11.5" fill="#FBFBFB" stroke="#CFD0D2" stroke-width="2"/>
<path d="M6.63731 16.5026L6.68087 16.5L14.6654 16.5C14.6655 16.5 14.6656 16.5 14.6658 16.5C14.7081 16.5002 14.7488 16.5164 14.7796 16.5455C14.8105 16.5746 14.8291 16.6145 14.8316 16.6569C14.8341 16.6993 14.8203 16.7411 14.793 16.7736C14.7678 16.8037 14.7329 16.8239 14.6945 16.8307L14.651 16.8333H6.66648C6.624 16.8333 6.58314 16.817 6.55225 16.7879C6.52137 16.7587 6.50278 16.7188 6.50029 16.6764C6.4978 16.634 6.5116 16.5923 6.53886 16.5597C6.56403 16.5296 6.59891 16.5095 6.63731 16.5026ZM6.63731 13.8359L6.68087 13.8333L18.6654 13.8333C18.6655 13.8333 18.6655 13.8333 18.6656 13.8333C18.708 13.8334 18.7488 13.8497 18.7796 13.8788C18.8105 13.908 18.8291 13.9478 18.8316 13.9902C18.8341 14.0326 18.8203 14.0744 18.793 14.107C18.7678 14.137 18.7329 14.1572 18.6945 14.1641L18.651 14.1667L6.66648 14.1667C6.6664 14.1667 6.66631 14.1667 6.66623 14.1667C6.62384 14.1666 6.58308 14.1503 6.55225 14.1212C6.52137 14.092 6.50278 14.0522 6.50029 14.0098C6.4978 13.9674 6.5116 13.9256 6.53886 13.893C6.56403 13.863 6.59891 13.8428 6.63731 13.8359ZM6.63731 11.1693L6.68087 11.1667L18.6654 11.1667C18.6654 11.1667 18.6655 11.1667 18.6655 11.1667C18.708 11.1668 18.7487 11.183 18.7796 11.2121C18.8105 11.2413 18.8291 11.2812 18.8316 11.3236C18.8341 11.366 18.8203 11.4077 18.793 11.4403C18.7678 11.4704 18.7329 11.4905 18.6945 11.4974L18.651 11.5L6.66648 11.5C6.66643 11.5 6.66638 11.5 6.66633 11.5C6.6239 11.4999 6.58311 11.4837 6.55225 11.4545C6.52137 11.4254 6.50278 11.3855 6.50029 11.3431C6.4978 11.3007 6.5116 11.2589 6.53886 11.2264C6.56403 11.1963 6.59891 11.1761 6.63731 11.1693ZM6.63731 8.50261L6.68087 8.5H18.6656C18.708 8.50009 18.7488 8.51635 18.7796 8.54547C18.8105 8.57464 18.8291 8.61449 18.8316 8.6569C18.8341 8.69931 18.8203 8.74106 18.793 8.77364C18.7678 8.80371 18.7329 8.82386 18.6945 8.83073L18.651 8.83333H6.6663C6.62389 8.83324 6.5831 8.81698 6.55225 8.78786C6.52137 8.7587 6.50278 8.71884 6.50029 8.67643C6.4978 8.63403 6.5116 8.59227 6.53886 8.55969C6.56403 8.52963 6.59891 8.50948 6.63731 8.50261Z" fill="#CFD0D2" stroke="#CFD0D2"/>
</svg>
