<svg width="25" height="25" viewBox="0 0 25 25" fill="none" xmlns="http://www.w3.org/2000/svg">
<circle cx="12.5" cy="12.5" r="11.5" fill="#FBFBFB" stroke="#CFD0D2" stroke-width="2"/>
<path fill-rule="evenodd" clip-rule="evenodd" d="M16.2138 6.64106C16.2145 6.5279 16.1734 6.41847 16.0983 6.33379C16.0232 6.24912 15.9195 6.19519 15.8071 6.18236C13.6088 5.93921 11.3905 5.93921 9.19226 6.18236C9.07999 6.19517 8.9764 6.24897 8.90135 6.33345C8.8263 6.41793 8.78507 6.52713 8.78557 6.64013V7.16662C8.03285 7.26381 7.2891 7.38947 6.55433 7.54361C6.40112 7.57591 6.26326 7.65891 6.16302 7.7792C6.06278 7.8995 6.006 8.05006 6.00186 8.20659L6 8.32173C5.99989 9.40604 6.42128 10.4479 7.17515 11.2273C7.92901 12.0066 8.95631 12.4624 10.04 12.4983C10.4791 12.8865 11.0037 13.1652 11.5711 13.3117V14.3573H10.6426C10.3964 14.3573 10.1602 14.4551 9.98605 14.6292C9.81192 14.8034 9.71409 15.0396 9.71409 15.2858V17.1429H9.09477C8.41138 17.1429 7.85705 17.6973 7.85705 18.3807C7.85705 18.7224 8.13375 19 8.47637 19H16.523C16.6872 19 16.8447 18.9347 16.9609 18.8186C17.077 18.7025 17.1423 18.5449 17.1423 18.3807C17.1423 17.6973 16.588 17.1429 15.9046 17.1429H15.2852V15.2858C15.2852 15.0396 15.1874 14.8034 15.0133 14.6292C14.8391 14.4551 14.603 14.3573 14.3567 14.3573H13.4282V13.3117C13.9956 13.1652 14.5203 12.8865 14.9593 12.4983C16.0631 12.4619 17.1075 11.9901 17.8644 11.1859C18.6212 10.3817 19.0289 9.31053 18.9984 8.20659C18.9942 8.04993 18.9373 7.89927 18.8369 7.77896C18.7364 7.65865 18.5984 7.57573 18.445 7.54361C17.7065 7.38875 16.9622 7.26299 16.2138 7.16662V6.64106ZM8.78557 8.57058C8.33059 8.63248 7.87933 8.70522 7.43178 8.78879C7.50592 9.22453 7.68269 9.63638 7.94748 9.9903C8.21226 10.3442 8.55747 10.63 8.95456 10.8242C8.84235 10.465 8.78537 10.0908 8.78557 9.71455V8.57058ZM16.2138 8.57058C16.6687 8.63248 17.12 8.70522 17.5675 8.78879C17.4934 9.22453 17.3166 9.63638 17.0519 9.9903C16.7871 10.3442 16.4419 10.63 16.0448 10.8242C16.1543 10.4741 16.2138 10.1008 16.2138 9.71455V8.57058Z" fill="#CFD0D2"/>
</svg>
