<svg width="25" height="25" viewBox="0 0 25 25" fill="none" xmlns="http://www.w3.org/2000/svg">
<circle cx="12.5" cy="12.5" r="11.5" fill="#FBFBFB" stroke="url(#paint0_linear_158_7938)" stroke-width="2"/>
<path d="M16.6667 16.333V17.6663H8.66667V16.333C8.66667 16.333 8.66667 13.6663 12.6667 13.6663C16.6667 13.6663 16.6667 16.333 16.6667 16.333ZM14.6667 10.333C14.6667 9.93745 14.5494 9.55077 14.3296 9.22187C14.1098 8.89297 13.7975 8.63662 13.432 8.48525C13.0666 8.33387 12.6644 8.29427 12.2765 8.37144C11.8885 8.44861 11.5322 8.63909 11.2525 8.9188C10.9727 9.1985 10.7823 9.55487 10.7051 9.94283C10.6279 10.3308 10.6675 10.7329 10.8189 11.0984C10.9703 11.4638 11.2266 11.7762 11.5555 11.9959C11.8844 12.2157 12.2711 12.333 12.6667 12.333C13.1971 12.333 13.7058 12.1223 14.0809 11.7472C14.456 11.3721 14.6667 10.8634 14.6667 10.333ZM16.8 13.7063C17.1644 14.0425 17.4582 14.448 17.6643 14.899C17.8703 15.3499 17.9844 15.8374 18 16.333V17.6663H20V16.333C20 16.333 20 14.033 16.8 13.7063ZM16 8.33301C15.7986 8.33302 15.5984 8.36451 15.4067 8.42634C15.7967 8.98565 16.0058 9.65113 16.0058 10.333C16.0058 11.0149 15.7967 11.6804 15.4067 12.2397C15.5984 12.3015 15.7986 12.333 16 12.333C16.5304 12.333 17.0391 12.1223 17.4142 11.7472C17.7893 11.3721 18 10.8634 18 10.333C18 9.80258 17.7893 9.29387 17.4142 8.9188C17.0391 8.54372 16.5304 8.33301 16 8.33301ZM9.33333 11.6663H7.33333V9.66634H6V11.6663H4V12.9997H6V14.9997H7.33333V12.9997H9.33333V11.6663Z" fill="url(#paint1_linear_158_7938)"/>
<circle cx="20.5" cy="4.5" r="4.5" fill="#0060F0"/>
<path d="M22.75 3.15039L19.8571 5.85039L18.25 4.77039" stroke="#FBFBFB" stroke-opacity="0.7" stroke-linecap="round" stroke-linejoin="round"/>
<defs>
<linearGradient id="paint0_linear_158_7938" x1="12.5" y1="0" x2="12.5" y2="25" gradientUnits="userSpaceOnUse">
<stop stop-color="#0060F0"/>
<stop offset="1" stop-color="#00378A"/>
</linearGradient>
<linearGradient id="paint1_linear_158_7938" x1="12" y1="8.33301" x2="12" y2="17.6663" gradientUnits="userSpaceOnUse">
<stop stop-color="#0060F0"/>
<stop offset="1" stop-color="#00378A"/>
</linearGradient>
</defs>
</svg>
