<svg width="25" height="25" viewBox="0 0 25 25" fill="none" xmlns="http://www.w3.org/2000/svg">
<circle cx="12.5" cy="12.5" r="11.5" fill="#FBFBFB" stroke="url(#paint0_linear_158_7942)" stroke-width="2"/>
<g clip-path="url(#clip0_158_7942)">
<path d="M8.69519 6.35502C8.73775 6.27966 8.80246 6.21922 8.88055 6.18189C8.95863 6.14456 9.04631 6.13214 9.13169 6.14633L9.26556 6.16883C9.51953 6.21115 9.76169 6.30663 9.97619 6.44903C10.1907 6.59143 10.3727 6.77753 10.5103 6.99514C10.6479 7.21276 10.738 7.45699 10.7746 7.71183C10.8113 7.96667 10.7937 8.22639 10.723 8.47396L10.4654 9.37508H10.8394C11.1236 9.37508 11.4038 9.44132 11.6579 9.56853C11.912 9.69575 12.1329 9.88045 12.3032 10.108C12.4734 10.3355 12.5883 10.5995 12.6386 10.8792C12.689 11.1589 12.6735 11.4464 12.5933 11.719L11.9549 13.8897C11.8606 14.2103 11.665 14.4917 11.3974 14.6919C11.1298 14.8921 10.8046 15.0002 10.4704 15.0001H7.70462C7.26393 15 6.83432 14.8619 6.47613 14.6052C6.38444 14.7278 6.26541 14.8274 6.12851 14.8959C5.99161 14.9645 5.8406 15.0001 5.6875 15.0001H4.98438C4.7233 15.0001 4.47292 14.8964 4.28832 14.7118C4.10371 14.5272 4 14.2768 4 14.0157V10.3595C4 9.81608 4.441 9.37508 4.98438 9.37508H6.90644C6.93128 9.37502 6.95566 9.36838 6.9771 9.35583C6.99854 9.34328 7.01628 9.32527 7.0285 9.30365L8.69519 6.35502ZM6.67188 13.6776L6.89462 13.8633C7.12188 14.0528 7.40875 14.1563 7.70462 14.1563H10.4704C10.6224 14.1564 10.7702 14.1073 10.8919 14.0164C11.0136 13.9254 11.1025 13.7975 11.1454 13.6518L11.7839 11.4811C11.8271 11.3343 11.8354 11.1794 11.8083 11.0288C11.7812 10.8782 11.7194 10.736 11.6277 10.6135C11.536 10.491 11.4171 10.3915 11.2802 10.323C11.1434 10.2545 10.9925 10.2188 10.8394 10.2188H9.90625C9.84096 10.2188 9.77657 10.2037 9.71813 10.1745C9.6597 10.1454 9.60883 10.1031 9.56951 10.051C9.5302 9.99886 9.50352 9.93832 9.49158 9.87413C9.47964 9.80995 9.48276 9.74386 9.50069 9.68108L9.91188 8.24221C9.98147 7.99854 9.9544 7.73742 9.83632 7.5132C9.71824 7.28898 9.51823 7.11893 9.27794 7.03846L7.76312 9.71877C7.67738 9.8705 7.55289 9.99674 7.40237 10.0846C7.25186 10.1725 7.08072 10.2188 6.90644 10.2188H6.67188V13.6776ZM5.82812 10.2188H4.98438C4.94708 10.2188 4.91131 10.2337 4.88494 10.26C4.85857 10.2864 4.84375 10.3222 4.84375 10.3595V14.0157C4.84375 14.0933 4.90675 14.1563 4.98438 14.1563H5.6875C5.7248 14.1563 5.76056 14.1415 5.78694 14.1151C5.81331 14.0888 5.82812 14.053 5.82812 14.0157V10.2188Z" fill="url(#paint1_linear_158_7942)"/>
</g>
<g clip-path="url(#clip1_158_7942)">
<path d="M16.3048 19.645C16.2622 19.7203 16.1975 19.7808 16.1195 19.8181C16.0414 19.8554 15.9537 19.8679 15.8683 19.8537L15.7344 19.8312C15.4805 19.7889 15.2383 19.6934 15.0238 19.551C14.8093 19.4086 14.6273 19.2225 14.4897 19.0049C14.3521 18.7872 14.262 18.543 14.2254 18.2882C14.1887 18.0333 14.2063 17.7736 14.277 17.526L14.5346 16.6249H14.1606C13.8764 16.6249 13.5962 16.5587 13.3421 16.4315C13.088 16.3042 12.8671 16.1195 12.6968 15.892C12.5266 15.6645 12.4117 15.4005 12.3613 15.1208C12.311 14.8411 12.3265 14.5536 12.4067 14.281L13.0451 12.1103C13.1394 11.7897 13.335 11.5083 13.6026 11.3081C13.8702 11.1079 14.1954 10.9998 14.5296 10.9999H17.2954C17.7361 11 18.1657 11.1381 18.5239 11.3948C18.6156 11.2722 18.7346 11.1726 18.8715 11.1041C19.0084 11.0355 19.1594 10.9999 19.3125 10.9999H20.0156C20.2767 10.9999 20.5271 11.1036 20.7117 11.2882C20.8963 11.4728 21 11.7232 21 11.9843L21 15.6405C21 16.1839 20.559 16.6249 20.0156 16.6249H18.0936C18.0687 16.625 18.0443 16.6316 18.0229 16.6442C18.0015 16.6567 17.9837 16.6747 17.9715 16.6964L16.3048 19.645ZM18.3281 12.3224L18.1054 12.1367C17.8781 11.9472 17.5912 11.8437 17.2954 11.8437H14.5296C14.3776 11.8436 14.2298 11.8927 14.1081 11.9836C13.9864 12.0746 13.8975 12.2025 13.8546 12.3482L13.2161 14.5189C13.1729 14.6657 13.1646 14.8206 13.1917 14.9712C13.2188 15.1218 13.2806 15.264 13.3723 15.3865C13.464 15.509 13.5829 15.6085 13.7198 15.677C13.8566 15.7455 14.0075 15.7812 14.1606 15.7812H15.0937C15.159 15.7812 15.2234 15.7963 15.2819 15.8255C15.3403 15.8546 15.3912 15.8969 15.4305 15.949C15.4698 16.0011 15.4965 16.0617 15.5084 16.1259C15.5204 16.1901 15.5172 16.2561 15.4993 16.3189L15.0881 17.7578C15.0185 18.0015 15.0456 18.2626 15.1637 18.4868C15.2818 18.711 15.4818 18.8811 15.7221 18.9615L17.2369 16.2812C17.3226 16.1295 17.4471 16.0033 17.5976 15.9154C17.7481 15.8275 17.9193 15.7812 18.0936 15.7812H18.3281V12.3224ZM19.1719 15.7812H20.0156C20.0529 15.7812 20.0887 15.7663 20.1151 15.74C20.1414 15.7136 20.1562 15.6778 20.1562 15.6405L20.1562 11.9843C20.1562 11.9067 20.0932 11.8437 20.0156 11.8437H19.3125C19.2752 11.8437 19.2394 11.8585 19.2131 11.8849C19.1867 11.9112 19.1719 11.947 19.1719 11.9843L19.1719 15.7812Z" fill="url(#paint2_linear_158_7942)"/>
</g>
<circle cx="20.5" cy="4.5" r="4.5" fill="#0060F0"/>
<path d="M22.75 3.15039L19.8571 5.85039L18.25 4.77039" stroke="#FBFBFB" stroke-opacity="0.7" stroke-linecap="round" stroke-linejoin="round"/>
<defs>
<linearGradient id="paint0_linear_158_7942" x1="12.5" y1="0" x2="12.5" y2="25" gradientUnits="userSpaceOnUse">
<stop stop-color="#0060F0"/>
<stop offset="1" stop-color="#00378A"/>
</linearGradient>
<linearGradient id="paint1_linear_158_7942" x1="8.3338" y1="6.14062" x2="8.3338" y2="15.0001" gradientUnits="userSpaceOnUse">
<stop stop-color="#0060F0"/>
<stop offset="1" stop-color="#00378A"/>
</linearGradient>
<linearGradient id="paint2_linear_158_7942" x1="16.6662" y1="19.8594" x2="16.6662" y2="10.9999" gradientUnits="userSpaceOnUse">
<stop stop-color="#0060F0"/>
<stop offset="1" stop-color="#00378A"/>
</linearGradient>
<clipPath id="clip0_158_7942">
<rect width="9" height="9" fill="white" transform="translate(4 6)"/>
</clipPath>
<clipPath id="clip1_158_7942">
<rect width="9" height="9" fill="white" transform="matrix(-1 0 0 -1 21 20)"/>
</clipPath>
</defs>
</svg>
