<svg width="25" height="25" viewBox="0 0 25 25" fill="none" xmlns="http://www.w3.org/2000/svg">
<circle cx="12.5" cy="12.5" r="11.5" fill="#FBFBFB" stroke="#CFD0D2" stroke-width="2"/>
<path d="M16.7105 19.0013C17.1599 19.0006 17.5224 18.6369 17.5216 18.1875C17.5209 17.7381 17.1572 17.3756 16.7078 17.3763L16.7074 17.097C16.7056 16.0205 16.2748 14.9878 15.5119 14.2273L13.7876 12.5061L15.5063 10.7792C16.2667 10.0163 16.6942 8.98219 16.6924 7.90563L16.692 7.62634C17.1414 7.62561 17.5039 7.26193 17.5031 6.81252C17.5024 6.3631 17.1387 6.00061 16.6893 6.00134L8.56433 6.01455C8.11491 6.01528 7.75242 6.37895 7.75315 6.82837C7.75388 7.27778 8.11756 7.64028 8.56697 7.63954L8.56742 7.91884C8.56917 8.9954 8.99995 10.0281 9.76291 10.7886L11.4872 12.5098L9.76598 14.2366C9.0055 14.9996 8.57808 16.0337 8.57983 17.1102L8.58028 17.3895C8.13087 17.3903 7.76837 17.7539 7.7691 18.2034C7.76983 18.6528 8.13351 19.0153 8.58292 19.0145L16.7105 19.0013ZM15.0824 17.0997L15.0828 17.379L10.2078 17.3869L10.2074 17.1076C10.2063 16.4601 10.4617 15.8402 10.918 15.3824L12.6393 13.6581L14.3661 15.3793C14.8239 15.8331 15.0813 16.4547 15.0824 17.0997Z" fill="#CFD0D2"/>
</svg>
