<svg width="24" height="24" viewBox="0 0 24 24" fill="none" xmlns="http://www.w3.org/2000/svg">
<path d="M12 24C18.6275 24 24 18.6274 24 12C24 5.37259 18.6275 0 12 0C5.37251 0 0 5.37259 0 12C0 18.6274 5.37251 24 12 24Z" fill="#FFB02E"/>
<path d="M9.7124 7.72136C9.7124 7.41207 9.83833 7.11544 10.0625 6.89674C10.2866 6.67804 10.5906 6.55518 10.9076 6.55518H12.012C12.329 6.55518 12.633 6.67804 12.8572 6.89674C13.0813 7.11544 13.2072 7.41207 13.2072 7.72136V15.8368C13.2072 16.1461 13.0813 16.4427 12.8572 16.6614C12.633 16.8801 12.329 17.003 12.012 17.003C11.695 17.003 11.391 16.8801 11.1669 16.6614C10.9427 16.4427 10.8168 16.1461 10.8168 15.8368V8.88404C10.5164 8.8617 10.2358 8.72952 10.031 8.51394C9.82622 8.29836 9.71243 8.01528 9.7124 7.72136Z" fill="#6D4534"/>
<path d="M12.0121 22.5547C9.19143 22.5547 6.53805 21.4585 4.55398 19.4644C2.55735 17.4699 1.44535 14.7888 1.45836 12.0008C1.45836 9.17865 2.55797 6.53142 4.55398 4.53725C5.52246 3.56069 6.68233 2.78415 7.96461 2.25382C9.2469 1.72349 10.6254 1.4502 12.0181 1.4502C13.4108 1.4502 14.7894 1.72349 16.0716 2.25382C17.3539 2.78415 18.5138 3.56069 19.4823 4.53725C23.5938 8.65387 23.5938 15.3477 19.4823 19.4644C17.4743 21.4585 14.8209 22.5547 12.0121 22.5547ZM12.0002 2.88127C9.66952 2.88127 7.32689 3.76757 5.55797 5.55183C3.83698 7.27718 2.87976 9.59325 2.89263 12.0008C2.89263 14.4381 3.83685 16.7238 5.55797 18.4498C6.39247 19.2948 7.39314 19.9669 8.50008 20.4258C9.60703 20.8847 10.7975 21.1209 12.0002 21.1203C14.4384 21.1203 16.7213 20.1757 18.4424 18.4498C21.9922 14.8929 21.9922 9.10868 18.4424 5.55183C17.6088 4.7057 16.6083 4.03291 15.5011 3.57396C14.394 3.115 13.2031 2.87938 12.0002 2.88127Z" fill="#FCD53F"/>
</svg>
