<svg width="24" height="24" viewBox="0 0 24 24" fill="none" xmlns="http://www.w3.org/2000/svg">
<g clip-path="url(#clip0_270_4378)">
<path d="M12 24C18.6275 24 24 18.6274 24 12C24 5.3726 18.6275 0 12 0C5.37251 0 0 5.3726 0 12C0 18.6274 5.37251 24 12 24Z" fill="#BEBEBE"/>
<path d="M12.0002 22.5533C9.17947 22.5533 6.52608 21.4571 4.54202 19.4629C2.54538 17.4684 1.43339 14.7874 1.4464 11.9993C1.4464 9.17718 2.546 6.52995 4.54202 4.53578C5.51049 3.55923 6.67037 2.78269 7.95265 2.25236C9.23494 1.72202 10.6134 1.44873 12.0062 1.44873C13.3989 1.44873 14.7774 1.72202 16.0597 2.25236C17.342 2.78269 18.5018 3.55923 19.4703 4.53578C23.5819 8.6524 23.5819 15.3463 19.4703 19.4629C17.4623 21.4571 14.809 22.5533 12.0002 22.5533ZM11.9882 2.8798C9.65756 2.8798 7.31493 3.7661 5.546 5.55036C3.82502 7.27571 2.86779 9.59179 2.88066 11.9993C2.88066 14.4367 3.82489 16.7224 5.546 18.4483C6.3805 19.2934 7.38118 19.9654 8.48812 20.4243C9.59507 20.8832 10.7855 21.1194 11.9882 21.1189C14.4265 21.1189 16.7094 20.1743 18.4305 18.4483C21.9803 14.8915 21.9803 9.10721 18.4305 5.55036C17.5968 4.70423 16.5963 4.03144 15.4892 3.57249C14.382 3.11354 13.1912 2.87792 11.9882 2.8798Z" fill="#E6E6E6"/>
<path d="M14.2445 16.9431H9.49944C9.27083 16.9436 9.04686 16.8802 8.85408 16.7603C8.6613 16.6404 8.5078 16.4691 8.41179 16.2667C8.31284 16.066 8.27489 15.8418 8.30243 15.6206C8.32996 15.3995 8.42183 15.1907 8.56717 15.0189L12.5114 10.2959C12.8221 9.92268 12.6787 9.52618 12.6309 9.40956C12.5748 9.27416 12.4792 9.15779 12.356 9.07487C12.2328 8.99196 12.0873 8.94614 11.9377 8.94309H11.8779C11.4955 8.94309 11.1488 9.11802 10.9218 9.42122C10.5393 9.946 9.78629 10.0743 9.23649 9.70111C9.10683 9.61165 8.99653 9.49812 8.91191 9.367C8.82729 9.23589 8.77002 9.08977 8.74337 8.93702C8.71673 8.78428 8.72123 8.6279 8.75662 8.47686C8.79202 8.32581 8.85761 8.18306 8.94964 8.05679C9.61896 7.13551 10.7066 6.5874 11.866 6.5874H12.0214C13.2405 6.64571 14.3042 7.35708 14.8062 8.44163C15.3202 9.56116 15.1528 10.8323 14.364 11.7769L12.0333 14.5757H14.2325C14.9018 14.5757 15.4397 15.1005 15.4397 15.7536C15.4397 16.4066 14.9138 16.9431 14.2445 16.9431Z" fill="#636363"/>
</g>
<defs>
<clipPath id="clip0_270_4378">
<rect width="24" height="24" fill="white"/>
</clipPath>
</defs>
</svg>
