<svg width="24" height="24" viewBox="0 0 24 24" fill="none" xmlns="http://www.w3.org/2000/svg">
<g clip-path="url(#clip0_270_4349)">
<path d="M12 24C18.6275 24 24 18.6274 24 12C24 5.37259 18.6275 0 12 0C5.37251 0 0 5.37259 0 12C0 18.6274 5.37251 24 12 24Z" fill="#D3883E"/>
<path d="M12.0121 22.5547C9.19143 22.5547 6.53805 21.4585 4.55398 19.4644C2.55735 17.4699 1.44535 14.7888 1.45836 12.0008C1.45836 9.17865 2.55797 6.53142 4.55398 4.53725C5.52246 3.56069 6.68233 2.78415 7.96461 2.25382C9.2469 1.72349 10.6254 1.4502 12.0181 1.4502C13.4108 1.4502 14.7894 1.72349 16.0716 2.25382C17.3539 2.78415 18.5138 3.56069 19.4823 4.53725C23.5938 8.65387 23.5938 15.3477 19.4823 19.4644C17.4743 21.4585 14.8209 22.5547 12.0121 22.5547ZM12.0002 2.88127C9.66952 2.88127 7.32689 3.76757 5.55797 5.55183C3.83698 7.27718 2.87976 9.59325 2.89263 12.0008C2.89263 14.4381 3.83685 16.7238 5.55797 18.4498C6.39247 19.2948 7.39314 19.9669 8.50008 20.4258C9.60703 20.8847 10.7975 21.1209 12.0002 21.1203C14.4384 21.1203 16.7213 20.1757 18.4424 18.4498C21.9922 14.8929 21.9922 9.10868 18.4424 5.55183C17.6088 4.7057 16.6083 4.03291 15.5011 3.57396C14.394 3.115 13.2031 2.87938 12.0002 2.88127Z" fill="#F3AD61"/>
<path d="M13.6878 10.3261L14.9404 8.21529C15.0426 8.04197 15.0963 7.84554 15.0963 7.64561C15.0963 7.44569 15.0426 7.24925 14.9404 7.07594C14.8387 6.90264 14.6918 6.7587 14.5146 6.65875C14.3375 6.55879 14.1363 6.50638 13.9317 6.50684H10.236C9.93297 6.5163 9.64555 6.64043 9.43459 6.85296C9.22363 7.06549 9.10567 7.34975 9.10567 7.64561C9.10567 7.94148 9.22363 8.22574 9.43459 8.43827C9.64555 8.6508 9.93297 8.77492 10.236 8.78439H11.9129L11.0141 10.3133C10.8497 10.5113 10.7595 10.7581 10.7584 11.013C10.7584 11.6427 11.2819 12.1523 11.9261 12.1523C12.6552 12.1523 13.2504 12.7331 13.2504 13.4444C13.2504 14.1558 12.6552 14.7377 11.9261 14.7377C11.3667 14.7377 10.8683 14.3937 10.6854 13.8829C10.5814 13.6007 10.3672 13.37 10.0896 13.2411C9.81202 13.1123 9.49348 13.0956 9.20338 13.1949C9.05915 13.244 8.92634 13.3205 8.81264 13.4201C8.69895 13.5196 8.60663 13.6402 8.54104 13.7748C8.47545 13.9094 8.43789 14.0554 8.43054 14.2043C8.42318 14.3532 8.44618 14.502 8.4982 14.6421C8.7523 15.3312 9.21754 15.9273 9.83077 16.3496C10.444 16.7718 11.1755 16.9998 11.9261 17.0025C12.8926 17.0015 13.8193 16.6265 14.5027 15.9597C15.1862 15.2928 15.5706 14.3887 15.5715 13.4456C15.57 12.8092 15.3947 12.1847 15.0636 11.6364C14.7325 11.0881 14.2576 10.6358 13.6878 10.3261Z" fill="#402A32"/>
</g>
<defs>
<clipPath id="clip0_270_4349">
<rect width="24" height="24" fill="white"/>
</clipPath>
</defs>
</svg>
