<svg width="34" height="35" viewBox="0 0 34 35" fill="none" xmlns="http://www.w3.org/2000/svg">
<path d="M18.4176 0.846992C18.5846 0.549281 18.8384 0.310492 19.1447 0.163011C19.451 0.0155305 19.7949 -0.0335048 20.1299 0.0225559L20.655 0.111444C21.6512 0.278611 22.6011 0.65582 23.4426 1.21837C24.284 1.78092 24.9979 2.51613 25.5377 3.37584C26.0774 4.23556 26.4307 5.20039 26.5745 6.20717C26.7183 7.21395 26.6493 8.23996 26.372 9.21802L25.3615 12.778H26.8288C27.9434 12.778 29.0427 13.0396 30.0394 13.5422C31.0361 14.0448 31.9028 14.7745 32.5706 15.6733C33.2384 16.5721 33.6889 17.6153 33.8865 18.7201C34.084 19.825 34.0231 20.9609 33.7086 22.0379L31.2043 30.6134C30.8344 31.8799 30.0672 32.9917 29.0175 33.7825C27.9678 34.5732 26.6921 35.0004 25.3813 35H14.532C12.8033 34.9997 11.1181 34.4542 9.71299 33.44C9.35333 33.9244 8.88644 34.3176 8.34942 34.5885C7.8124 34.8593 7.22006 35.0002 6.61949 35H3.86137C2.83727 35 1.85511 34.5903 1.13097 33.861C0.406821 33.1317 0 32.1425 0 31.1111L0 16.6668C0 14.5202 1.72989 12.778 3.86137 12.778H11.401C11.4984 12.7777 11.5941 12.7515 11.6782 12.7019C11.7623 12.6523 11.8318 12.5812 11.8798 12.4958L18.4176 0.846992ZM10.4809 29.7756L11.3546 30.5089C12.246 31.2578 13.3714 31.6667 14.532 31.6667H25.3813C25.9772 31.6671 26.5573 31.4731 27.0346 31.1138C27.5119 30.7545 27.8608 30.2491 28.0291 29.6734L30.5335 21.0979C30.7029 20.518 30.7358 19.9062 30.6294 19.3112C30.5231 18.7162 30.2805 18.1544 29.9209 17.6704C29.5613 17.1863 29.0946 16.7934 28.5578 16.5228C28.0211 16.2521 27.429 16.1112 26.8288 16.1113H23.1682C22.9121 16.1112 22.6595 16.0513 22.4303 15.9363C22.2011 15.8212 22.0015 15.6541 21.8473 15.4482C21.6931 15.2423 21.5884 15.0031 21.5416 14.7495C21.4947 14.4959 21.507 14.2349 21.5773 13.9869L23.1903 8.30248C23.4632 7.33984 23.3571 6.30825 22.8939 5.42245C22.4307 4.53665 21.6461 3.86488 20.7035 3.54697L14.7615 14.1358C14.4251 14.7352 13.9368 15.2339 13.3463 15.581C12.7559 15.9281 12.0846 16.1111 11.401 16.1113H10.4809V29.7756ZM7.17111 16.1113H3.86137C3.71507 16.1113 3.57476 16.1698 3.47131 16.274C3.36786 16.3782 3.30974 16.5195 3.30974 16.6668V31.1111C3.30974 31.4178 3.55687 31.6667 3.86137 31.6667H6.61949C6.76579 31.6667 6.90609 31.6082 7.00954 31.504C7.11299 31.3998 7.17111 31.2585 7.17111 31.1111V16.1113Z" fill="#FBFBFB"/>
</svg>
