<svg width="30" height="30" viewBox="0 0 30 30" fill="none" xmlns="http://www.w3.org/2000/svg">
<circle cx="15" cy="15" r="15" fill="url(#paint0_linear_1331_680)"/>
<path d="M11 19C11 19 18 20 21 23H22C22.2652 23 22.5196 22.8946 22.7071 22.7071C22.8946 22.5196 23 22.2652 23 22V15.937C23.4298 15.8265 23.8106 15.5762 24.0825 15.2255C24.3544 14.8749 24.502 14.4437 24.502 14C24.502 13.5563 24.3544 13.1251 24.0825 12.7745C23.8106 12.4238 23.4298 12.1735 23 12.063V6C23 5.73478 22.8946 5.48043 22.7071 5.29289C22.5196 5.10536 22.2652 5 22 5H21C18 8 11 9 11 9H7C6.46957 9 5.96086 9.21071 5.58579 9.58579C5.21071 9.96086 5 10.4696 5 11V17C5 17.5304 5.21071 18.0391 5.58579 18.4142C5.96086 18.7893 6.46957 19 7 19H8L9 24H11V19ZM13 10.661C13.683 10.515 14.527 10.311 15.44 10.044C17.118 9.55 19.25 8.773 21 7.574V20.425C19.25 19.227 17.117 18.45 15.44 17.956C14.6345 17.7206 13.8207 17.5152 13 17.34V10.661ZM7 11H11V17H7V11Z" fill="#FBFBFB"/>
<defs>
<linearGradient id="paint0_linear_1331_680" x1="15" y1="0" x2="15" y2="30" gradientUnits="userSpaceOnUse">
<stop stop-color="#0060F0"/>
<stop offset="1" stop-color="#00378A"/>
</linearGradient>
</defs>
</svg>
