<svg width="14" height="8" viewBox="0 0 14 8" fill="none" xmlns="http://www.w3.org/2000/svg">
<path fill-rule="evenodd" clip-rule="evenodd" d="M6.29302 0.292902C6.48055 0.10543 6.73486 0.000114918 7.00002 0.000114918C7.26519 0.000114918 7.5195 0.10543 7.70702 0.292902L13.364 5.9499C13.4595 6.04215 13.5357 6.15249 13.5881 6.2745C13.6405 6.3965 13.6681 6.52772 13.6693 6.6605C13.6704 6.79328 13.6451 6.92496 13.5948 7.04785C13.5446 7.17075 13.4703 7.2824 13.3764 7.3763C13.2825 7.47019 13.1709 7.54444 13.048 7.59472C12.9251 7.645 12.7934 7.67031 12.6606 7.66915C12.5278 7.668 12.3966 7.64041 12.2746 7.588C12.1526 7.53559 12.0423 7.45941 11.95 7.3639L7.00002 2.4139L2.05002 7.3639C1.86142 7.54606 1.60882 7.64685 1.34662 7.64458C1.08443 7.6423 0.833613 7.53713 0.648205 7.35172C0.462797 7.16631 0.357627 6.9155 0.355349 6.6533C0.35307 6.39111 0.453864 6.1385 0.636023 5.9499L6.29302 0.292902Z" fill="#FBFBFB"/>
</svg>
