<svg width="48" height="48" viewBox="0 0 48 48" fill="none" xmlns="http://www.w3.org/2000/svg">
<g clip-path="url(#clip0_1055_421)">
<path d="M24 35.9941C30.6274 35.9941 36 30.6216 36 23.9941C36 17.3667 30.6274 11.9941 24 11.9941C17.3726 11.9941 12 17.3667 12 23.9941C12 30.6216 17.3726 35.9941 24 35.9941Z" fill="white"/>
<path d="M24.0014 12H44.7826C42.6768 8.35143 39.6475 5.32154 35.9993 3.21505C32.3511 1.10855 28.2126 -0.00029387 23.9999 5.84198e-08C19.7872 0.000293987 15.6488 1.10972 12.0009 3.21672C8.35294 5.32373 5.32405 8.35403 3.21875 12.0029L13.6094 30L13.6187 29.9976C12.5617 28.1749 12.0039 26.1057 12.0015 23.9987C11.9991 21.8917 12.5523 19.8212 13.6052 17.9961C14.6581 16.171 16.1735 14.6558 17.9987 13.6031C19.8239 12.5504 21.8944 11.9974 24.0014 12Z" fill="url(#paint0_linear_1055_421)"/>
<path d="M24 33.5C29.2467 33.5 33.5 29.2467 33.5 24C33.5 18.7533 29.2467 14.5 24 14.5C18.7533 14.5 14.5 18.7533 14.5 24C14.5 29.2467 18.7533 33.5 24 33.5Z" fill="#1A73E8"/>
<path d="M34.391 30.0037L24.0004 48.0008C28.2131 48.0014 32.3517 46.8928 36 44.7866C39.6484 42.6804 42.6779 39.6507 44.784 36.0023C46.8901 32.3538 47.9984 28.2152 47.9977 24.0025C47.9969 19.7898 46.8871 15.6516 44.7797 12.0039H23.9986L23.9961 12.0132C26.1031 12.0091 28.174 12.5606 29.9999 13.6121C31.8259 14.6635 33.3424 16.1778 34.3965 18.0022C35.4506 19.8266 36.0052 21.8966 36.0042 24.0037C36.0032 26.1107 35.4468 28.1803 34.391 30.0037Z" fill="url(#paint1_linear_1055_421)"/>
<path d="M13.6069 30.003L3.21632 12.0059C1.10944 15.6539 0.000157011 19.7923 1.66666e-08 24.005C-0.000156978 28.2177 1.10882 32.3562 3.21543 36.0043C5.32203 39.6525 8.352 42.6817 12.0007 44.7874C15.6494 46.8931 19.7881 48.0011 24.0008 47.9999L34.3914 30.0028L34.3847 29.996C33.3347 31.8227 31.8216 33.3404 29.9981 34.3959C28.1745 35.4515 26.1049 36.0077 23.9978 36.0084C21.8908 36.0091 19.8208 35.4543 17.9965 34.4C16.1723 33.3456 14.6582 31.829 13.6069 30.003Z" fill="url(#paint2_linear_1055_421)"/>
</g>
<defs>
<linearGradient id="paint0_linear_1055_421" x1="3.21875" y1="15" x2="44.7826" y2="15" gradientUnits="userSpaceOnUse">
<stop stop-color="#D93025"/>
<stop offset="1" stop-color="#EA4335"/>
</linearGradient>
<linearGradient id="paint1_linear_1055_421" x1="20.7216" y1="47.6799" x2="41.5036" y2="11.6845" gradientUnits="userSpaceOnUse">
<stop stop-color="#FCC934"/>
<stop offset="1" stop-color="#FBBC04"/>
</linearGradient>
<linearGradient id="paint2_linear_1055_421" x1="26.5964" y1="46.5014" x2="5.81442" y2="10.5059" gradientUnits="userSpaceOnUse">
<stop stop-color="#1E8E3E"/>
<stop offset="1" stop-color="#34A853"/>
</linearGradient>
<clipPath id="clip0_1055_421">
<rect width="48" height="48" fill="white"/>
</clipPath>
</defs>
</svg>
