<svg width="31" height="33" viewBox="0 0 31 33" fill="none" xmlns="http://www.w3.org/2000/svg">
<path d="M15.4998 0.916992C23.5542 0.916992 30.0832 7.44595 30.0832 15.5003C30.0832 23.5547 23.5542 30.0837 15.4998 30.0837C7.44546 30.0837 0.916504 23.5547 0.916504 15.5003C0.916504 7.44595 7.44546 0.916992 15.4998 0.916992ZM15.4998 3.83366C12.4056 3.83366 9.43818 5.06282 7.25026 7.25075C5.06233 9.43867 3.83317 12.4061 3.83317 15.5003C3.83317 18.5945 5.06233 21.562 7.25026 23.7499C9.43818 25.9378 12.4056 27.167 15.4998 27.167C18.594 27.167 21.5615 25.9378 23.7494 23.7499C25.9373 21.562 27.1665 18.5945 27.1665 15.5003C27.1665 12.4061 25.9373 9.43867 23.7494 7.25075C21.5615 5.06282 18.594 3.83366 15.4998 3.83366ZM15.4998 6.75033C15.857 6.75037 16.2018 6.88151 16.4687 7.11887C16.7356 7.35623 16.9062 7.68329 16.948 8.03803L16.9582 8.20866V14.8966L20.9059 18.8443C21.1674 19.1067 21.3193 19.4589 21.3306 19.8292C21.3419 20.1996 21.2118 20.5603 20.9668 20.8382C20.7217 21.1161 20.3801 21.2904 20.0112 21.3255C19.6424 21.3606 19.274 21.2541 18.9809 21.0274L18.8438 20.9064L14.4688 16.5314C14.2421 16.3045 14.0966 16.0093 14.0546 15.6914L14.0415 15.5003V8.20866C14.0415 7.82189 14.1952 7.45095 14.4686 7.17746C14.7421 6.90397 15.1131 6.75033 15.4998 6.75033Z" fill="#FBFBFB"/>
</svg>
