<svg width="43" height="43" viewBox="0 0 43 43" fill="none" xmlns="http://www.w3.org/2000/svg">
<circle cx="21.5" cy="21.5" r="21.5" fill="#070707"/>
<path d="M25.8547 20.629C25.3744 20.629 24.9838 20.2384 24.9838 19.7581H24.1128C24.1128 20.7187 24.8941 21.5 25.8547 21.5C26.8154 21.5 27.5967 20.7187 27.5967 19.7581H26.7257C26.7257 20.2384 26.3351 20.629 25.8547 20.629Z" fill="#FBFBFB"/>
<path d="M32.8609 25.3013L27.9987 23.7819C27.9695 23.5929 27.9216 23.4109 27.8472 23.2411C29.286 22.5848 30.299 21.267 30.5703 19.7215C31.5989 19.5482 32.3871 18.6576 32.3871 17.5806V14.5323C32.3871 10.9304 29.4567 8 25.8548 8C24.4774 8 23.2006 8.43113 22.1458 9.16144C20.7501 8.40369 19.1793 8 17.5806 8C12.2978 8 8 12.2978 8 17.5806C8 22.6379 11.9398 26.7903 16.9113 27.1352C16.7846 27.4727 16.7097 27.8337 16.7097 28.2112V31.0806C16.7097 32.2813 17.6865 33.2581 18.8871 33.2581H19.3226V35H35V28.2112C35 26.8708 34.1404 25.7011 32.8609 25.3013ZM34.129 28.2112V31.0806H32.3871V28.0323H31.5161V34.129H27.0812C27.1299 33.9923 27.1613 33.8468 27.1613 33.6935V28.9032H28.0323V26.2903H27.369L27.8764 25.0213C27.9199 24.9125 27.9491 24.8001 27.9743 24.6873L32.6005 26.1331C33.515 26.4184 34.129 27.2536 34.129 28.2112ZM19.3226 28.0323V28.9032H17.5806V28.2112C17.5806 27.2536 18.1947 26.4184 19.1088 26.1331L23.7349 24.6873C23.7602 24.8005 23.7893 24.9129 23.8329 25.0218L24.3407 26.2903H23.6774V28.9032H24.5484V29.836C24.4082 29.7995 24.264 29.7742 24.1129 29.7742H20.1935V28.0323H19.3226ZM27.1613 24.1129V24.2126C27.1613 24.3794 27.1299 24.5427 27.0677 24.6978L26.431 26.2903H25.2791L24.6425 24.6982C24.5797 24.5432 24.5484 24.3799 24.5484 24.2126V24.1129C24.5484 23.3926 25.1345 22.8065 25.8548 22.8065C26.5751 22.8065 27.1613 23.3926 27.1613 24.1129ZM24.5484 28.0323V27.1613H27.1613V28.0323H24.5484ZM25.4194 33.6935V32.6562C25.6872 32.3501 25.8548 31.9542 25.8548 31.5161C25.8548 31.078 25.6872 30.6826 25.4194 30.376V28.9032H26.2903V33.6935C26.2903 33.9335 26.0948 34.129 25.8548 34.129C25.6149 34.129 25.4194 33.9335 25.4194 33.6935ZM27.3272 22.519C26.9388 22.1602 26.424 21.9355 25.8548 21.9355C25.2857 21.9355 24.7709 22.1602 24.3825 22.519C22.9088 21.9233 21.9355 20.4962 21.9355 18.8871V18.807C22.0722 18.8557 22.2177 18.8871 22.371 18.8871H24.1129C24.6799 18.8871 25.1589 18.5217 25.3392 18.0161H26.3709C26.5512 18.5217 27.0302 18.8871 27.5972 18.8871H29.3391C29.4924 18.8871 29.6379 18.8557 29.7746 18.807V18.8871C29.7742 20.4966 28.8005 21.9233 27.3272 22.519ZM20.1935 17.5806C20.1935 17.0136 20.5589 16.5346 21.0645 16.3543V17.5806V18.807C20.5589 18.6267 20.1935 18.1476 20.1935 17.5806ZM29.7742 17.5806C29.7742 17.8206 29.5787 18.0161 29.3387 18.0161H27.5968C27.3568 18.0161 27.1613 17.8206 27.1613 17.5806V17.1452H29.7742V17.5806ZM29.7742 16.2742H26.2903V17.1452H25.4194V16.2742H21.9355V15.4032H29.7742V16.2742ZM24.5484 17.1452V17.5806C24.5484 17.8206 24.3529 18.0161 24.1129 18.0161H22.371C22.131 18.0161 21.9355 17.8206 21.9355 17.5806V17.1452H24.5484ZM30.6452 18.807V17.5806V16.3543C31.1508 16.5346 31.5161 17.0136 31.5161 17.5806C31.5161 18.1476 31.1508 18.6267 30.6452 18.807ZM31.5161 14.5323V15.85C31.2618 15.6575 30.9687 15.5134 30.6452 15.4476V14.5323H21.0645V15.4472C20.741 15.5134 20.4479 15.6571 20.1935 15.8496V14.5323C20.1935 11.4107 22.7333 8.87097 25.8548 8.87097C28.9764 8.87097 31.5161 11.4107 31.5161 14.5323ZM21.4112 9.75805C20.13 10.9513 19.3226 12.6475 19.3226 14.5323V15.3645C18.8235 15.2382 18.4516 14.7888 18.4516 14.2509C18.4516 13.184 17.8589 12.2246 16.9043 11.7473C16.2472 11.419 15.8387 10.7579 15.8387 10.0233C15.8387 9.66094 15.9402 9.31298 16.1235 9.00292C16.5986 8.92235 17.0833 8.87097 17.5806 8.87097C18.9132 8.87097 20.2249 9.17711 21.4112 9.75805ZM8.87097 17.5806C8.87097 14.7988 10.187 12.3235 12.2233 10.7279L13.9775 13.0664C14.335 13.5433 14.5323 14.1347 14.5323 14.7313C14.5323 15.5787 14.1525 16.3687 13.491 16.8982L13.1988 17.1321C12.6623 17.5606 12.3548 18.2003 12.3548 18.8871C12.3548 19.856 12.9724 20.7131 13.8917 21.0197L15.1877 21.4517C15.8378 21.6685 16.2742 22.2743 16.2742 22.9593C16.2742 23.8355 15.5613 24.5484 14.6851 24.5484H12.377C10.2536 22.9584 8.87097 20.4313 8.87097 17.5806ZM13.8094 25.4194H14.6851C16.0416 25.4194 17.1452 24.3158 17.1452 22.9593C17.1452 21.8985 16.4693 20.9609 15.4633 20.6255L14.1673 20.1935C13.6042 20.0059 13.2258 19.4811 13.2258 18.8871C13.2258 18.4664 13.4144 18.0745 13.7427 17.8119L14.0349 17.578C14.9046 16.8826 15.4032 15.8448 15.4032 14.7313C15.4032 13.9474 15.1441 13.1709 14.6742 12.5438L12.9358 10.2258C13.5973 9.80639 14.3158 9.47019 15.0818 9.24026C15.01 9.49371 14.9677 9.75544 14.9677 10.0233C14.9677 11.0902 15.5604 12.0496 16.515 12.5269C17.1722 12.8552 17.5806 13.5163 17.5806 14.2509C17.5806 15.2704 18.341 16.1074 19.3226 16.2459V17.5806C19.3226 18.6524 20.1025 19.5403 21.139 19.7202C21.4099 21.2666 22.4232 22.5848 23.8625 23.2415C23.788 23.4113 23.7401 23.5934 23.711 23.7824L18.8488 25.3018C18.2635 25.4847 17.7727 25.8339 17.4051 26.2816C16.1183 26.2555 14.9024 25.9476 13.8094 25.4194ZM17.5806 31.0806V29.7742H19.3226V30.6452H24.1129C24.5932 30.6452 24.9839 31.0358 24.9839 31.5161C24.9839 31.9965 24.5932 32.3871 24.1129 32.3871H18.8871C18.1668 32.3871 17.5806 31.8009 17.5806 31.0806ZM20.1935 33.2581H24.1129C24.264 33.2581 24.4082 33.2328 24.5484 33.1962V33.6935C24.5484 33.8468 24.5797 33.9923 24.6285 34.129H20.1935V33.2581ZM32.3871 34.129V31.9516H34.129V34.129H32.3871Z" fill="#FBFBFB"/>
<path d="M11.9193 14.0968H11.0483V14.9677H11.9193V14.0968Z" fill="#FBFBFB"/>
<path d="M13.6615 22.371H12.7905V23.2419H13.6615V22.371Z" fill="#FBFBFB"/>
</svg>
