<svg width="14" height="15" viewBox="0 0 14 15" fill="none" xmlns="http://www.w3.org/2000/svg">
<path fill-rule="evenodd" clip-rule="evenodd" d="M7.56194 1.10515C8.98567 -0.31858 11.3399 -0.31858 12.7636 1.10515C14.1874 2.52889 14.1874 4.88311 12.7636 6.30685L10.1653 8.90513C8.92867 10.2442 6.91627 10.3146 5.52985 9.39035C5.04541 9.06739 4.91451 8.41286 5.23747 7.92842C5.56043 7.44398 6.21495 7.31308 6.69939 7.63604C7.33014 8.05653 8.172 7.96358 8.6237 7.46671C8.63495 7.45433 8.64649 7.44223 8.65832 7.43041L11.2728 4.81597C11.8731 4.21562 11.8731 3.19638 11.2728 2.59603C10.6939 2.01718 9.7256 1.99645 9.11887 2.53386L9.01586 2.68837C8.6929 3.17281 8.03837 3.30372 7.55393 2.98076C7.06949 2.6578 6.93859 2.00327 7.26155 1.51883L7.43022 1.26582C7.46873 1.20806 7.51285 1.15424 7.56194 1.10515Z" fill="#CFD0D2"/>
<path fill-rule="evenodd" clip-rule="evenodd" d="M3.71854 5.03451C4.96018 3.90575 6.87099 3.60943 8.34933 4.71818C8.81511 5.06752 8.90951 5.72829 8.56017 6.19407C8.21084 6.65985 7.55006 6.75425 7.08428 6.40492C6.54515 6.00056 5.76962 6.03571 5.15917 6.57458L2.57041 9.24685L2.55868 9.25877C1.95833 9.85912 1.95833 10.8784 2.55868 11.4787C3.15902 12.0791 4.17827 12.0791 4.77861 11.4787L5.52405 12.2241L4.77862 11.4787L5.03163 11.2257C5.44332 10.814 6.11081 10.814 6.5225 11.2257C6.9342 11.6374 6.93419 12.3049 6.5225 12.7166L6.26949 12.9696C4.84576 14.3933 2.49153 14.3933 1.0678 12.9696C-0.353793 11.548 -0.35593 9.1987 1.06139 7.77432L3.6705 5.08105C3.68602 5.06503 3.70204 5.04951 3.71854 5.03451Z" fill="#CFD0D2"/>
</svg>
