<svg width="34" height="35" viewBox="0 0 34 35" fill="none" xmlns="http://www.w3.org/2000/svg">
<path d="M15.5824 34.153C15.4154 34.4507 15.1616 34.6895 14.8553 34.837C14.549 34.9845 14.2051 35.0335 13.8701 34.9774L13.345 34.8886C12.3488 34.7214 11.3989 34.3442 10.5574 33.7816C9.71601 33.2191 9.00206 32.4839 8.46234 31.6242C7.92262 30.7644 7.5693 29.7996 7.42551 28.7928C7.28172 27.7861 7.35072 26.76 7.62797 25.782L8.63854 22.222H7.17122C6.05657 22.222 4.95727 21.9604 3.96057 21.4578C2.96387 20.9552 2.09723 20.2255 1.42943 19.3267C0.761639 18.4279 0.311081 17.3847 0.113529 16.2799C-0.0840225 15.175 -0.0231323 14.0391 0.29137 12.9621L2.79574 4.38663C3.16564 3.12012 3.93282 2.00829 4.98248 1.21754C6.03215 0.426792 7.30785 -0.000362396 8.61868 0H19.468C21.1967 0.00025177 22.8819 0.54578 24.287 1.55999C24.6467 1.07559 25.1136 0.682358 25.6506 0.411549C26.1876 0.140743 26.7799 -0.000171661 27.3805 0H30.1386C31.1627 0 32.1449 0.409718 32.869 1.13902C33.5932 1.86832 34 2.85746 34 3.88885L34 18.3332C34 20.4798 32.2701 22.222 30.1386 22.222H22.599C22.5016 22.2223 22.4059 22.2485 22.3218 22.2981C22.2377 22.3477 22.1682 22.4188 22.1202 22.5042L15.5824 34.153ZM23.5191 5.2244L22.6454 4.49107C21.754 3.74219 20.6286 3.3333 19.468 3.3333H8.61868C8.02276 3.33288 7.44272 3.52685 6.96541 3.88618C6.4881 4.24552 6.13918 4.75088 5.97089 5.32662L3.46652 13.9021C3.29707 14.482 3.26421 15.0938 3.37055 15.6888C3.47689 16.2838 3.7195 16.8456 4.07911 17.3296C4.43872 17.8137 4.90543 18.2066 5.44219 18.4772C5.97894 18.7479 6.57096 18.8888 7.17122 18.8887H10.8318C11.0879 18.8888 11.3405 18.9487 11.5697 19.0637C11.7989 19.1788 11.9985 19.3459 12.1527 19.5518C12.3069 19.7577 12.4116 19.9969 12.4584 20.2505C12.5053 20.5041 12.493 20.7651 12.4227 21.0131L10.8097 26.6975C10.5368 27.6602 10.6429 28.6917 11.1061 29.5775C11.5693 30.4633 12.3539 31.1351 13.2965 31.453L19.2385 20.8642C19.5749 20.2648 20.0632 19.7661 20.6537 19.419C21.2441 19.0719 21.9154 18.8889 22.599 18.8887H23.5191L23.5191 5.2244ZM26.8289 18.8887H30.1386C30.2849 18.8887 30.4252 18.8302 30.5287 18.726C30.6321 18.6218 30.6903 18.4805 30.6903 18.3332V3.88885C30.6903 3.58219 30.4431 3.3333 30.1386 3.3333H27.3805C27.2342 3.3333 27.0939 3.39183 26.9905 3.49602C26.887 3.6002 26.8289 3.74151 26.8289 3.88885L26.8289 18.8887Z" fill="#FBFBFB"/>
</svg>
