<svg width="22" height="23" viewBox="0 0 22 23" fill="none" xmlns="http://www.w3.org/2000/svg">
<g clip-path="url(#clip0_216_1973)">
<circle cx="11" cy="11.5" r="11" fill="#070707"/>
<path d="M8.6 16.5V6.1H11.176C12.0293 6.1 12.664 6.30267 13.08 6.708C13.5067 7.10267 13.72 7.64667 13.72 8.34V14.26C13.72 14.9533 13.512 15.5027 13.096 15.908C12.68 16.3027 12.04 16.5 11.176 16.5H8.6ZM12.6 8.34C12.6 8.03067 12.4773 7.74267 12.232 7.476C11.9973 7.19867 11.6453 7.06 11.176 7.06H9.72V15.54H11.176C11.656 15.54 12.0133 15.4067 12.248 15.14C12.4827 14.8733 12.6 14.58 12.6 14.26V8.34Z" fill="#F3F3F4"/>
</g>
<defs>
<clipPath id="clip0_216_1973">
<rect width="22" height="22" fill="white" transform="translate(0 0.5)"/>
</clipPath>
</defs>
</svg>
