<svg width="620" height="620" viewBox="0 0 620 620" fill="none" xmlns="http://www.w3.org/2000/svg">
<path d="M31.9854 61.1909C35.2622 61.047 38.4062 60.3827 41.3399 59.2846C42.0794 57.9827 43.7488 54.677 45.168 49.4009H31.9854V61.1909Z" fill="#070707"/>
<path d="M45.3027 57.4639C48.9781 55.4446 52.1996 52.6881 54.7635 49.3958H48.0305C47.1581 52.8276 46.164 55.5 45.3027 57.4639Z" fill="#070707"/>
<path d="M47.435 32.646H31.9829V46.6612H45.8342C46.68 42.8197 47.3154 38.1414 47.435 32.646Z" fill="#070707"/>
<path d="M50.1933 29.9116H61.2238C61.1065 24.5535 59.6098 19.5342 57.0724 15.1924H48.7275C49.549 19.2907 50.1379 24.2037 50.1933 29.9116Z" fill="#070707"/>
<path d="M50.1736 32.646C50.0585 38.086 49.4739 42.771 48.6614 46.6612H56.6742C59.2248 42.5363 60.8256 37.7583 61.1621 32.646H50.1736Z" fill="#070707"/>
<path d="M45.9208 15.1924H31.9854V29.9116H47.4574C47.3954 24.1661 46.771 19.2442 45.9208 15.1924Z" fill="#070707"/>
<path d="M41.3221 1.90225C38.3951 0.806276 35.2556 0.146479 31.9854 0.00256348V12.4546H45.2787C43.8329 6.8308 42.0816 3.28162 41.3221 1.90225Z" fill="#070707"/>
<path d="M55.2755 12.4534C52.6163 8.8489 49.1912 5.8466 45.239 3.68787C46.1468 5.78682 47.2184 8.69834 48.1284 12.4534H55.2755Z" fill="#070707"/>
<path d="M16.582 12.4542H29.2488V0C26.2642 0.132845 23.397 0.695222 20.6958 1.62292C20.0493 2.74989 18.143 6.3987 16.582 12.4542Z" fill="#070707"/>
<path d="M16.0236 46.6643H29.2483V32.6536H14.425C14.549 38.1423 15.1801 42.8206 16.0236 46.6643Z" fill="#070707"/>
<path d="M14.4009 29.9116H29.2463V15.1924H15.9397C15.0895 19.2442 14.4673 24.1661 14.4009 29.9116Z" fill="#070707"/>
<path d="M20.6802 59.5635C23.388 60.4934 26.2597 61.0603 29.2465 61.1909V49.4009H16.6926C18.2248 55.1066 20.0536 58.5052 20.6802 59.5635Z" fill="#070707"/>
<path d="M16.8014 3.27002C12.5083 5.45089 8.79303 8.60818 5.95679 12.454H13.7327C14.7091 8.45098 15.8604 5.3889 16.8014 3.27002Z" fill="#070707"/>
<path d="M13.1295 15.1924H4.15584C1.6185 19.5364 0.121775 24.5558 0 29.9116H11.6638C11.7192 24.2037 12.3081 19.2907 13.1295 15.1924Z" fill="#070707"/>
<path d="M11.6862 32.646H0.0622559C0.403225 37.7627 1.99958 42.5363 4.55463 46.6612H13.194C12.3859 42.7754 11.8035 38.0904 11.6862 32.646Z" fill="#070707"/>
<path d="M6.46484 49.4009C9.21917 52.9346 12.7218 55.8416 16.7448 57.8919C15.8415 55.9014 14.7632 53.0807 13.8267 49.4009H6.46484Z" fill="#070707"/>
</svg>
