<svg width="256" height="256" viewBox="0 0 256 256" fill="none" xmlns="http://www.w3.org/2000/svg">
<g clip-path="url(#clip0_1055_414)">
<path d="M231.099 190.5C227.666 192.284 224.126 193.854 220.499 195.2C209.015 199.475 196.853 201.643 184.599 201.6C137.299 201.6 96.0992 169.1 96.0992 127.3C96.1607 121.703 97.7125 116.223 100.595 111.425C103.478 106.626 107.587 102.683 112.499 100C69.6992 101.8 58.6992 146.4 58.6992 172.5C58.6992 246.5 126.799 253.9 141.499 253.9C149.399 253.9 161.299 251.6 168.499 249.3L169.799 248.9C197.353 239.378 220.843 220.755 236.399 196.1C236.851 195.351 237.045 194.474 236.952 193.604C236.858 192.734 236.481 191.919 235.88 191.284C235.278 190.648 234.485 190.227 233.622 190.086C232.758 189.944 231.872 190.09 231.099 190.5Z" fill="url(#paint0_linear_1055_414)"/>
<path opacity="0.35" d="M231.099 190.5C227.666 192.284 224.126 193.854 220.499 195.2C209.015 199.475 196.853 201.643 184.599 201.6C137.299 201.6 96.0992 169.1 96.0992 127.3C96.1607 121.703 97.7125 116.223 100.595 111.425C103.478 106.626 107.587 102.683 112.499 100C69.6992 101.8 58.6992 146.4 58.6992 172.5C58.6992 246.5 126.799 253.9 141.499 253.9C149.399 253.9 161.299 251.6 168.499 249.3L169.799 248.9C197.353 239.378 220.843 220.755 236.399 196.1C236.851 195.351 237.045 194.474 236.952 193.604C236.858 192.734 236.481 191.919 235.88 191.284C235.278 190.648 234.485 190.227 233.622 190.086C232.758 189.944 231.872 190.09 231.099 190.5Z" fill="url(#paint1_radial_1055_414)"/>
<path d="M105.699 241.3C96.7979 235.771 89.0822 228.531 82.9991 220C76.0525 210.492 71.2708 199.578 68.9896 188.026C66.7084 176.474 66.983 164.562 69.7941 153.127C72.6052 141.692 77.8846 131.011 85.262 121.833C92.6393 112.655 101.936 105.203 112.499 99.9996C115.699 98.4996 120.999 95.8996 128.099 95.9996C133.095 96.0383 138.015 97.2318 142.473 99.487C146.931 101.742 150.808 104.998 153.799 109C157.823 114.41 160.028 120.957 160.099 127.7C160.099 127.5 184.599 48.0996 80.0991 48.0996C36.1991 48.0996 0.0990607 89.6996 0.0990607 126.3C-0.075554 145.633 4.05784 164.763 12.1991 182.3C25.5318 210.69 48.8244 233.197 77.6554 245.548C106.486 257.898 138.849 259.234 168.599 249.3C158.176 252.592 147.163 253.581 136.32 252.2C125.477 250.819 115.064 247.099 105.799 241.3H105.699Z" fill="url(#paint2_linear_1055_414)"/>
<path opacity="0.41" d="M105.699 241.3C96.7979 235.771 89.0822 228.531 82.9991 220C76.0525 210.492 71.2708 199.578 68.9896 188.026C66.7084 176.474 66.983 164.562 69.7941 153.127C72.6052 141.692 77.8846 131.011 85.262 121.833C92.6393 112.655 101.936 105.203 112.499 99.9996C115.699 98.4996 120.999 95.8996 128.099 95.9996C133.095 96.0383 138.015 97.2318 142.473 99.487C146.931 101.742 150.808 104.998 153.799 109C157.823 114.41 160.028 120.957 160.099 127.7C160.099 127.5 184.599 48.0996 80.0991 48.0996C36.1991 48.0996 0.0990607 89.6996 0.0990607 126.3C-0.075554 145.633 4.05784 164.763 12.1991 182.3C25.5318 210.69 48.8244 233.197 77.6554 245.548C106.486 257.898 138.849 259.234 168.599 249.3C158.176 252.592 147.163 253.581 136.32 252.2C125.477 250.819 115.064 247.099 105.799 241.3H105.699Z" fill="url(#paint3_radial_1055_414)"/>
<path d="M152.4 148.8C151.5 149.8 149 151.3 149 154.4C149 157 150.7 159.6 153.8 161.7C168.1 171.7 195.2 170.3 195.3 170.3C205.961 170.293 216.424 167.427 225.6 162C234.838 156.597 242.503 148.872 247.836 139.593C253.168 130.314 255.983 119.802 256 109.1C256.3 86.7 248 71.8 244.7 65.2C223.4 23.8 177.7 6.26642e-07 128 6.26642e-07C94.3619 -0.00332557 62.0744 13.235 38.1208 36.8517C14.1673 60.4684 0.473036 92.5652 0 126.2C0.5 89.7 36.8 60.2 80 60.2C83.5 60.2 103.5 60.5 122 70.2C134.997 76.6585 145.76 86.8643 152.9 99.5C159 110.1 160.1 123.6 160.1 129C160.1 134.4 157.4 142.3 152.3 148.9L152.4 148.8Z" fill="url(#paint4_radial_1055_414)"/>
<path d="M152.4 148.8C151.5 149.8 149 151.3 149 154.4C149 157 150.7 159.6 153.8 161.7C168.1 171.7 195.2 170.3 195.3 170.3C205.961 170.293 216.424 167.427 225.6 162C234.838 156.597 242.503 148.872 247.836 139.593C253.168 130.314 255.983 119.802 256 109.1C256.3 86.7 248 71.8 244.7 65.2C223.4 23.8 177.7 6.26642e-07 128 6.26642e-07C94.3619 -0.00332557 62.0744 13.235 38.1208 36.8517C14.1673 60.4684 0.473036 92.5652 0 126.2C0.5 89.7 36.8 60.2 80 60.2C83.5 60.2 103.5 60.5 122 70.2C134.997 76.6585 145.76 86.8643 152.9 99.5C159 110.1 160.1 123.6 160.1 129C160.1 134.4 157.4 142.3 152.3 148.9L152.4 148.8Z" fill="url(#paint5_radial_1055_414)"/>
</g>
<defs>
<linearGradient id="paint0_linear_1055_414" x1="58.6992" y1="177" x2="237.099" y2="177" gradientUnits="userSpaceOnUse">
<stop stop-color="#0C59A4"/>
<stop offset="1" stop-color="#114A8B"/>
</linearGradient>
<radialGradient id="paint1_radial_1055_414" cx="0" cy="0" r="1" gradientUnits="userSpaceOnUse" gradientTransform="translate(157.199 178.345) scale(95.4 90.63)">
<stop offset="0.7" stop-opacity="0"/>
<stop offset="0.9" stop-opacity="0.5"/>
<stop offset="1"/>
</radialGradient>
<linearGradient id="paint2_linear_1055_414" x1="152.699" y1="99.5996" x2="41.3991" y2="220.9" gradientUnits="userSpaceOnUse">
<stop stop-color="#1B9DE2"/>
<stop offset="0.2" stop-color="#1595DF"/>
<stop offset="0.7" stop-color="#0680D7"/>
<stop offset="1" stop-color="#0078D4"/>
</linearGradient>
<radialGradient id="paint3_radial_1055_414" cx="0" cy="0" r="1" gradientUnits="userSpaceOnUse" gradientTransform="translate(70.5541 198.937) rotate(-81.3844) scale(143.386 115.842)">
<stop offset="0.8" stop-opacity="0"/>
<stop offset="0.9" stop-opacity="0.5"/>
<stop offset="1"/>
</radialGradient>
<radialGradient id="paint4_radial_1055_414" cx="0" cy="0" r="1" gradientUnits="userSpaceOnUse" gradientTransform="translate(25.89 47.316) rotate(92.2906) scale(202.562 431.415)">
<stop stop-color="#35C1F1"/>
<stop offset="0.1" stop-color="#34C1ED"/>
<stop offset="0.2" stop-color="#2FC2DF"/>
<stop offset="0.3" stop-color="#2BC3D2"/>
<stop offset="0.7" stop-color="#36C752"/>
</radialGradient>
<radialGradient id="paint5_radial_1055_414" cx="0" cy="0" r="1" gradientUnits="userSpaceOnUse" gradientTransform="translate(240.06 77.3) rotate(73.7398) scale(97.3 79.1244)">
<stop stop-color="#66EB6E"/>
<stop offset="1" stop-color="#66EB6E" stop-opacity="0"/>
</radialGradient>
<clipPath id="clip0_1055_414">
<rect width="256" height="256" fill="white"/>
</clipPath>
</defs>
</svg>
