<svg width="16" height="16" viewBox="0 0 16 16" fill="none" xmlns="http://www.w3.org/2000/svg">
<path d="M14.1667 7.9996H5.93004M3.02271 7.9996H1.83337M3.02271 7.9996C3.02271 7.61415 3.17583 7.24449 3.44838 6.97194C3.72093 6.69939 4.09059 6.54627 4.47604 6.54627C4.86149 6.54627 5.23115 6.69939 5.5037 6.97194C5.77626 7.24449 5.92937 7.61415 5.92937 7.9996C5.92937 8.38505 5.77626 8.75471 5.5037 9.02726C5.23115 9.29982 4.86149 9.45294 4.47604 9.45294C4.09059 9.45294 3.72093 9.29982 3.44838 9.02726C3.17583 8.75471 3.02271 8.38505 3.02271 7.9996ZM14.1667 12.4043H10.3347M10.3347 12.4043C10.3347 12.7898 10.1812 13.1599 9.9086 13.4325C9.63599 13.7051 9.26624 13.8583 8.88071 13.8583C8.49526 13.8583 8.1256 13.7045 7.85305 13.4319C7.58049 13.1594 7.42737 12.7897 7.42737 12.4043M10.3347 12.4043C10.3347 12.0187 10.1812 11.6493 9.9086 11.3767C9.63599 11.1041 9.26624 10.9509 8.88071 10.9509C8.49526 10.9509 8.1256 11.1041 7.85305 11.3766C7.58049 11.6492 7.42737 12.0188 7.42737 12.4043M7.42737 12.4043H1.83337M14.1667 3.59493H12.0967M9.18937 3.59493H1.83337M9.18937 3.59493C9.18937 3.20949 9.34249 2.83983 9.61505 2.56727C9.8876 2.29472 10.2573 2.1416 10.6427 2.1416C10.8336 2.1416 11.0225 2.17919 11.1989 2.25223C11.3752 2.32527 11.5354 2.43232 11.6704 2.56727C11.8053 2.70223 11.9124 2.86244 11.9854 3.03877C12.0584 3.21509 12.096 3.40408 12.096 3.59493C12.096 3.78579 12.0584 3.97478 11.9854 4.1511C11.9124 4.32743 11.8053 4.48764 11.6704 4.6226C11.5354 4.75755 11.3752 4.8646 11.1989 4.93764C11.0225 5.01068 10.8336 5.04827 10.6427 5.04827C10.2573 5.04827 9.8876 4.89515 9.61505 4.6226C9.34249 4.35004 9.18937 3.98038 9.18937 3.59493Z" stroke="#474747" stroke-width="1.5" stroke-miterlimit="10" stroke-linecap="round"/>
</svg>
