<svg width="37" height="38" viewBox="0 0 37 38" fill="none" xmlns="http://www.w3.org/2000/svg">
<path d="M13.2973 14.6486C13.2973 15.025 13.1478 15.3859 12.8817 15.652C12.6156 15.9181 12.2547 16.0676 11.8784 16.0676C11.5021 16.0676 11.1411 15.9181 10.8751 15.652C10.609 15.3859 10.4595 15.025 10.4595 14.6486C10.4595 14.2723 10.609 13.9114 10.8751 13.6453C11.1411 13.3792 11.5021 13.2297 11.8784 13.2297C12.2547 13.2297 12.6156 13.3792 12.8817 13.6453C13.1478 13.9114 13.2973 14.2723 13.2973 14.6486ZM10.4595 24.6757C10.4595 24.5502 10.5093 24.4299 10.598 24.3412C10.6867 24.2525 10.807 24.2027 10.9324 24.2027H26.0676C26.193 24.2027 26.3133 24.2525 26.402 24.3412C26.4907 24.4299 26.5405 24.5502 26.5405 24.6757C26.5405 24.8011 26.4907 24.9214 26.402 25.0101C26.3133 25.0988 26.193 25.1486 26.0676 25.1486H10.9324C10.807 25.1486 10.6867 25.0988 10.598 25.0101C10.5093 24.9214 10.4595 24.8011 10.4595 24.6757ZM26.5405 14.6486C26.5405 15.025 26.391 15.3859 26.1249 15.652C25.8589 15.9181 25.4979 16.0676 25.1216 16.0676C24.7453 16.0676 24.3844 15.9181 24.1183 15.652C23.8522 15.3859 23.7027 15.025 23.7027 14.6486C23.7027 14.2723 23.8522 13.9114 24.1183 13.6453C24.3844 13.3792 24.7453 13.2297 25.1216 13.2297C25.4979 13.2297 25.8589 13.3792 26.1249 13.6453C26.391 13.9114 26.5405 14.2723 26.5405 14.6486ZM1 19C1 14.3587 2.84374 9.90752 6.12563 6.62563C9.40752 3.34374 13.8587 1.5 18.5 1.5C23.1413 1.5 27.5925 3.34374 30.8744 6.62563C34.1563 9.90752 36 14.3587 36 19C36 23.6413 34.1563 28.0925 30.8744 31.3744C27.5925 34.6563 23.1413 36.5 18.5 36.5C13.8587 36.5 9.40752 34.6563 6.12563 31.3744C2.84374 28.0925 1 23.6413 1 19ZM18.5 2.44595C14.1096 2.44595 9.899 4.19003 6.79452 7.29452C3.69003 10.399 1.94595 14.6096 1.94595 19C1.94595 23.3904 3.69003 27.601 6.79452 30.7055C9.899 33.81 14.1096 35.5541 18.5 35.5541C22.8904 35.5541 27.101 33.81 30.2055 30.7055C33.31 27.601 35.0541 23.3904 35.0541 19C35.0541 14.6096 33.31 10.399 30.2055 7.29452C27.101 4.19003 22.8904 2.44595 18.5 2.44595Z" fill="#FBFBFB" stroke="#FBFBFB" stroke-width="1.5"/>
</svg>
