<svg width="30" height="31" viewBox="0 0 30 31" fill="none" xmlns="http://www.w3.org/2000/svg">
<path d="M15 12.8184V18.6275H23.0727C22.7182 20.4956 21.6545 22.0775 20.059 23.1411L24.9272 26.9184C27.7635 24.3003 29.3999 20.4549 29.3999 15.8867C29.3999 14.8231 29.3045 13.8002 29.1272 12.8185L15 12.8184Z" fill="#4285F4"/>
<path d="M6.59376 18.4009L5.4958 19.2414L1.60938 22.2686C4.07755 27.164 9.13627 30.5459 14.9999 30.5459C19.0498 30.5459 22.4452 29.2095 24.927 26.9186L20.0589 23.1413C18.7225 24.0413 17.018 24.5868 14.9999 24.5868C11.0999 24.5868 7.78634 21.955 6.59989 18.4095L6.59376 18.4009Z" fill="#34A853"/>
<path d="M1.60897 8.82324C0.586302 10.8413 0 13.1186 0 15.5459C0 17.9731 0.586302 20.2504 1.60897 22.2685C1.60897 22.2821 6.59997 18.3958 6.59997 18.3958C6.29997 17.4958 6.12265 16.5413 6.12265 15.5457C6.12265 14.5501 6.29997 13.5957 6.59997 12.6957L1.60897 8.82324Z" fill="#FBBC05"/>
<path d="M15.0002 6.51862C17.2093 6.51862 19.1729 7.28224 20.7411 8.75498L25.0365 4.45959C22.4319 2.03235 19.0502 0.545898 15.0002 0.545898C9.13657 0.545898 4.07755 3.91407 1.60938 8.82318L6.60022 12.6959C7.78651 9.15042 11.1002 6.51862 15.0002 6.51862Z" fill="#EA4335"/>
</svg>
