<svg width="14" height="14" viewBox="0 0 14 14" fill="none" xmlns="http://www.w3.org/2000/svg">
<path d="M7 5.5C7.13261 5.5 7.25979 5.55268 7.35355 5.64645C7.44732 5.74021 7.5 5.86739 7.5 6V10.5C7.5 10.6326 7.44732 10.7598 7.35355 10.8536C7.25979 10.9473 7.13261 11 7 11C6.86739 11 6.74021 10.9473 6.64645 10.8536C6.55268 10.7598 6.5 10.6326 6.5 10.5V6C6.5 5.86739 6.55268 5.74021 6.64645 5.64645C6.74021 5.55268 6.86739 5.5 7 5.5ZM7 4.5C7.19891 4.5 7.38968 4.42098 7.53033 4.28033C7.67098 4.13968 7.75 3.94891 7.75 3.75C7.75 3.55109 7.67098 3.36032 7.53033 3.21967C7.38968 3.07902 7.19891 3 7 3C6.80109 3 6.61032 3.07902 6.46967 3.21967C6.32902 3.36032 6.25 3.55109 6.25 3.75C6.25 3.94891 6.32902 4.13968 6.46967 4.28033C6.61032 4.42098 6.80109 4.5 7 4.5ZM0 7C0 3.134 3.134 0 7 0C10.866 0 14 3.134 14 7C14 10.866 10.866 14 7 14C3.134 14 0 10.866 0 7ZM7 1C3.6865 1 1 3.6865 1 7C1 10.3135 3.6865 13 7 13C10.3135 13 13 10.3135 13 7C13 3.6865 10.3135 1 7 1Z" fill="#FBFBFB"/>
</svg>
