<svg width="4" height="12" viewBox="0 0 4 12" fill="none" xmlns="http://www.w3.org/2000/svg">
<path d="M4 10.6154C4 10.9826 3.78929 11.3348 3.41421 11.5945C3.03914 11.8541 2.53043 12 2 12C1.46957 12 0.960859 11.8541 0.585786 11.5945C0.210713 11.3348 0 10.9826 0 10.6154C0 10.2482 0.210713 9.89598 0.585786 9.63631C0.960859 9.37665 1.46957 9.23077 2 9.23077C2.53043 9.23077 3.03914 9.37665 3.41421 9.63631C3.78929 9.89598 4 10.2482 4 10.6154ZM4 6C4 6.36722 3.78929 6.71941 3.41421 6.97907C3.03914 7.23874 2.53043 7.38462 2 7.38462C1.46957 7.38462 0.960859 7.23874 0.585786 6.97907C0.210713 6.71941 0 6.36722 0 6C0 5.63278 0.210713 5.28059 0.585786 5.02093C0.960859 4.76126 1.46957 4.61538 2 4.61538C2.53043 4.61538 3.03914 4.76126 3.41421 5.02093C3.78929 5.28059 4 5.63278 4 6ZM4 1.38462C4 1.75184 3.78929 2.10402 3.41421 2.36369C3.03914 2.62335 2.53043 2.76923 2 2.76923C1.46957 2.76923 0.960859 2.62335 0.585786 2.36369C0.210713 2.10402 0 1.75184 0 1.38462C0 1.01739 0.210713 0.66521 0.585786 0.405544C0.960859 0.145878 1.46957 -5.96046e-08 2 -5.96046e-08C2.53043 -5.96046e-08 3.03914 0.145878 3.41421 0.405544C3.78929 0.66521 4 1.01739 4 1.38462Z" fill="#BABABA"/>
</svg>
