<svg width="18" height="18" viewBox="0 0 18 18" fill="none" xmlns="http://www.w3.org/2000/svg">
<path fill-rule="evenodd" clip-rule="evenodd" d="M9.53694 3.76209C10.8031 2.49597 12.8967 2.49597 14.1628 3.76209C15.4289 5.0282 15.4289 7.1218 14.1628 8.38791L11.8521 10.6985C10.7524 11.8894 8.96275 11.952 7.72982 11.13C7.29902 10.8428 7.1826 10.2608 7.46981 9.82997C7.75701 9.39916 8.33908 9.28275 8.76989 9.56995C9.3308 9.9439 10.0795 9.86124 10.4812 9.41937C10.4912 9.40837 10.5014 9.3976 10.5119 9.38709L12.8369 7.06209C13.3708 6.5282 13.3708 5.6218 12.8369 5.08791C12.3222 4.57314 11.4611 4.55471 10.9215 5.03262L10.8299 5.17003C10.5427 5.60084 9.96063 5.71725 9.52982 5.43005C9.09902 5.14284 8.9826 4.56078 9.26981 4.12997L9.41981 3.90497C9.45405 3.8536 9.49329 3.80574 9.53694 3.76209Z" fill="#CFD0D2"/>
<path fill-rule="evenodd" clip-rule="evenodd" d="M6.11937 7.25637C7.22355 6.25257 8.92282 5.98906 10.2375 6.97506C10.6517 7.28572 10.7357 7.87335 10.425 8.28756C10.1143 8.70178 9.52671 8.78572 9.1125 8.47506C8.63305 8.11548 7.94338 8.14673 7.40051 8.62595L5.09835 11.0024L5.08791 11.013C4.55403 11.5469 4.55403 12.4533 5.08791 12.9872C5.6218 13.521 6.5282 13.521 7.06209 12.9872L7.725 13.6501L7.06209 12.9871L7.28709 12.7622C7.65321 12.396 8.2468 12.396 8.61291 12.7622C8.97903 13.1283 8.97903 13.7219 8.61291 14.088L8.38791 14.313C7.1218 15.5791 5.0282 15.5791 3.76209 14.313C2.49787 13.0488 2.49597 10.9596 3.75639 9.69287L6.07665 7.29776C6.09045 7.28351 6.1047 7.26971 6.11937 7.25637Z" fill="#CFD0D2"/>
</svg>
