<svg width="16" height="16" viewBox="0 0 16 16" fill="none" xmlns="http://www.w3.org/2000/svg">
<path fill-rule="evenodd" clip-rule="evenodd" d="M7.70581 0.290159C7.48381 0.362159 7.35582 0.490159 7.29382 0.699159C7.25882 0.816159 7.25281 1.08816 7.25281 2.50816C7.25281 4.38916 7.25081 4.36516 7.44281 4.55716C7.69981 4.81316 8.29982 4.81316 8.55682 4.55716C8.74882 4.36516 8.74681 4.38916 8.74681 2.50816C8.74681 0.688159 8.74381 0.656159 8.59581 0.480159C8.47181 0.333159 8.33881 0.284159 8.03981 0.276159C7.92829 0.269841 7.81642 0.27453 7.70581 0.290159ZM2.75281 2.26616C2.59481 2.33816 2.36181 2.56616 2.28081 2.72816C2.23914 2.80903 2.21641 2.89832 2.21433 2.98928C2.21225 3.08023 2.23088 3.17047 2.26881 3.25316C2.34281 3.41816 4.66681 5.75016 4.84981 5.84316C5.10981 5.97649 5.37415 5.91183 5.64282 5.64916C5.90682 5.39116 5.97681 5.11116 5.84281 4.85016C5.74981 4.66716 3.41781 2.34316 3.25281 2.26916C3.17394 2.23513 3.08902 2.21733 3.00312 2.21681C2.91722 2.21629 2.83209 2.23308 2.75281 2.26616ZM12.8528 2.28216C12.7298 2.33916 12.5198 2.53616 11.5178 3.54116C10.5968 4.46416 10.3158 4.76216 10.2708 4.86016C10.2336 4.94147 10.2145 5.02986 10.2146 5.11927C10.2148 5.20868 10.2343 5.29699 10.2718 5.37816C10.3418 5.52816 10.5718 5.76416 10.7268 5.84516C10.8838 5.92716 11.1168 5.92616 11.2798 5.84316C11.4468 5.75716 13.7568 3.44716 13.8428 3.28016C13.8836 3.19414 13.9051 3.10021 13.9056 3.00499C13.9061 2.90978 13.8857 2.81562 13.8458 2.72916C13.7351 2.54409 13.5788 2.39053 13.3918 2.28316C13.309 2.23854 13.2165 2.2151 13.1224 2.21492C13.0284 2.21475 12.9358 2.23785 12.8528 2.28216ZM0.698815 7.29216C0.404148 7.38483 0.257148 7.62049 0.257815 7.99916C0.258815 8.38616 0.402815 8.61816 0.697815 8.70616C0.815815 8.74116 1.07881 8.74716 2.50781 8.74716C3.99681 8.74716 4.19581 8.74216 4.31781 8.70216C4.40751 8.67285 4.48902 8.62281 4.55575 8.55609C4.62247 8.48937 4.67251 8.40785 4.70182 8.31816C4.78782 8.05316 4.74481 7.67716 4.60781 7.49116C4.55321 7.43113 4.48858 7.38105 4.41681 7.34316L4.27982 7.26716L2.54681 7.26116C1.15181 7.25716 0.790815 7.26316 0.698815 7.29216ZM11.7448 7.27816C11.6097 7.31556 11.4875 7.38962 11.3918 7.49216C11.2548 7.67716 11.2118 8.05316 11.2978 8.31816C11.3558 8.49816 11.5018 8.64416 11.6818 8.70216C11.8038 8.74216 12.0028 8.74716 13.4918 8.74716C14.9208 8.74716 15.1838 8.74116 15.3018 8.70616C15.5968 8.61816 15.7408 8.38616 15.7418 7.99916C15.7418 7.61416 15.5948 7.38316 15.2898 7.29116C15.1868 7.26016 14.8638 7.25416 13.4958 7.25616C12.5778 7.25816 11.7898 7.26816 11.7448 7.27816ZM4.85282 10.2822C4.72982 10.3392 4.51981 10.5362 3.51781 11.5412C2.59681 12.4642 2.31581 12.7622 2.27081 12.8602C2.23362 12.9415 2.21445 13.0299 2.21463 13.1193C2.2148 13.2087 2.23431 13.297 2.27181 13.3782C2.34181 13.5282 2.57181 13.7642 2.72681 13.8452C2.88381 13.9272 3.11681 13.9262 3.27981 13.8432C3.44681 13.7572 5.75681 11.4472 5.84281 11.2802C5.88364 11.1941 5.90507 11.1002 5.90559 11.005C5.90611 10.9098 5.8857 10.8156 5.84582 10.7292C5.73514 10.5441 5.57882 10.3905 5.39182 10.2832C5.30903 10.2385 5.21649 10.2151 5.12244 10.2149C5.0284 10.2147 4.93577 10.2378 4.85282 10.2822ZM10.7528 10.2662C10.5948 10.3382 10.3618 10.5662 10.2808 10.7282C10.2391 10.809 10.2164 10.8983 10.2143 10.9893C10.2122 11.0802 10.2309 11.1705 10.2688 11.2532C10.3428 11.4182 12.6668 13.7502 12.8498 13.8432C13.1098 13.9765 13.3741 13.9118 13.6428 13.6492C13.9068 13.3912 13.9768 13.1112 13.8428 12.8502C13.7498 12.6672 11.4178 10.3432 11.2528 10.2692C11.1739 10.2351 11.089 10.2173 11.0031 10.2168C10.9172 10.2163 10.8321 10.2331 10.7528 10.2662ZM7.74481 11.2772C7.60975 11.3153 7.48769 11.3897 7.39182 11.4922C7.25382 11.6782 7.25281 11.6912 7.25281 13.4892C7.25281 14.9212 7.25882 15.1842 7.29382 15.3022C7.38048 15.5955 7.61581 15.7418 7.99981 15.7412C8.38381 15.7425 8.61915 15.5962 8.70582 15.3022C8.76782 15.0902 8.76682 11.8752 8.70382 11.6902C8.68432 11.6156 8.64882 11.5462 8.59977 11.4868C8.55072 11.4274 8.48931 11.3794 8.41982 11.3462C8.30982 11.2862 8.24582 11.2712 8.05682 11.2642C7.95265 11.2576 7.84808 11.262 7.74481 11.2772Z" fill="#474747"/>
</svg>
