<svg width="335" height="336" viewBox="0 0 335 336" fill="none" xmlns="http://www.w3.org/2000/svg">
<g filter="url(#filter0_d_1247_100)">
<path d="M323.913 179.644C317.293 177.743 312.426 171.694 312.426 164.454C312.426 157.172 317.362 151.101 324.038 149.236C325.41 148.853 326.809 148.581 328.292 148.581C329.218 148.581 330.116 148.672 331 148.825C330.972 148.644 330.972 148.449 330.944 148.268C330.032 148.442 329.086 148.546 328.139 148.546C326.67 148.546 325.298 148.289 323.941 147.92C317.216 146.068 312.239 139.984 312.239 132.681C312.239 127.529 314.738 122.99 318.532 120.094C320.411 118.667 322.583 117.658 324.964 117.164C324.881 116.885 324.818 116.6 324.721 116.321C320.697 115.333 317.265 112.84 315.079 109.429C314.021 107.752 313.241 105.858 312.886 103.825C312.712 102.885 312.58 101.925 312.58 100.929C312.58 97.6572 313.652 94.6916 315.35 92.1854C313.199 87.73 310.839 83.3999 308.305 79.1881C306.704 80.9216 304.755 82.3208 302.527 83.205C303.154 84.2492 303.752 85.3213 304.351 86.3795C309.231 89.0875 312.58 94.2321 312.58 100.205C312.58 100.992 312.454 101.751 312.357 102.503C311.243 110.181 304.692 116.078 296.721 116.078C287.95 116.078 280.863 108.97 280.863 100.205C280.863 91.4405 287.963 84.3397 296.721 84.3397C287.95 84.3397 280.863 77.2319 280.863 68.4742C280.863 64.7219 282.199 61.3247 284.385 58.6027C285.868 56.7579 287.734 55.2542 289.878 54.203C286.564 50.5133 283.097 46.9838 279.491 43.6144C278.405 45.7377 276.853 47.5825 274.994 49.0305C272.3 51.1051 268.986 52.386 265.324 52.386C256.553 52.386 249.459 45.2782 249.459 36.5136C249.459 34.3207 249.904 32.2252 250.712 30.3177C251.652 28.1179 253.107 26.2034 254.875 24.644C250.684 22.0056 246.361 19.5621 241.94 17.2926C239.476 18.8938 236.587 19.8893 233.426 19.8893C232.41 19.8893 231.4 19.7709 230.426 19.583C228.261 19.1722 226.263 18.3368 224.509 17.1464C221.195 14.8978 218.835 11.417 217.965 7.38625C217.721 7.30271 217.498 7.21917 217.241 7.1426C216.913 9.53738 216.224 11.8138 214.957 13.7491C212.131 18.1001 207.251 20.9892 201.674 20.9892C193.731 20.9892 187.222 15.1484 186.039 7.54637C185.913 6.74578 185.795 5.95216 185.795 5.11677C185.795 3.52953 186.108 2.03279 186.54 0.584774C186.108 0.536043 185.67 0.466427 185.231 0.424657C185.558 1.70559 185.788 3.02133 185.788 4.39973C185.788 5.45093 185.67 6.48124 185.489 7.46979C184.048 14.7655 177.629 20.2652 169.923 20.2652C162.063 20.2652 155.575 14.5288 154.315 7.01729C154.176 6.16101 154.057 5.29777 154.057 4.39973C154.057 2.85425 154.343 1.39928 154.767 0C154.224 0.0417696 153.681 0.0765775 153.124 0.125309C153.681 1.71951 154.064 3.39726 154.064 5.18639C154.064 5.82685 153.939 6.43947 153.876 7.05906C152.936 14.9326 146.316 21.0588 138.199 21.0588C132.093 21.0588 126.872 17.585 124.206 12.5448C123.148 10.519 122.507 8.23557 122.396 5.79901C122.326 5.81989 122.257 5.84078 122.194 5.8547C121.909 8.96653 120.753 11.8069 118.943 14.146C116.033 17.8843 111.543 20.3348 106.447 20.3348C105.493 20.3348 104.56 20.2095 103.648 20.0494C100.578 19.4994 97.898 18.0166 95.719 15.9838C91.1104 18.2255 86.6202 20.669 82.2831 23.3144C84.483 24.4909 86.3905 26.1756 87.8315 28.2153C89.6555 30.7981 90.7415 33.9308 90.7415 37.342C90.7415 46.1136 83.6406 53.2144 74.876 53.2144C69.7383 53.2144 65.2203 50.7361 62.3242 46.949C60.8275 45.0137 59.7833 42.7442 59.3029 40.2589C58.9479 40.5582 58.6067 40.8437 58.2726 41.15C56.7062 46.3573 52.6059 50.4089 47.3429 51.8569C47.0018 52.2259 46.6467 52.5809 46.3126 52.9499C48.777 53.5277 51.0325 54.6485 52.9052 56.2218C56.3999 59.1387 58.6694 63.4689 58.6694 68.3698C58.6694 77.1345 51.5686 84.2353 42.8039 84.2353C51.5755 84.2353 58.6694 91.3431 58.6694 100.101C58.6694 108.872 51.5686 115.973 42.8039 115.973C34.0393 115.973 26.9385 108.865 26.9385 100.101C26.9385 91.3361 34.0393 84.2353 42.8039 84.2353C39.4067 84.2353 36.267 83.1423 33.6773 81.3184C31.6654 79.9052 30.0085 78.0255 28.839 75.8605C26.2841 79.8913 23.9032 84.0404 21.7033 88.2939C23.6874 90.1318 25.2537 92.4221 26.11 95.0745C26.5973 96.606 26.9385 98.2002 26.9385 99.8919C26.9385 105.969 23.4855 111.184 18.4662 113.857C16.2524 115.033 13.7462 115.764 11.0591 115.764C10.8711 115.764 10.704 115.702 10.5161 115.688C10.5021 115.73 10.4882 115.764 10.4743 115.799C10.5717 115.799 10.6344 115.764 10.7319 115.764C13.0988 115.764 15.3126 116.314 17.3384 117.247C22.7893 119.753 26.5973 125.232 26.5973 131.637C26.5973 140.241 19.7193 147.217 11.1774 147.447C11.0173 147.454 10.8781 147.495 10.7319 147.495C8.43454 147.495 6.2834 146.924 4.32719 146.04C4.21581 147.112 4.13923 148.191 4.04177 149.27C6.13721 148.247 8.40669 147.53 10.892 147.53C10.9894 147.53 11.066 147.558 11.1635 147.558C19.7959 147.704 26.7574 154.721 26.7574 163.396C26.7574 172.084 19.7819 179.122 11.1217 179.24C11.0382 179.247 10.9755 179.268 10.892 179.268C8.39277 179.268 6.1024 178.544 4 177.514C4.09746 178.558 4.14619 179.63 4.25758 180.681C6.19986 179.818 8.2953 179.268 10.5509 179.268C10.7527 179.268 10.9337 179.324 11.1356 179.324C19.6218 179.637 26.4303 186.571 26.4303 195.133C26.4303 201.524 22.6362 206.989 17.1992 209.502C15.1734 210.442 12.9317 210.999 10.5509 210.999C10.4812 210.999 10.4116 210.971 10.349 210.964C10.3629 211.013 10.3629 211.055 10.3768 211.096C10.6066 211.082 10.8224 210.999 11.0591 210.999C13.6697 210.999 16.1062 211.702 18.2782 212.823C23.388 215.454 26.9245 220.724 26.9245 226.878C26.9245 228.681 26.5695 230.373 26.0126 231.981C25.1145 234.592 23.5412 236.833 21.5363 238.63C23.7222 242.883 26.1031 247.046 28.644 251.084C29.8554 248.926 31.5122 247.088 33.538 245.709C36.079 243.983 39.1561 242.96 42.4558 242.96C51.2275 242.96 58.3213 250.067 58.3213 258.832C58.3213 263.649 56.1354 267.924 52.7312 270.834C50.8655 272.428 48.6377 273.577 46.1942 274.182C46.6398 274.656 47.1062 275.115 47.5378 275.589C52.2578 277.141 55.9683 280.796 57.5695 285.495C58.1125 285.968 58.6555 286.428 59.1985 286.901C59.9086 284.541 61.0781 282.404 62.7071 280.636C65.6031 277.468 69.7244 275.456 74.3608 275.456C83.1324 275.456 90.2263 282.564 90.2263 291.322C90.2263 294.19 89.4118 296.856 88.0752 299.168C86.8499 301.291 85.1235 303.059 83.1116 304.417C86.8778 306.679 90.7554 308.782 94.7096 310.745C96.7493 308.719 99.2764 307.194 102.186 306.54C103.342 306.275 104.525 306.101 105.765 306.101C111.229 306.101 116.061 308.865 118.915 313.084C120.481 315.409 121.366 318.201 121.512 321.194C121.623 321.229 121.728 321.257 121.839 321.285C122.069 318.869 122.737 316.592 123.92 314.622C126.677 309.972 131.71 306.832 137.502 306.832C145.39 306.832 151.885 312.596 153.11 320.129C153.25 320.971 153.368 321.828 153.368 322.698C153.368 324.236 153.083 325.677 152.672 327.077C153.243 327.132 153.827 327.174 154.398 327.216C153.8 325.559 153.368 323.805 153.368 321.925C153.368 321.326 153.493 320.755 153.542 320.171C154.426 312.228 161.074 306.053 169.247 306.053C177.295 306.053 183.881 312.067 184.897 319.843C185.001 320.533 185.113 321.201 185.113 321.925C185.113 323.7 184.716 325.35 184.173 326.951C184.702 326.896 185.203 326.805 185.725 326.77C185.37 325.455 185.113 324.083 185.113 322.649C185.113 321.667 185.238 320.721 185.398 319.781C186.756 312.388 193.202 306.784 200.978 306.784C206.457 306.784 211.281 309.547 214.143 313.773C215.445 315.687 216.155 317.971 216.51 320.352C216.656 320.303 216.823 320.24 216.969 320.199C217.255 316.982 218.494 314.044 220.408 311.65C223.318 308.03 227.725 305.684 232.73 305.684C233.301 305.684 233.858 305.795 234.415 305.844C237.624 306.199 240.478 307.542 242.817 309.485C246.897 307.375 250.865 305.106 254.743 302.669C252.919 301.152 251.408 299.286 250.406 297.1C249.48 295.088 248.937 292.881 248.937 290.514C248.937 281.743 256.045 274.649 264.802 274.649C268.638 274.649 272.105 276.062 274.848 278.318C276.686 279.842 278.155 281.743 279.171 283.922C282.805 280.538 286.314 276.988 289.655 273.284C287.504 272.261 285.617 270.778 284.121 268.933C281.893 266.19 280.494 262.758 280.494 258.957C280.494 250.186 287.601 243.085 296.359 243.085C298.496 243.085 300.522 243.524 302.36 244.282C304.588 245.194 306.53 246.628 308.096 248.39C310.519 244.387 312.761 240.245 314.842 236.026C313.415 233.659 312.559 230.916 312.559 227.943C312.559 220.648 317.495 214.584 324.192 212.712C324.303 212.35 324.4 211.988 324.519 211.646C322.145 211.103 319.98 210.052 318.128 208.597C314.459 205.687 312.064 201.246 312.064 196.219C312.064 188.91 317.028 182.825 323.732 180.981C325.076 180.612 326.489 180.34 327.937 180.34C328.918 180.34 329.865 180.458 330.805 180.626C330.819 180.465 330.833 180.284 330.847 180.117C330.018 180.264 329.162 180.34 328.278 180.34C326.76 180.319 325.305 180.034 323.913 179.644ZM312.42 163.737C312.42 172.508 305.312 179.609 296.554 179.609C287.782 179.609 280.696 172.501 280.696 163.737C280.696 154.972 287.796 147.871 296.554 147.871C305.305 147.864 312.42 154.972 312.42 163.737ZM296.38 116.092C305.152 116.092 312.239 123.199 312.239 131.964C312.239 140.729 305.138 147.829 296.38 147.829C287.622 147.829 280.515 140.722 280.515 131.964C280.508 123.192 287.615 116.092 296.38 116.092ZM231.588 20.1399C232.243 20.0494 232.897 19.938 233.572 19.938C239.636 19.938 244.857 23.384 247.524 28.3894C248.707 30.6101 249.438 33.1163 249.438 35.8035C249.438 44.5751 242.33 51.6759 233.572 51.6759C224.801 51.6759 217.707 44.5681 217.707 35.8035C217.7 27.7211 223.764 21.1145 231.588 20.1399ZM201.828 21.0379C210.599 21.0379 217.686 28.1457 217.686 36.9034C217.686 45.675 210.585 52.7758 201.828 52.7758C193.07 52.7758 185.962 45.6681 185.962 36.9034C185.955 28.1388 193.049 21.0379 201.828 21.0379ZM170.09 20.3139C178.84 20.3139 185.955 27.4217 185.955 36.1794C185.955 44.951 178.847 52.0518 170.09 52.0518C161.318 52.0518 154.224 44.9441 154.224 36.1794C154.224 27.4217 161.318 20.3139 170.09 20.3139ZM138.338 21.0936C147.109 21.0936 154.203 28.2014 154.203 36.9591C154.203 45.7307 147.103 52.8315 138.338 52.8315C129.573 52.8315 122.472 45.7237 122.472 36.9591C122.472 28.2014 129.573 21.0936 138.338 21.0936ZM106.607 20.3766C115.365 20.3766 122.472 27.4844 122.472 36.2421C122.472 45.0137 115.365 52.1145 106.607 52.1145C97.8353 52.1145 90.7415 45.0067 90.7415 36.2421C90.7415 27.4774 97.8353 20.3766 106.607 20.3766ZM26.5764 131.86C26.5764 123.088 33.6842 115.987 42.4419 115.987C51.2135 115.987 58.3074 123.095 58.3074 131.86C58.3074 140.624 51.2066 147.725 42.4419 147.725C33.6842 147.725 26.5764 140.617 26.5764 131.86ZM58.4884 163.625C58.4884 172.397 51.3806 179.498 42.6229 179.498C33.8513 179.498 26.7574 172.39 26.7574 163.625C26.7574 154.861 33.8583 147.76 42.6229 147.76C51.3737 147.76 58.4884 154.861 58.4884 163.625ZM26.4094 195.37C26.4094 186.599 33.5102 179.505 42.2748 179.505C51.0395 179.505 58.1403 186.612 58.1403 195.37C58.1403 204.142 51.0395 211.236 42.2748 211.236C33.5102 211.243 26.4094 204.128 26.4094 195.37ZM42.783 242.974C34.0114 242.974 26.9176 235.866 26.9176 227.108C26.9176 218.336 34.0184 211.243 42.783 211.243C51.5407 211.243 58.6485 218.35 58.6485 227.108C58.6485 235.88 51.5407 242.974 42.783 242.974ZM74.1798 275.442C65.4221 275.442 58.3144 268.335 58.3144 259.577C58.3144 250.805 65.4221 243.705 74.1798 243.705C82.9514 243.705 90.0592 250.812 90.0592 259.577C90.0592 268.342 82.9445 275.442 74.1798 275.442ZM106.106 306.122C97.3341 306.122 90.2263 299.014 90.2263 290.257C90.2263 281.485 97.3341 274.391 106.106 274.391C114.863 274.391 121.971 281.499 121.971 290.257C121.971 299.014 114.856 306.122 106.106 306.122ZM137.837 306.839C129.065 306.839 121.971 299.731 121.971 290.967C121.971 282.202 129.072 275.108 137.837 275.108C146.601 275.108 153.702 282.216 153.702 290.967C153.709 299.738 146.608 306.839 137.837 306.839ZM169.588 306.06C160.817 306.06 153.709 298.952 153.709 290.187C153.709 281.422 160.817 274.322 169.588 274.322C178.346 274.322 185.454 281.429 185.454 290.187C185.454 298.952 178.346 306.06 169.588 306.06ZM201.319 306.77C192.548 306.77 185.454 299.662 185.454 290.904C185.454 282.133 192.562 275.039 201.319 275.039C210.091 275.039 217.185 282.146 217.185 290.904C217.192 299.676 210.091 306.77 201.319 306.77ZM244.739 300.476C241.655 302.231 238.501 303.901 235.299 305.454C234.568 305.565 233.837 305.677 233.085 305.677C224.314 305.677 217.206 298.569 217.206 289.804C217.206 281.04 224.314 273.939 233.085 273.939C241.843 273.939 248.951 281.047 248.951 289.804C248.937 293.932 247.315 297.657 244.739 300.476ZM264.628 274.614C255.87 274.614 248.763 267.506 248.763 258.755C248.763 249.984 255.87 242.883 264.628 242.883C273.4 242.883 280.508 249.991 280.508 258.755C280.508 267.52 273.393 274.614 264.628 274.614ZM264.962 242.883C258.328 242.883 252.668 238.811 250.301 233.039C247.078 236.889 243.521 240.44 239.803 243.809C245.094 246.378 248.756 251.766 248.756 258.045C248.756 266.81 241.655 273.904 232.897 273.904C224.634 273.904 217.958 267.604 217.178 259.549C217.101 259.584 217.032 259.619 216.976 259.654C216.684 268.175 209.736 275.004 201.145 275.004C196.37 275.004 192.144 272.846 189.234 269.525C185.844 270.228 182.363 270.743 178.847 271.112C176.202 273.082 172.965 274.294 169.421 274.294C166.01 274.294 162.871 273.194 160.274 271.356C156.535 271.112 152.839 270.674 149.205 270.047C146.309 273.117 142.229 275.067 137.677 275.067C129.733 275.067 123.21 269.212 122.055 261.589C121.867 261.505 121.7 261.422 121.526 261.338C120.168 268.731 113.736 274.343 105.946 274.343C97.174 274.343 90.0801 267.235 90.0801 258.477C90.0801 253.054 92.816 248.264 96.9582 245.403C93.7349 242.625 90.7067 239.625 87.8176 236.478C84.9912 240.822 80.1111 243.705 74.5349 243.705C65.7633 243.705 58.6694 236.597 58.6694 227.832C58.6694 220.244 64.002 213.923 71.1098 212.35C70.9845 212.113 70.88 211.869 70.7547 211.626C63.5634 210.108 58.1612 203.738 58.1612 196.108C58.1612 192.3 59.5466 188.854 61.7882 186.118C60.7161 181.05 60.0896 175.843 59.7624 170.566C58.9479 168.665 58.4954 166.563 58.4954 164.349C58.4954 162.247 58.92 160.242 59.6649 158.404C59.9364 152.856 60.4933 147.384 61.5515 142.086C59.5535 139.427 58.3144 136.155 58.3144 132.577C58.3144 125.302 63.2362 119.238 69.9124 117.359C70.1003 116.941 70.3092 116.53 70.4971 116.119C63.6957 114.33 58.6555 108.19 58.6555 100.825C58.6555 92.0601 65.7633 84.9593 74.5209 84.9593C65.7633 84.9593 58.6555 77.8515 58.6555 69.0938C58.6555 60.3222 65.7633 53.2214 74.5209 53.2214C83.2926 53.2214 90.4003 60.3292 90.4003 69.0938C90.4003 77.8585 83.2926 84.9593 74.5209 84.9593C79.7421 84.9593 84.3368 87.5072 87.2189 91.3988C90.47 87.7996 93.8951 84.3884 97.5777 81.2488C93.2546 78.4154 90.4003 73.5492 90.4003 67.9939C90.4003 59.2223 97.5012 52.1215 106.266 52.1215C114.244 52.1215 120.788 58.0388 121.902 65.7105C122.09 65.62 122.284 65.5225 122.472 65.432C123.997 58.2407 130.374 52.8385 137.997 52.8385C142.236 52.8385 146.058 54.5232 148.913 57.2313C152.379 56.6256 155.888 56.194 159.466 55.9294C162.237 53.5416 165.801 52.0518 169.749 52.0518C173.953 52.0518 177.754 53.7157 180.602 56.3889C183.727 56.7718 186.839 57.2313 189.888 57.8717C192.798 54.7599 196.892 52.7758 201.487 52.7758C209.945 52.7758 216.781 59.3963 217.275 67.7293C217.317 67.7433 217.359 67.7642 217.401 67.785C217.387 67.7015 217.373 67.6319 217.373 67.5483C217.373 58.7767 224.481 51.6759 233.238 51.6759C242.01 51.6759 249.104 58.7837 249.104 67.5483C249.104 74.3916 244.739 80.1697 238.661 82.4044C242.811 86.0314 246.709 89.9229 250.246 94.1416C252.585 88.2869 258.279 84.1378 264.969 84.1378C256.212 84.1378 249.104 77.03 249.104 68.2724C249.104 59.5007 256.212 52.3999 264.969 52.3999C273.741 52.3999 280.849 59.5077 280.849 68.2724C280.849 77.037 273.741 84.1378 264.969 84.1378C273.741 84.1378 280.849 91.2456 280.849 100.003C280.849 108.775 273.741 115.876 264.969 115.876C264.753 115.876 264.538 115.82 264.329 115.806C264.343 115.841 264.357 115.876 264.371 115.904C264.468 115.904 264.538 115.876 264.642 115.876C273.4 115.876 280.501 122.984 280.501 131.748C280.501 137.081 277.848 141.766 273.811 144.648C274.214 146.855 274.562 149.069 274.827 151.317C278.37 154.227 280.661 158.585 280.661 163.514C280.661 168.436 278.384 172.787 274.855 175.697C274.604 177.994 274.214 180.25 273.831 182.512C277.751 185.401 280.354 190.017 280.354 195.273C280.354 204.037 273.247 211.138 264.475 211.138C264.461 211.159 264.461 211.173 264.447 211.194C264.621 211.187 264.802 211.138 264.976 211.138C273.748 211.138 280.842 218.246 280.842 226.997C280.835 235.775 273.741 242.883 264.962 242.883ZM312.343 224.783C312.475 225.584 312.58 226.384 312.58 227.219C312.58 233.262 309.175 238.449 304.212 241.129C301.97 242.34 299.429 243.092 296.721 243.092C287.95 243.092 280.863 235.984 280.863 227.219C280.863 218.455 287.963 211.354 296.721 211.354C304.643 211.347 311.159 217.181 312.343 224.783ZM296.213 211.347C287.441 211.347 280.347 204.239 280.347 195.482C280.347 186.71 287.455 179.609 296.213 179.609C304.985 179.609 312.078 186.717 312.078 195.482C312.085 204.246 304.985 211.347 296.213 211.347Z" fill="#FBFBFB"/>
<path d="M172.756 260.469C183.059 260.016 192.945 257.928 202.169 254.475C204.494 250.382 209.743 239.988 214.205 223.398H172.756V260.469Z" fill="#FBFBFB"/>
<path d="M214.629 248.752C226.185 242.403 236.315 233.736 244.376 223.384H223.206C220.463 234.175 217.337 242.577 214.629 248.752Z" fill="#FBFBFB"/>
<path d="M221.334 170.716H172.749V214.783H216.301C218.96 202.704 220.958 187.994 221.334 170.716Z" fill="#FBFBFB"/>
<path d="M230.007 162.12H264.689C264.32 145.273 259.614 129.491 251.636 115.839H225.398C227.981 128.725 229.832 144.173 230.007 162.12Z" fill="#FBFBFB"/>
<path d="M229.945 170.716C229.583 187.82 227.745 202.551 225.19 214.783H250.384C258.404 201.813 263.437 186.79 264.495 170.716H229.945Z" fill="#FBFBFB"/>
<path d="M216.572 115.839H172.756V162.12H221.404C221.209 144.055 219.246 128.579 216.572 115.839Z" fill="#FBFBFB"/>
<path d="M202.113 74.0507C192.91 70.6047 183.038 68.5301 172.756 68.0776V107.23H214.554C210.008 89.5472 204.501 78.3878 202.113 74.0507Z" fill="#FBFBFB"/>
<path d="M245.986 107.227C237.625 95.894 226.855 86.4541 214.429 79.6665C217.283 86.2661 220.652 95.4206 223.514 107.227H245.986Z" fill="#FBFBFB"/>
<path d="M124.325 107.229H164.152V68.0703C154.768 68.488 145.753 70.2563 137.26 73.1732C135.227 76.7166 129.233 88.1893 124.325 107.229Z" fill="#FBFBFB"/>
<path d="M122.57 214.794H164.152V170.741H117.544C117.934 187.999 119.918 202.708 122.57 214.794Z" fill="#FBFBFB"/>
<path d="M117.468 162.12H164.145V115.839H122.306C119.633 128.579 117.676 144.055 117.468 162.12Z" fill="#FBFBFB"/>
<path d="M137.211 255.352C145.725 258.276 154.754 260.058 164.146 260.469V223.398H124.673C129.491 241.338 135.241 252.025 137.211 255.352Z" fill="#FBFBFB"/>
<path d="M125.015 78.353C111.516 85.2102 99.8345 95.1374 90.9167 107.23H115.366C118.436 94.6432 122.056 85.0153 125.015 78.353Z" fill="#FBFBFB"/>
<path d="M113.47 115.839H85.2547C77.2767 129.498 72.5706 145.28 72.1877 162.12H108.861C109.035 144.173 110.887 128.725 113.47 115.839Z" fill="#FBFBFB"/>
<path d="M108.931 170.716H72.3831C73.4551 186.804 78.4744 201.813 86.5081 214.783H113.672C111.131 202.565 109.3 187.834 108.931 170.716Z" fill="#FBFBFB"/>
<path d="M92.5144 223.398C101.175 234.509 112.188 243.65 124.837 250.096C121.997 243.838 118.606 234.969 115.662 223.398H92.5144Z" fill="#FBFBFB"/>
</g>
<defs>
<filter id="filter0_d_1247_100" x="0" y="0" width="335" height="335.216" filterUnits="userSpaceOnUse" color-interpolation-filters="sRGB">
<feFlood flood-opacity="0" result="BackgroundImageFix"/>
<feColorMatrix in="SourceAlpha" type="matrix" values="0 0 0 0 0 0 0 0 0 0 0 0 0 0 0 0 0 0 127 0" result="hardAlpha"/>
<feOffset dy="4"/>
<feGaussianBlur stdDeviation="2"/>
<feComposite in2="hardAlpha" operator="out"/>
<feColorMatrix type="matrix" values="0 0 0 0 0 0 0 0 0 0 0 0 0 0 0 0 0 0 0.25 0"/>
<feBlend mode="normal" in2="BackgroundImageFix" result="effect1_dropShadow_1247_100"/>
<feBlend mode="normal" in="SourceGraphic" in2="effect1_dropShadow_1247_100" result="shape"/>
</filter>
</defs>
</svg>
