<svg width="53" height="53" viewBox="0 0 53 53" fill="none" xmlns="http://www.w3.org/2000/svg">
<g filter="url(#filter0_d_150_3582)">
<path d="M48.0247 24.7053C47.1137 24.444 46.444 23.612 46.444 22.6163C46.444 21.6149 47.1232 20.7801 48.042 20.5235C48.2307 20.4708 48.4233 20.4335 48.6273 20.4335C48.7547 20.4335 48.8783 20.4459 49 20.467C48.9962 20.4421 48.9962 20.4153 48.9923 20.3904C48.8668 20.4143 48.7365 20.4287 48.6063 20.4287C48.4041 20.4287 48.2154 20.3933 48.0286 20.3425C47.1031 20.0879 46.4181 19.2511 46.4181 18.2468C46.4181 17.5383 46.7621 16.9141 47.2842 16.5159C47.5429 16.3196 47.8418 16.1808 48.1694 16.1128C48.1579 16.0745 48.1493 16.0353 48.1359 15.997C47.5821 15.861 47.1098 15.5183 46.809 15.0491C46.6634 14.8184 46.5561 14.558 46.5072 14.2785C46.4833 14.1492 46.4651 14.0171 46.4651 13.8802C46.4651 13.4302 46.6126 13.0224 46.8464 12.6777C46.5503 12.065 46.2256 11.4695 45.8769 10.8903C45.6565 11.1287 45.3883 11.3211 45.0817 11.4427C45.1679 11.5863 45.2503 11.7337 45.3327 11.8792C46.0043 12.2517 46.4651 12.9592 46.4651 13.7806C46.4651 13.8888 46.4478 13.9931 46.4344 14.0965C46.2811 15.1525 45.3797 15.9634 44.2827 15.9634C43.0756 15.9634 42.1004 14.986 42.1004 13.7806C42.1004 12.5753 43.0775 11.5987 44.2827 11.5987C43.0756 11.5987 42.1004 10.6212 42.1004 9.41685C42.1004 8.90082 42.2843 8.43361 42.5851 8.05927C42.7892 7.80557 43.0459 7.59877 43.341 7.4542C42.885 6.94679 42.4079 6.4614 41.9116 5.99802C41.7622 6.29002 41.5485 6.54373 41.2928 6.74287C40.922 7.02817 40.466 7.20433 39.9621 7.20433C38.755 7.20433 37.7787 6.22684 37.7787 5.02149C37.7787 4.71991 37.8401 4.43174 37.9512 4.16941C38.0805 3.86688 38.2807 3.6036 38.5241 3.38915C37.9473 3.0263 37.3524 2.69025 36.7441 2.37815C36.4049 2.59834 36.0074 2.73525 35.5724 2.73525C35.4326 2.73525 35.2936 2.71898 35.1595 2.69313C34.8616 2.63664 34.5866 2.52175 34.3452 2.35804C33.8892 2.04881 33.5644 1.57011 33.4447 1.01579C33.4111 1.0043 33.3805 0.992809 33.345 0.982278C33.3 1.31162 33.2052 1.62468 33.0308 1.89084C32.6419 2.4892 31.9703 2.88652 31.2029 2.88652C30.1098 2.88652 29.2141 2.08327 29.0512 1.03781C29.034 0.927707 29.0177 0.818565 29.0177 0.703679C29.0177 0.485395 29.0608 0.279557 29.1202 0.0804204C29.0608 0.0737187 29.0004 0.0641448 28.9401 0.0584005C28.9851 0.23456 29.0167 0.415505 29.0167 0.605068C29.0167 0.749633 29.0004 0.891326 28.9755 1.02727C28.7772 2.03062 27.8939 2.78695 26.8334 2.78695C25.7518 2.78695 24.8589 1.99806 24.6855 0.965045C24.6664 0.847286 24.6501 0.728571 24.6501 0.605068C24.6501 0.392528 24.6893 0.192435 24.7478 0C24.6731 0.00574431 24.5983 0.0105312 24.5217 0.0172329C24.5983 0.236474 24.651 0.467204 24.651 0.713252C24.651 0.801332 24.6338 0.885582 24.6252 0.970789C24.4958 2.05359 23.5848 2.89609 22.4677 2.89609C21.6275 2.89609 20.909 2.41836 20.5421 1.72521C20.3965 1.44661 20.3083 1.13259 20.293 0.797502C20.2834 0.800374 20.2738 0.803247 20.2652 0.805161C20.2259 1.23311 20.0669 1.62373 19.8178 1.94541C19.4174 2.45952 18.7995 2.79652 18.0982 2.79652C17.9669 2.79652 17.8386 2.77929 17.7131 2.75727C17.2906 2.68164 16.9217 2.47771 16.6219 2.19816C15.9877 2.50644 15.3698 2.84248 14.7729 3.20628C15.0756 3.36808 15.3381 3.59977 15.5364 3.88028C15.7874 4.23547 15.9369 4.6663 15.9369 5.13542C15.9369 6.34172 14.9597 7.31826 13.7536 7.31826C13.0466 7.31826 12.4248 6.97743 12.0263 6.45661C11.8203 6.19046 11.6766 5.87835 11.6105 5.53656C11.5616 5.57773 11.5147 5.61698 11.4687 5.65911C11.2532 6.37523 10.6889 6.93243 9.96462 7.13157C9.91767 7.18231 9.86882 7.23113 9.82283 7.28188C10.162 7.36134 10.4724 7.51548 10.7301 7.73185C11.211 8.13299 11.5233 8.72849 11.5233 9.40249C11.5233 10.6078 10.5461 11.5844 9.33999 11.5844C10.5471 11.5844 11.5233 12.5619 11.5233 13.7662C11.5233 14.9726 10.5461 15.9491 9.33999 15.9491C8.13385 15.9491 7.15667 14.9716 7.15667 13.7662C7.15667 12.5609 8.13385 11.5844 9.33999 11.5844C8.87248 11.5844 8.44041 11.4341 8.08403 11.1832C7.80716 10.9889 7.57915 10.7304 7.41821 10.4326C7.06661 10.987 6.73897 11.5576 6.43624 12.1425C6.70927 12.3953 6.92483 12.7103 7.04266 13.075C7.10972 13.2856 7.15667 13.5049 7.15667 13.7375C7.15667 14.5733 6.68149 15.2904 5.99076 15.658C5.68611 15.8198 5.34122 15.9204 4.97143 15.9204C4.94556 15.9204 4.92257 15.9118 4.8967 15.9098C4.89479 15.9156 4.89287 15.9204 4.89096 15.9252C4.90437 15.9252 4.91299 15.9204 4.9264 15.9204C5.25213 15.9204 5.55678 15.996 5.83556 16.1243C6.58569 16.4689 7.10972 17.2224 7.10972 18.1032C7.10972 19.2865 6.1632 20.2458 4.98772 20.2774C4.96568 20.2784 4.94652 20.2841 4.9264 20.2841C4.61026 20.2841 4.31423 20.2056 4.04503 20.084C4.0297 20.2315 4.01916 20.3799 4.00575 20.5283C4.29411 20.3875 4.60643 20.2889 4.94844 20.2889C4.96185 20.2889 4.97239 20.2927 4.9858 20.2927C6.17374 20.3129 7.13176 21.2779 7.13176 22.4708C7.13176 23.6656 6.17183 24.6335 4.98005 24.6498C4.96856 24.6508 4.95993 24.6536 4.94844 24.6536C4.60451 24.6536 4.28932 24.5541 4 24.4124C4.01341 24.556 4.02012 24.7034 4.03545 24.848C4.30273 24.7293 4.5911 24.6536 4.90149 24.6536C4.92928 24.6536 4.95419 24.6613 4.98197 24.6613C6.14979 24.7044 7.08673 25.6579 7.08673 26.8355C7.08673 27.7144 6.56461 28.4659 5.8164 28.8116C5.53762 28.9408 5.22914 29.0174 4.90149 29.0174C4.89191 29.0174 4.88233 29.0136 4.87371 29.0126C4.87563 29.0193 4.87563 29.0251 4.87754 29.0308C4.90916 29.0289 4.93886 29.0174 4.97143 29.0174C5.33069 29.0174 5.66599 29.1141 5.96489 29.2682C6.66808 29.6301 7.15475 30.3549 7.15475 31.2012C7.15475 31.4492 7.10589 31.6818 7.02925 31.903C6.90567 32.262 6.68916 32.5703 6.41325 32.8173C6.71406 33.4022 7.04171 33.9747 7.39138 34.53C7.55808 34.2332 7.78609 33.9805 8.06487 33.7909C8.41454 33.5535 8.83799 33.4128 9.29209 33.4128C10.4992 33.4128 11.4754 34.3903 11.4754 35.5956C11.4754 36.2581 11.1746 36.8459 10.7061 37.2461C10.4494 37.4654 10.1428 37.6233 9.80654 37.7066C9.86786 37.7717 9.93204 37.8349 9.99144 37.9C10.641 38.1135 11.1516 38.6162 11.3719 39.2624C11.4467 39.3275 11.5214 39.3907 11.5961 39.4558C11.6938 39.1312 11.8548 38.8373 12.079 38.5941C12.4775 38.1585 13.0446 37.8818 13.6827 37.8818C14.8898 37.8818 15.866 38.8593 15.866 40.0637C15.866 40.4582 15.7539 40.8248 15.57 41.1427C15.4014 41.4347 15.1638 41.6779 14.8869 41.8646C15.4052 42.1757 15.9388 42.4648 16.483 42.7348C16.7637 42.4562 17.1114 42.2466 17.5119 42.1566C17.6709 42.1202 17.8338 42.0963 18.0043 42.0963C18.7563 42.0963 19.4212 42.4763 19.814 43.0565C20.0295 43.3763 20.1512 43.7602 20.1713 44.1719C20.1867 44.1766 20.201 44.1805 20.2164 44.1843C20.248 43.8521 20.3399 43.539 20.5028 43.2681C20.8822 42.6286 21.5748 42.1968 22.3719 42.1968C23.4573 42.1968 24.3512 42.9895 24.5198 44.0254C24.5389 44.1412 24.5552 44.259 24.5552 44.3787C24.5552 44.5902 24.5159 44.7884 24.4594 44.9809C24.538 44.9885 24.6185 44.9943 24.697 45C24.6146 44.7721 24.5552 44.5309 24.5552 44.2724C24.5552 44.1901 24.5725 44.1115 24.5792 44.0311C24.7008 42.9388 25.6158 42.0895 26.7405 42.0895C27.8479 42.0895 28.7542 42.9167 28.8941 43.9861C28.9085 44.0809 28.9238 44.1728 28.9238 44.2724C28.9238 44.5165 28.8692 44.7434 28.7945 44.9636C28.8673 44.956 28.9362 44.9435 29.0081 44.9387C28.9592 44.7578 28.9238 44.5692 28.9238 44.372C28.9238 44.237 28.941 44.1068 28.9631 43.9775C29.1499 42.9608 30.037 42.1901 31.1071 42.1901C31.8611 42.1901 32.525 42.5702 32.9187 43.1513C33.0979 43.4146 33.1956 43.7286 33.2444 44.056C33.2646 44.0493 33.2876 44.0407 33.3077 44.035C33.347 43.5926 33.5175 43.1886 33.7809 42.8593C34.1814 42.3614 34.7878 42.0388 35.4766 42.0388C35.5552 42.0388 35.6318 42.0541 35.7085 42.0608C36.1501 42.1097 36.5429 42.2944 36.8648 42.5615C37.4262 42.2715 37.9723 41.9593 38.5059 41.6243C38.2549 41.4155 38.047 41.159 37.909 40.8583C37.7816 40.5817 37.7069 40.2782 37.7069 39.9527C37.7069 38.7464 38.685 37.7708 39.8902 37.7708C40.4181 37.7708 40.8952 37.9651 41.2726 38.2753C41.5255 38.485 41.7277 38.7464 41.8676 39.046C42.3676 38.5807 42.8505 38.0925 43.3103 37.5831C43.0143 37.4424 42.7547 37.2385 42.5487 36.9848C42.2421 36.6076 42.0496 36.1356 42.0496 35.6128C42.0496 34.4065 43.0277 33.43 44.2329 33.43C44.527 33.43 44.8058 33.4903 45.0587 33.5947C45.3653 33.7201 45.6326 33.9173 45.8481 34.1595C46.1815 33.609 46.49 33.0394 46.7764 32.4592C46.58 32.1337 46.4622 31.7565 46.4622 31.3477C46.4622 30.3443 47.1414 29.5105 48.0631 29.2529C48.0784 29.2031 48.0918 29.1534 48.1081 29.1064C47.7814 29.0318 47.4835 28.8872 47.2286 28.6871C46.7238 28.2869 46.3942 27.6761 46.3942 26.9849C46.3942 25.9796 47.0773 25.1429 47.9998 24.8892C48.1847 24.8384 48.3792 24.8011 48.5785 24.8011C48.7136 24.8011 48.8438 24.8174 48.9732 24.8403C48.9751 24.8183 48.977 24.7934 48.9789 24.7704C48.8649 24.7905 48.7471 24.8011 48.6254 24.8011C48.4166 24.7982 48.2163 24.759 48.0247 24.7053ZM46.4431 22.5177C46.4431 23.724 45.4649 24.7006 44.2597 24.7006C43.0526 24.7006 42.0774 23.7231 42.0774 22.5177C42.0774 21.3124 43.0545 20.3358 44.2597 20.3358C45.464 20.3349 46.4431 21.3124 46.4431 22.5177ZM44.2358 15.9654C45.4429 15.9654 46.4181 16.9429 46.4181 18.1482C46.4181 19.3536 45.441 20.3301 44.2358 20.3301C43.0306 20.3301 42.0525 19.3526 42.0525 18.1482C42.0515 16.9419 43.0296 15.9654 44.2358 15.9654ZM35.3195 2.76972C35.4096 2.75727 35.4996 2.74195 35.5925 2.74195C36.427 2.74195 37.1455 3.21586 37.5124 3.90422C37.6753 4.20963 37.7759 4.55428 37.7759 4.92383C37.7759 6.13014 36.7977 7.10667 35.5925 7.10667C34.3854 7.10667 33.4092 6.12918 33.4092 4.92383C33.4083 3.81231 34.2427 2.90375 35.3195 2.76972ZM31.224 2.89322C32.4311 2.89322 33.4063 3.87071 33.4063 5.0751C33.4063 6.28141 32.4292 7.25794 31.224 7.25794C30.0188 7.25794 29.0407 6.28045 29.0407 5.0751C29.0397 3.86975 30.0159 2.89322 31.224 2.89322ZM26.8564 2.79365C28.0606 2.79365 29.0397 3.77114 29.0397 4.97553C29.0397 6.18184 28.0616 7.15837 26.8564 7.15837C25.6493 7.15837 24.6731 6.18088 24.6731 4.97553C24.6731 3.77114 25.6493 2.79365 26.8564 2.79365ZM22.4869 2.90088C23.694 2.90088 24.6702 3.87837 24.6702 5.08276C24.6702 6.28907 23.693 7.2656 22.4869 7.2656C21.2807 7.2656 20.3035 6.28811 20.3035 5.08276C20.3035 3.87837 21.2807 2.90088 22.4869 2.90088ZM18.1202 2.80227C19.3254 2.80227 20.3035 3.77976 20.3035 4.98415C20.3035 6.19046 19.3254 7.16699 18.1202 7.16699C16.9131 7.16699 15.9369 6.1895 15.9369 4.98415C15.9369 3.7788 16.9131 2.80227 18.1202 2.80227ZM7.10685 18.1338C7.10685 16.9275 8.08499 15.951 9.29017 15.951C10.4973 15.951 11.4735 16.9285 11.4735 18.1338C11.4735 19.3392 10.4963 20.3157 9.29017 20.3157C8.08499 20.3157 7.10685 19.3382 7.10685 18.1338ZM11.4984 22.5024C11.4984 23.7087 10.5203 24.6852 9.31508 24.6852C8.10798 24.6852 7.13176 23.7077 7.13176 22.5024C7.13176 21.297 8.10894 20.3205 9.31508 20.3205C10.5193 20.3205 11.4984 21.297 11.4984 22.5024ZM7.08386 26.8681C7.08386 25.6618 8.06104 24.6862 9.26718 24.6862C10.4733 24.6862 11.4505 25.6637 11.4505 26.8681C11.4505 28.0744 10.4733 29.05 9.26718 29.05C8.06104 29.0509 7.08386 28.0725 7.08386 26.8681ZM9.33712 33.4147C8.13001 33.4147 7.15379 32.4372 7.15379 31.2328C7.15379 30.0265 8.13097 29.0509 9.33712 29.0509C10.5423 29.0509 11.5204 30.0284 11.5204 31.2328C11.5204 32.4391 10.5423 33.4147 9.33712 33.4147ZM13.6578 37.8799C12.4526 37.8799 11.4745 36.9024 11.4745 35.698C11.4745 34.4917 12.4526 33.5152 13.6578 33.5152C14.8649 33.5152 15.843 34.4927 15.843 35.698C15.843 36.9034 14.8639 37.8799 13.6578 37.8799ZM18.0512 42.0991C16.8441 42.0991 15.866 41.1216 15.866 39.9172C15.866 38.7109 16.8441 37.7354 18.0512 37.7354C19.2564 37.7354 20.2346 38.7128 20.2346 39.9172C20.2346 41.1216 19.2555 42.0991 18.0512 42.0991ZM22.4179 42.1977C21.2108 42.1977 20.2346 41.2202 20.2346 40.0149C20.2346 38.8095 21.2117 37.834 22.4179 37.834C23.624 37.834 24.6012 38.8115 24.6012 40.0149C24.6022 41.2212 23.625 42.1977 22.4179 42.1977ZM26.7874 42.0905C25.5803 42.0905 24.6022 41.113 24.6022 39.9077C24.6022 38.7023 25.5803 37.7258 26.7874 37.7258C27.9926 37.7258 28.9707 38.7033 28.9707 39.9077C28.9707 41.113 27.9926 42.0905 26.7874 42.0905ZM31.154 42.1882C29.9469 42.1882 28.9707 41.2107 28.9707 40.0063C28.9707 38.8 29.9489 37.8244 31.154 37.8244C32.3612 37.8244 33.3374 38.8019 33.3374 40.0063C33.3383 41.2126 32.3612 42.1882 31.154 42.1882ZM37.1292 41.3227C36.7048 41.5639 36.2708 41.7937 35.8301 42.0072C35.7295 42.0225 35.629 42.0378 35.5255 42.0378C34.3184 42.0378 33.3402 41.0604 33.3402 39.855C33.3402 38.6497 34.3184 37.6731 35.5255 37.6731C36.7307 37.6731 37.7088 38.6506 37.7088 39.855C37.7069 40.4227 37.4837 40.9349 37.1292 41.3227ZM39.8663 37.766C38.6611 37.766 37.6829 36.7885 37.6829 35.5851C37.6829 34.3788 38.6611 33.4022 39.8663 33.4022C41.0734 33.4022 42.0515 34.3797 42.0515 35.5851C42.0515 36.7904 41.0724 37.766 39.8663 37.766ZM39.9122 33.4022C38.9993 33.4022 38.2204 32.8422 37.8947 32.0485C37.4511 32.5779 36.9616 33.0662 36.45 33.5296C37.1781 33.8828 37.682 34.6239 37.682 35.4874C37.682 36.6928 36.7048 37.6683 35.4996 37.6683C34.3625 37.6683 33.4437 36.8019 33.3364 35.6942C33.3259 35.699 33.3163 35.7038 33.3086 35.7086C33.2684 36.8804 32.3123 37.8196 31.1301 37.8196C30.4729 37.8196 29.8914 37.5228 29.4909 37.0661C29.0244 37.1628 28.5454 37.2337 28.0616 37.2844C27.6975 37.5554 27.252 37.722 26.7644 37.722C26.295 37.722 25.8629 37.5707 25.5056 37.3179C24.9911 37.2844 24.4824 37.2241 23.9823 37.1379C23.5838 37.5602 23.0224 37.8282 22.3959 37.8282C21.3028 37.8282 20.4051 37.0231 20.2461 35.9747C20.2202 35.9632 20.1972 35.9517 20.1733 35.9403C19.9864 36.957 19.1012 37.7287 18.0292 37.7287C16.8221 37.7287 15.8459 36.7512 15.8459 35.5468C15.8459 34.801 16.2224 34.1423 16.7924 33.7488C16.3488 33.3668 15.9321 32.9542 15.5345 32.5214C15.1456 33.1188 14.474 33.5152 13.7066 33.5152C12.4995 33.5152 11.5233 32.5377 11.5233 31.3324C11.5233 30.2888 12.2572 29.4195 13.2353 29.2031C13.218 29.1706 13.2037 29.1371 13.1864 29.1036C12.1968 28.8949 11.4534 28.0189 11.4534 26.9696C11.4534 26.4459 11.644 25.972 11.9525 25.5957C11.805 24.8987 11.7187 24.1826 11.6737 23.4569C11.5616 23.1955 11.4994 22.9064 11.4994 22.602C11.4994 22.3128 11.5578 22.0371 11.6603 21.7844C11.6977 21.0213 11.7743 20.2688 11.9199 19.5402C11.645 19.1745 11.4745 18.7246 11.4745 18.2325C11.4745 17.232 12.1518 16.3981 13.0705 16.1396C13.0964 16.0822 13.1251 16.0257 13.151 15.9692C12.215 15.7231 11.5214 14.8787 11.5214 13.8658C11.5214 12.6605 12.4995 11.6839 13.7047 11.6839C12.4995 11.6839 11.5214 10.7064 11.5214 9.50205C11.5214 8.29575 12.4995 7.31921 13.7047 7.31921C14.9118 7.31921 15.89 8.2967 15.89 9.50205C15.89 10.7074 14.9118 11.6839 13.7047 11.6839C14.4232 11.6839 15.0555 12.0343 15.4521 12.5695C15.8995 12.0745 16.3709 11.6054 16.8777 11.1736C16.2827 10.784 15.89 10.1148 15.89 9.35079C15.89 8.14448 16.8671 7.16795 18.0733 7.16795C19.1712 7.16795 20.0717 7.98172 20.225 9.03676C20.2509 9.02432 20.2777 9.01091 20.3035 8.99847C20.5133 8.00949 21.3909 7.26656 22.4399 7.26656C23.0234 7.26656 23.5493 7.49824 23.9421 7.87067C24.4192 7.78738 24.902 7.72802 25.3944 7.69164C25.7757 7.36325 26.2662 7.15837 26.8094 7.15837C27.3881 7.15837 27.9112 7.38719 28.303 7.75482C28.7331 7.80748 29.1614 7.87067 29.581 7.95875C29.9814 7.5308 30.5447 7.25794 31.177 7.25794C32.341 7.25794 33.2818 8.16842 33.3498 9.31441C33.3556 9.31632 33.3613 9.31919 33.3671 9.32207C33.3652 9.31058 33.3632 9.301 33.3632 9.28951C33.3632 8.08321 34.3414 7.10667 35.5466 7.10667C36.7537 7.10667 37.7299 8.08417 37.7299 9.28951C37.7299 10.2306 37.1292 11.0253 36.2929 11.3326C36.8638 11.8314 37.4003 12.3666 37.887 12.9467C38.2089 12.1416 38.9925 11.571 39.9132 11.571C38.708 11.571 37.7299 10.5935 37.7299 9.38908C37.7299 8.18278 38.708 7.20624 39.9132 7.20624C41.1203 7.20624 42.0984 8.18373 42.0984 9.38908C42.0984 10.5944 41.1203 11.571 39.9132 11.571C41.1203 11.571 42.0984 12.5485 42.0984 13.7528C42.0984 14.9592 41.1203 15.9357 39.9132 15.9357C39.8835 15.9357 39.8538 15.928 39.8251 15.9261C39.827 15.9309 39.8289 15.9357 39.8308 15.9395C39.8442 15.9395 39.8538 15.9357 39.8682 15.9357C41.0734 15.9357 42.0505 16.9132 42.0505 18.1185C42.0505 18.8519 41.6855 19.4962 41.1299 19.8926C41.1855 20.1961 41.2334 20.5005 41.2698 20.8097C41.7574 21.2099 42.0726 21.8092 42.0726 22.4871C42.0726 23.1639 41.7593 23.7623 41.2736 24.1625C41.2391 24.4784 41.1855 24.7886 41.1328 25.0998C41.6721 25.4971 42.0304 26.1318 42.0304 26.8547C42.0304 28.06 41.0523 29.0366 39.8452 29.0366C39.8433 29.0394 39.8433 29.0413 39.8414 29.0442C39.8653 29.0433 39.8902 29.0366 39.9142 29.0366C41.1213 29.0366 42.0975 30.014 42.0975 31.2175C42.0965 32.4247 41.1203 33.4022 39.9122 33.4022ZM46.4325 30.913C46.4507 31.0231 46.4651 31.1332 46.4651 31.2481C46.4651 32.0791 45.9966 32.7924 45.3135 33.161C45.0051 33.3276 44.6554 33.431 44.2827 33.431C43.0756 33.431 42.1004 32.4535 42.1004 31.2481C42.1004 30.0428 43.0775 29.0662 44.2827 29.0662C45.3729 29.0653 46.2696 29.8676 46.4325 30.913ZM44.2128 29.0653C43.0057 29.0653 42.0295 28.0878 42.0295 26.8834C42.0295 25.6771 43.0076 24.7006 44.2128 24.7006C45.4199 24.7006 46.3961 25.678 46.3961 26.8834C46.3971 28.0887 45.4199 29.0653 44.2128 29.0653Z" fill="#070707"/>
<path d="M27.2234 35.8207C28.6413 35.7585 30.0016 35.4713 31.271 34.9964C31.591 34.4335 32.3133 33.0041 32.9274 30.7227H27.2234V35.8207Z" fill="#070707"/>
<path d="M32.9856 34.2094C34.5759 33.3363 35.9698 32.1443 37.0792 30.7207H34.1659C33.7884 32.2047 33.3583 33.3602 32.9856 34.2094Z" fill="#070707"/>
<path d="M33.9084 23.4775H27.2224V29.5378H33.2158C33.5817 27.8767 33.8567 25.8538 33.9084 23.4775Z" fill="#070707"/>
<path d="M35.1017 22.2954H39.8746C39.8238 19.9785 39.1762 17.8081 38.0783 15.9307H34.4675C34.823 17.7028 35.0778 19.8272 35.1017 22.2954Z" fill="#070707"/>
<path d="M35.0933 23.4775C35.0435 25.8298 34.7906 27.8557 34.439 29.5378H37.906C39.0097 27.7542 39.7023 25.6881 39.8479 23.4775H35.0933Z" fill="#070707"/>
<path d="M33.2531 15.9307H27.2234V22.2954H33.918C33.8912 19.8109 33.621 17.6827 33.2531 15.9307Z" fill="#070707"/>
<path d="M31.2633 10.1837C29.9968 9.70984 28.6384 9.42453 27.2234 9.3623V14.7466H32.9753C32.3497 12.3149 31.5919 10.7802 31.2633 10.1837Z" fill="#070707"/>
<path d="M37.3007 14.7463C36.1501 13.1877 34.6681 11.8895 32.958 10.9561C33.3508 11.8637 33.8145 13.1226 34.2082 14.7463H37.3007Z" fill="#070707"/>
<path d="M20.5586 14.7466H26.0394V9.36133C24.748 9.41877 23.5074 9.66195 22.3386 10.0631C22.0588 10.5504 21.234 12.1282 20.5586 14.7466Z" fill="#070707"/>
<path d="M20.3169 29.5398H26.0392V23.4814H19.6252C19.6789 25.8548 19.9519 27.8778 20.3169 29.5398Z" fill="#070707"/>
<path d="M19.6147 22.2954H26.0383V15.9307H20.2806C19.9127 17.6827 19.6435 19.8109 19.6147 22.2954Z" fill="#070707"/>
<path d="M22.3318 35.1171C23.5035 35.5192 24.746 35.7642 26.0384 35.8207V30.7227H20.6064C21.2694 33.1898 22.0607 34.6594 22.3318 35.1171Z" fill="#070707"/>
<path d="M20.6533 10.7754C18.7957 11.7184 17.1882 13.0836 15.9609 14.7466H19.3255C19.748 13.0157 20.2462 11.6916 20.6533 10.7754Z" fill="#070707"/>
<path d="M19.0646 15.9307H15.1817C14.0839 17.8091 13.4362 19.9794 13.3835 22.2954H18.4304C18.4543 19.8272 18.7092 17.7028 19.0646 15.9307Z" fill="#070707"/>
<path d="M18.44 23.4775H13.4104C13.5579 25.6901 14.2487 27.7542 15.3542 29.5378H19.0924C18.7427 27.8576 18.4908 25.8318 18.44 23.4775Z" fill="#070707"/>
<path d="M16.1809 30.7227C17.3727 32.2506 18.8883 33.5077 20.629 34.3942C20.2381 33.5335 19.7716 32.3138 19.3663 30.7227H16.1809Z" fill="#070707"/>
</g>
<defs>
<filter id="filter0_d_150_3582" x="0" y="0" width="53" height="53" filterUnits="userSpaceOnUse" color-interpolation-filters="sRGB">
<feFlood flood-opacity="0" result="BackgroundImageFix"/>
<feColorMatrix in="SourceAlpha" type="matrix" values="0 0 0 0 0 0 0 0 0 0 0 0 0 0 0 0 0 0 127 0" result="hardAlpha"/>
<feOffset dy="4"/>
<feGaussianBlur stdDeviation="2"/>
<feComposite in2="hardAlpha" operator="out"/>
<feColorMatrix type="matrix" values="0 0 0 0 0 0 0 0 0 0 0 0 0 0 0 0 0 0 0.25 0"/>
<feBlend mode="normal" in2="BackgroundImageFix" result="effect1_dropShadow_150_3582"/>
<feBlend mode="normal" in="SourceGraphic" in2="effect1_dropShadow_150_3582" result="shape"/>
</filter>
</defs>
</svg>
