<svg width="44" height="36" viewBox="0 0 44 36" fill="none" xmlns="http://www.w3.org/2000/svg">
<path d="M26.6983 16.3156V13.3491C26.6983 10.9889 25.7607 8.72526 24.0917 7.05629C22.4227 5.38732 20.1591 4.44971 17.7989 4.44971M26.6983 16.3156V22.2486C26.6983 24.6089 25.7607 26.8725 24.0917 28.5414C22.4227 30.2104 20.1591 31.148 17.7989 31.148C15.4386 31.148 13.175 30.2104 11.506 28.5414C9.83703 26.8725 8.89941 24.6089 8.89941 22.2486V16.3156M26.6983 16.3156H17.7989M17.7989 4.44971C15.4386 4.44971 13.175 5.38732 11.506 7.05629C9.83703 8.72526 8.89941 10.9889 8.89941 13.3491V16.3156M17.7989 4.44971V16.3156M8.89941 16.3156H17.7989" stroke="#FBFBFB" stroke-width="2" stroke-linecap="round" stroke-linejoin="round"/>
<g clip-path="url(#clip0_367_4405)">
<path d="M28.1787 30.0668L32.134 34.0221M32.134 34.0221L36.0893 30.0668M32.134 34.0221V14.2456" stroke="#FBFBFB" stroke-width="2" stroke-linecap="round" stroke-linejoin="round"/>
</g>
<defs>
<clipPath id="clip0_367_4405">
<rect width="23.7318" height="23.7318" fill="white" transform="translate(20.2686 12.2681)"/>
</clipPath>
</defs>
</svg>
