<svg width="36" height="36" viewBox="0 0 36 36" fill="none" xmlns="http://www.w3.org/2000/svg">
<path d="M27 16.5V13.5C27 11.1131 26.0518 8.82387 24.364 7.13604C22.6761 5.44821 20.3869 4.5 18 4.5M27 16.5V22.5C27 24.887 26.0518 27.1761 24.364 28.864C22.6761 30.5518 20.3869 31.5 18 31.5C15.6131 31.5 13.3239 30.5518 11.636 28.864C9.94821 27.1761 9 24.887 9 22.5V16.5M27 16.5H18M18 4.5C15.6131 4.5 13.3239 5.44821 11.636 7.13604C9.94821 8.82387 9 11.1131 9 13.5V16.5M18 4.5V16.5M9 16.5H18" stroke="#FBFBFB" stroke-width="2" stroke-linecap="round" stroke-linejoin="round"/>
</svg>
