<svg width="38" height="41" viewBox="0 0 38 41" fill="none" xmlns="http://www.w3.org/2000/svg">
<path d="M14.6154 0C13.0649 0 11.5779 0.61709 10.4815 1.71552C9.38516 2.81394 8.76923 4.30373 8.76923 5.85714V12.3205C9.7248 12.0498 10.7033 11.8685 11.6923 11.7787V5.85714C11.6923 5.08044 12.0003 4.33554 12.5485 3.78633C13.0966 3.23712 13.8401 2.92857 14.6154 2.92857H23.3846V10.25C23.3846 11.4151 23.8466 12.5324 24.6688 13.3562C25.4911 14.18 26.6064 14.6429 27.7692 14.6429H35.0769V35.1429C35.0769 35.9196 34.769 36.6645 34.2208 37.2137C33.6726 37.7629 32.9291 38.0714 32.1538 38.0714H25.5565C24.6399 39.1849 23.5781 40.1699 22.3995 41H32.1538C33.7043 41 35.1913 40.3829 36.2877 39.2845C37.3841 38.1861 38 36.6963 38 35.1429V12.9267C37.999 11.762 37.5364 10.6455 36.7138 9.82243L28.196 1.28564C27.374 0.462661 26.2596 0.000248581 25.0975 0H14.6154ZM34.4718 11.7143H27.7692C27.3816 11.7143 27.0099 11.56 26.7358 11.2854C26.4617 11.0108 26.3077 10.6384 26.3077 10.25V3.53479L34.4718 11.7143ZM26.3077 27.8214C26.3077 31.3166 24.9218 34.6686 22.455 37.1401C19.9882 39.6115 16.6425 41 13.1538 41C9.66523 41 6.3195 39.6115 3.85267 37.1401C1.38585 34.6686 0 31.3166 0 27.8214C0 24.3263 1.38585 20.9742 3.85267 18.5028C6.3195 16.0313 9.66523 14.6429 13.1538 14.6429C16.6425 14.6429 19.9882 16.0313 22.455 18.5028C24.9218 20.9742 26.3077 24.3263 26.3077 27.8214ZM20.0348 22.3919C19.899 22.2555 19.7377 22.1473 19.5602 22.0735C19.3826 21.9997 19.1922 21.9617 19 21.9617C18.8078 21.9617 18.6174 21.9997 18.4398 22.0735C18.2623 22.1473 18.101 22.2555 17.9652 22.3919L10.2308 30.1438L8.34246 28.249C8.20657 28.1129 8.04525 28.0049 7.86771 27.9312C7.69016 27.8575 7.49987 27.8196 7.30769 27.8196C7.11552 27.8196 6.92523 27.8575 6.74768 27.9312C6.57013 28.0049 6.40881 28.1129 6.27292 28.249C6.13703 28.3851 6.02924 28.5468 5.9557 28.7246C5.88216 28.9025 5.84431 29.0932 5.84431 29.2857C5.84431 29.4783 5.88216 29.6689 5.9557 29.8468C6.02924 30.0247 6.13703 30.1863 6.27292 30.3224L9.196 33.251C9.33176 33.3874 9.49305 33.4956 9.67061 33.5694C9.84817 33.6432 10.0385 33.6812 10.2308 33.6812C10.423 33.6812 10.6134 33.6432 10.7909 33.5694C10.9685 33.4956 11.1298 33.3874 11.2655 33.251L20.0348 24.4653C20.1709 24.3293 20.2789 24.1677 20.3525 23.9898C20.4262 23.8119 20.4641 23.6212 20.4641 23.4286C20.4641 23.236 20.4262 23.0453 20.3525 22.8674C20.2789 22.6895 20.1709 22.5279 20.0348 22.3919Z" fill="#0A60E1"/>
</svg>
