<svg width="23" height="30" viewBox="0 0 23 30" fill="none" xmlns="http://www.w3.org/2000/svg">
<path fill-rule="evenodd" clip-rule="evenodd" d="M13.0174 1.49729C13.0174 1.10018 12.8576 0.719341 12.5731 0.438545C12.2886 0.157749 11.9028 0 11.5005 0C11.0982 0 10.7124 0.157749 10.4279 0.438545C10.1434 0.719341 9.9836 1.10018 9.9836 1.49729V2.62025H9.1387C7.51264 2.62015 5.94767 3.23173 4.76237 4.33051C3.57707 5.42928 2.86055 6.93264 2.75868 8.53454L2.42345 13.826C2.29385 15.8431 1.60773 17.7869 0.43936 19.4468C0.197619 19.7897 0.0499105 20.1886 0.0106008 20.6046C-0.0287089 21.0207 0.0417177 21.4396 0.215031 21.8208C0.388345 22.202 0.658646 22.5324 0.999648 22.78C1.34065 23.0275 1.74075 23.1837 2.16102 23.2334L7.32905 23.8443V25.4539C7.32905 26.5459 7.76854 27.5932 8.55084 28.3654C9.33313 29.1376 10.3942 29.5714 11.5005 29.5714C12.6068 29.5714 13.6678 29.1376 14.4501 28.3654C15.2324 27.5932 15.6719 26.5459 15.6719 25.4539V23.8443L20.8399 23.2319C21.26 23.1821 21.6598 23.0258 22.0006 22.7784C22.3414 22.531 22.6115 22.2007 22.7848 21.8198C22.9581 21.4388 23.0286 21.0201 22.9895 20.6043C22.9504 20.1885 22.803 19.7897 22.5616 19.4468C21.3932 17.7869 20.7071 15.8431 20.5775 13.826L20.2423 8.53604C20.1408 6.93388 19.4244 5.43014 18.2391 4.33106C17.0538 3.23197 15.4886 2.62017 13.8623 2.62025H13.0174V1.49729ZM9.1387 4.86618C8.0914 4.86606 7.08342 5.25993 6.31999 5.9676C5.55655 6.67527 5.09506 7.64355 5.02945 8.67528L4.69574 13.9667C4.53978 16.3934 3.71411 18.7318 2.30816 20.7284C2.29067 20.7533 2.27998 20.7821 2.27712 20.8122C2.27426 20.8423 2.27934 20.8726 2.29186 20.9002C2.30438 20.9277 2.32392 20.9517 2.34857 20.9696C2.37322 20.9875 2.40215 20.9988 2.43255 21.0025L8.10115 21.6747C10.3598 21.9413 12.6412 21.9413 14.8998 21.6747L20.5684 21.0025C20.5988 20.9988 20.6278 20.9875 20.6524 20.9696C20.6771 20.9517 20.6966 20.9277 20.7091 20.9002C20.7216 20.8726 20.7267 20.8423 20.7239 20.8122C20.721 20.7821 20.7103 20.7533 20.6928 20.7284C19.2874 18.7316 18.4623 16.3933 18.3067 13.9667L17.9715 8.67528C17.9059 7.64355 17.4444 6.67527 16.681 5.9676C15.9175 5.25993 14.9096 4.86606 13.8623 4.86618H9.1387ZM11.5005 27.3255C10.4538 27.3255 9.60438 26.487 9.60438 25.4539V24.3309H13.3966V25.4539C13.3966 26.487 12.5471 27.3255 11.5005 27.3255Z" fill="#FBFBFB"/>
</svg>
