<svg width="17" height="18" viewBox="0 0 17 18" fill="none" xmlns="http://www.w3.org/2000/svg">
<rect x="0.5" y="1" width="16" height="16" rx="8" stroke="#CFD0D2"/>
<path d="M8.25 13.4167C7.65972 13.4167 7.10691 13.3046 6.59156 13.0804C6.0762 12.8563 5.62759 12.5533 5.24572 12.1714C4.86385 11.7895 4.56084 11.3409 4.33669 10.8256C4.11255 10.3102 4.00031 9.75726 4 9.16667H4.94444C4.94444 10.0875 5.26524 10.8687 5.90683 11.5103C6.54843 12.1519 7.32948 12.4725 8.25 12.4722C9.17052 12.4719 9.95173 12.1513 10.5936 11.5103C11.2355 10.8693 11.5562 10.0881 11.5556 9.16667C11.5549 8.2452 11.2343 7.46415 10.5936 6.8235C9.95299 6.18285 9.17178 5.86206 8.25 5.86111H8.17917L8.91111 6.59306L8.25 7.27778L6.36111 5.38889L8.25 3.5L8.91111 4.18472L8.17917 4.91667H8.25C8.84028 4.91667 9.39325 5.0289 9.90892 5.25336C10.4246 5.47782 10.8732 5.78083 11.2548 6.16239C11.6363 6.54394 11.9393 6.99256 12.1638 7.50822C12.3882 8.02389 12.5003 8.5767 12.5 9.16667C12.4997 9.75663 12.3876 10.3096 12.1638 10.8256C11.9399 11.3416 11.6369 11.7902 11.2548 12.1714C10.8726 12.5527 10.424 12.8557 9.90892 13.0804C9.39388 13.3052 8.84091 13.4173 8.25 13.4167Z" fill="#CFD0D2"/>
</svg>
