<svg width="26" height="26" viewBox="0 0 26 26" fill="none" xmlns="http://www.w3.org/2000/svg">
<path d="M18.8927 16.6435L18.7666 16.8163L18.9179 16.9676L25.3471 23.4007L25.3471 23.4007C25.8843 23.9378 25.8843 24.8102 25.3471 25.3472C24.81 25.8843 23.9373 25.8843 23.4002 25.3472L16.971 18.9142L16.8194 18.7626L16.6465 18.8893C14.9411 20.1383 12.8394 20.8719 10.563 20.8719C4.86599 20.8719 0.25 16.2567 0.25 10.561C0.25 4.86516 4.86599 0.25 10.563 0.25C16.26 0.25 20.876 4.86516 20.876 10.561C20.876 12.8365 20.1374 14.938 18.8927 16.6435ZM10.563 18.1224C11.5562 18.1224 12.5396 17.9268 13.4572 17.5468C14.3747 17.1668 15.2085 16.6098 15.9107 15.9077C16.613 15.2056 17.1701 14.372 17.5502 13.4546C17.9303 12.5372 18.1259 11.5539 18.1259 10.561C18.1259 9.56797 17.9303 8.5847 17.5502 7.6673C17.1701 6.7499 16.613 5.91634 15.9107 5.2142C15.2085 4.51206 14.3747 3.95509 13.4572 3.5751C12.5396 3.1951 11.5562 2.99952 10.563 2.99952C9.56985 2.99952 8.58642 3.1951 7.66885 3.5751C6.75129 3.95509 5.91756 4.51206 5.21529 5.2142C4.51301 5.91634 3.95593 6.7499 3.57585 7.6673C3.19578 8.5847 3.00016 9.56797 3.00016 10.561C3.00016 11.5539 3.19578 12.5372 3.57585 13.4546C3.95593 14.372 4.51301 15.2056 5.21528 15.9077C5.91756 16.6098 6.75129 17.1668 7.66885 17.5468C8.58642 17.9268 9.56985 18.1224 10.563 18.1224Z" fill="#001744" stroke="#001744" stroke-width="0.5"/>
</svg>
