<svg width="54" height="54" viewBox="0 0 54 54" fill="none" xmlns="http://www.w3.org/2000/svg">
<path d="M26.4999 51C40.4249 51 52 39.4499 52 25.5C52 11.575 40.3999 0 26.4749 0C12.5249 0 1 11.575 1 25.5C1 39.4499 12.55 51 26.4999 51ZM26.4999 11.1C31.2749 11.1 35.0749 15.3 35.0749 20.35C35.0749 25.725 31.2999 29.825 26.4999 29.775C21.6749 29.725 17.925 25.725 17.925 20.35C17.875 15.3 21.6999 11.1 26.4999 11.1ZM41.6999 40.3L41.7748 40.625C37.9249 44.7249 32.2249 47.075 26.4999 47.075C20.7499 47.075 15.0499 44.7249 11.2 40.625L11.275 40.3C13.4499 37.3 18.8 34.025 26.4999 34.025C34.1749 34.025 39.5499 37.3 41.6999 40.3Z" fill="#CFD0D2"/>
<line x1="8.39726" y1="8.56903" x2="43.7469" y2="43.0858" stroke="#474747" stroke-width="4"/>
<circle cx="27" cy="27" r="25" stroke="#474747" stroke-width="4"/>
</svg>
