<svg width="24" height="24" viewBox="0 0 24 24" fill="none" xmlns="http://www.w3.org/2000/svg">
<path d="M17.4239 15.3519L17.2978 15.5247L17.449 15.676L23.3837 21.6142L23.3838 21.6143C23.8721 22.1025 23.8721 22.8956 23.3838 23.3838C22.8954 23.8721 22.1021 23.8721 21.6137 23.3838L15.6791 17.4457L15.5276 17.294L15.3546 17.4207C13.7836 18.5713 11.8475 19.2471 9.75048 19.2471C4.5023 19.2471 0.25 14.9956 0.25 9.74857C0.25 4.50154 4.5023 0.25 9.75048 0.25C14.9987 0.25 19.251 4.50154 19.251 9.74857C19.251 11.8448 18.5705 13.7808 17.4239 15.3519ZM9.75048 16.7476C10.6698 16.7476 11.5801 16.5666 12.4294 16.2148C13.2787 15.8631 14.0504 15.3476 14.7004 14.6976C15.3505 14.0477 15.8661 13.2762 16.2179 12.427C16.5697 11.5778 16.7508 10.6677 16.7508 9.74857C16.7508 8.82944 16.5697 7.91931 16.2179 7.07015C15.8661 6.22099 15.3505 5.44942 14.7004 4.79951C14.0504 4.14959 13.2787 3.63405 12.4294 3.28232C11.5801 2.93059 10.6698 2.74956 9.75048 2.74956C8.83119 2.74956 7.9209 2.93059 7.07158 3.28232C6.22227 3.63405 5.45056 4.14959 4.80051 4.79951C4.15047 5.44942 3.63482 6.22099 3.28302 7.07015C2.93122 7.91931 2.75015 8.82944 2.75015 9.74857C2.75015 10.6677 2.93122 11.5778 3.28302 12.427C3.63482 13.2762 4.15047 14.0477 4.80051 14.6976C5.45056 15.3476 6.22227 15.8631 7.07158 16.2148C7.9209 16.5666 8.83119 16.7476 9.75048 16.7476Z" fill="#070707" stroke="#070707" stroke-width="0.5"/>
</svg>
