<svg width="27" height="22" viewBox="0 0 27 22" fill="none" xmlns="http://www.w3.org/2000/svg">
<path d="M26.6782 12.9971C26.6782 9.93482 24.2817 7.40513 21.3526 7.00571C21.0863 3.27775 17.8909 0.348633 14.1629 0.348633H7.37271C5.37559 0.348633 3.51161 1.14748 2.18019 2.4789C0.848777 3.81031 0.0499281 5.67429 0.0499281 7.67141C0.0499281 9.26911 0.582494 10.7337 1.38134 11.9319L0.0499281 15.9262C-0.0832134 16.4588 0.049928 16.9913 0.449352 17.3907C0.715635 17.5239 1.11506 17.657 1.38134 17.657C1.64763 17.657 1.78077 17.657 1.91391 17.5239L7.23957 14.8611H9.63611C9.9024 15.5268 10.1687 16.1925 10.5681 16.725C11.7664 18.1896 13.3641 18.9884 15.2281 18.9884H18.2903L23.3497 21.5181C23.616 21.6513 23.7491 21.6513 24.0154 21.6513C24.2817 21.6513 24.6811 21.5181 24.9474 21.385C25.3468 20.9856 25.4799 20.453 25.3468 19.9204L24.548 17.657C24.6811 17.5239 24.8142 17.3907 24.9474 17.2576C26.0125 16.0593 26.6782 14.5948 26.6782 12.9971ZM7.10643 12.1982C6.84014 12.1982 6.57386 12.1982 6.30758 12.3314L3.51161 13.6628L4.04417 11.9319C4.17731 11.5325 4.04417 11 3.77789 10.6005C3.11218 9.80168 2.71276 8.73655 2.71276 7.67141C2.71276 6.34 3.24532 5.27487 4.04417 4.34288C4.97616 3.41089 6.04129 3.01146 7.23957 3.01146H14.0298C16.4263 3.01146 18.2903 4.7423 18.5566 7.00571H15.2281C13.6304 7.00571 12.1658 7.67141 10.9675 8.73655C10.0355 9.66854 9.50297 10.7337 9.23669 11.9319C9.23669 12.0651 9.23669 12.0651 9.23669 12.1982H7.37271C7.23957 12.1982 7.23957 12.1982 7.10643 12.1982ZM23.0834 15.3936C22.8171 15.6599 22.5508 15.793 22.2846 15.9262C21.752 16.1925 21.4857 16.8582 21.6188 17.5239L21.752 17.7902L19.3554 16.5919C19.0892 16.3256 18.956 16.3256 18.6897 16.3256H15.3612C14.2961 16.3256 13.3641 15.9262 12.6984 14.9942C12.2989 14.4616 12.0327 13.9291 12.0327 13.3965C12.0327 13.2634 12.0327 13.1302 12.0327 12.9971C12.0327 12.8639 12.0327 12.5976 12.0327 12.4645C12.1658 11.7988 12.4321 11.1331 12.9647 10.7337C13.6304 10.068 14.4292 9.80168 15.3612 9.80168H20.0211H20.6869C22.5508 9.80168 24.0154 11.2662 24.0154 13.1302C24.0154 13.9291 23.616 14.7279 23.0834 15.3936Z" fill="#FBFBFB"/>
</svg>
