<svg width="1040" height="1050" viewBox="0 0 1040 1050" fill="none" xmlns="http://www.w3.org/2000/svg">
<path d="M101.746 57.1345C99.6405 56.53 98.0928 54.606 98.0928 52.3033C98.0928 49.9874 99.6626 48.0567 101.786 47.4633C102.222 47.3416 102.667 47.2552 103.139 47.2552C103.433 47.2552 103.719 47.284 104 47.3327C103.991 47.2751 103.991 47.2132 103.982 47.1556C103.692 47.2109 103.391 47.2441 103.09 47.2441C102.623 47.2441 102.187 47.1622 101.755 47.0449C99.6161 46.4559 98.033 44.5208 98.033 42.1982C98.033 40.5598 98.8279 39.1162 100.035 38.1952C100.632 37.7413 101.323 37.4203 102.08 37.2631C102.054 37.1745 102.034 37.0837 102.003 36.9951C100.723 36.6807 99.6316 35.8881 98.9364 34.8032C98.5998 34.2696 98.3519 33.6674 98.2389 33.0209C98.1836 32.722 98.1415 32.4164 98.1415 32.0998C98.1415 31.0592 98.4825 30.116 99.0227 29.3189C98.3386 27.9019 97.588 26.5247 96.7821 25.1852C96.2728 25.7365 95.6529 26.1816 94.9444 26.4627C95.1437 26.7949 95.3341 27.1358 95.5245 27.4724C97.0766 28.3336 98.1415 29.9699 98.1415 31.8695C98.1415 32.1197 98.1017 32.3611 98.0707 32.6002C97.7164 35.0423 95.633 36.9177 93.0978 36.9177C90.3081 36.9177 88.0542 34.6571 88.0542 31.8695C88.0542 29.082 90.3125 26.8236 93.0978 26.8236C90.3081 26.8236 88.0542 24.5631 88.0542 21.7777C88.0542 20.5844 88.4793 19.5039 89.1745 18.6382C89.6461 18.0514 90.2395 17.5732 90.9214 17.2389C89.8675 16.0654 88.7649 14.9429 87.618 13.8712C87.2726 14.5465 86.7788 15.1333 86.1877 15.5938C85.3308 16.2536 84.2769 16.661 83.1123 16.661C80.3226 16.661 78.0664 14.4004 78.0664 11.6129C78.0664 10.9154 78.2081 10.249 78.465 9.64234C78.7639 8.94269 79.2266 8.33382 79.789 7.83786C78.4561 6.99872 77.0812 6.22158 75.6752 5.49979C74.8914 6.00903 73.9726 6.32564 72.9674 6.32564C72.6441 6.32564 72.3231 6.288 72.0131 6.22822C71.3245 6.09759 70.6891 5.8319 70.1311 5.45329C69.0772 4.73814 68.3267 3.6311 68.0499 2.34914C67.9724 2.32258 67.9016 2.29601 67.8196 2.27165C67.7156 3.0333 67.4964 3.7573 67.0934 4.37282C66.1945 5.75662 64.6424 6.67547 62.8689 6.67547C60.3427 6.67547 58.2725 4.81785 57.8961 2.40007C57.8563 2.14545 57.8186 1.89304 57.8186 1.62735C57.8186 1.12254 57.9182 0.646513 58.0555 0.185983C57.9182 0.170485 57.7788 0.148344 57.6393 0.135059C57.7433 0.542451 57.8164 0.960913 57.8164 1.3993C57.8164 1.73363 57.7788 2.06131 57.7212 2.37571C57.2629 4.69607 55.2215 6.4452 52.7705 6.4452C50.2708 6.4452 48.2073 4.6208 47.8065 2.2318C47.7622 1.95947 47.7246 1.68492 47.7246 1.3993C47.7246 0.907775 47.8154 0.445031 47.9504 0C47.7777 0.0132845 47.605 0.0243549 47.4279 0.0398535C47.605 0.546879 47.7268 1.08047 47.7268 1.64949C47.7268 1.85319 47.687 2.04803 47.667 2.24508C47.3681 4.74921 45.2625 6.69761 42.6809 6.69761C40.7392 6.69761 39.0786 5.59278 38.2306 3.98978C37.8941 3.34548 37.6904 2.61926 37.6549 1.84433C37.6328 1.85098 37.6107 1.85762 37.5907 1.86205C37.5 2.85174 37.1324 3.75509 36.5568 4.49902C35.6313 5.68798 34.2032 6.46734 32.5825 6.46734C32.2791 6.46734 31.9825 6.42749 31.6924 6.37657C30.716 6.20165 29.8636 5.73005 29.1706 5.08354C27.7048 5.79647 26.2768 6.57362 24.8974 7.41497C25.597 7.78915 26.2037 8.32496 26.662 8.97369C27.2421 9.79511 27.5875 10.7915 27.5875 11.8764C27.5875 14.6661 25.3291 16.9245 22.5416 16.9245C20.9076 16.9245 19.4707 16.1363 18.5496 14.9318C18.0736 14.3163 17.7415 13.5945 17.5887 12.8041C17.4758 12.8993 17.3673 12.99 17.261 13.0875C16.7628 14.7436 15.4587 16.0322 13.7849 16.4927C13.6764 16.6101 13.5635 16.723 13.4572 16.8403C14.241 17.0241 14.9584 17.3806 15.5539 17.881C16.6654 18.8087 17.3872 20.1858 17.3872 21.7445C17.3872 24.5321 15.1288 26.7904 12.3413 26.7904C15.1311 26.7904 17.3872 29.051 17.3872 31.8363C17.3872 34.6261 15.1288 36.8844 12.3413 36.8844C9.55378 36.8844 7.29541 34.6239 7.29541 31.8363C7.29541 29.0488 9.55378 26.7904 12.3413 26.7904C11.2608 26.7904 10.2623 26.4428 9.43864 25.8627C8.79877 25.4133 8.27182 24.8155 7.89985 24.1269C7.08729 25.4088 6.33007 26.7284 5.63042 28.0812C6.26143 28.6658 6.7596 29.3942 7.03193 30.2378C7.18692 30.7249 7.29541 31.2319 7.29541 31.7699C7.29541 33.7028 6.19722 35.3612 4.60087 36.2114C3.89679 36.5855 3.09972 36.818 2.24508 36.818C2.1853 36.818 2.13216 36.7981 2.07238 36.7937C2.06796 36.807 2.06353 36.818 2.0591 36.8291C2.0901 36.8291 2.11002 36.818 2.14102 36.818C2.89381 36.818 3.59789 36.9929 4.24219 37.2896C5.97582 38.0867 7.18692 39.8292 7.18692 41.8661C7.18692 44.6027 4.9994 46.8213 2.28272 46.8943C2.2318 46.8965 2.18752 46.9098 2.14102 46.9098C1.41037 46.9098 0.72622 46.7283 0.104062 46.4471C0.0686366 46.788 0.0442817 47.1312 0.0132845 47.4744C0.679724 47.1489 1.40152 46.9209 2.19194 46.9209C2.22294 46.9209 2.2473 46.9297 2.27829 46.9297C5.02376 46.9762 7.23784 49.208 7.23784 51.9668C7.23784 54.73 5.01933 56.9684 2.26501 57.006C2.23844 57.0083 2.21851 57.0149 2.19194 57.0149C1.39709 57.0149 0.668654 56.7846 0 56.457C0.0309972 56.7891 0.0464958 57.13 0.0819211 57.4644C0.699651 57.1898 1.36609 57.0149 2.08345 57.0149C2.14766 57.0149 2.20523 57.0326 2.26944 57.0326C4.96841 57.1323 7.13378 59.3375 7.13378 62.0608C7.13378 64.0933 5.92711 65.8314 4.1979 66.6307C3.55361 66.9296 2.84067 67.1067 2.08345 67.1067C2.06131 67.1067 2.03917 67.0979 2.01925 67.0956C2.02367 67.1111 2.02367 67.1244 2.0281 67.1377C2.10117 67.1333 2.1698 67.1067 2.24508 67.1067C3.07536 67.1067 3.85029 67.3303 4.54109 67.6868C6.16623 68.5237 7.29098 70.1998 7.29098 72.157C7.29098 72.7305 7.17806 73.2685 7.00094 73.78C6.71532 74.6102 6.21494 75.3232 5.57728 75.8944C6.2725 77.2472 7.02972 78.5712 7.83786 79.8554C8.22311 79.169 8.75006 78.5845 9.39436 78.1461C10.2025 77.597 11.1811 77.2716 12.2306 77.2716C15.0204 77.2716 17.2765 79.5322 17.2765 82.3197C17.2765 83.8518 16.5813 85.2113 15.4986 86.1368C14.9052 86.6438 14.1967 87.0091 13.4196 87.2017C13.5613 87.3523 13.7096 87.4984 13.8469 87.649C15.348 88.1427 16.5281 89.3051 17.0374 90.7996C17.2101 90.9502 17.3828 91.0963 17.5555 91.2469C17.7813 90.4963 18.1533 89.8166 18.6714 89.2542C19.5924 88.2468 20.9032 87.6069 22.3778 87.6069C25.1675 87.6069 27.4237 89.8675 27.4237 92.6528C27.4237 93.565 27.1646 94.413 26.7395 95.1481C26.3498 95.8234 25.8007 96.3858 25.1609 96.8175C26.3587 97.5371 27.5919 98.2057 28.8495 98.8301C29.4983 98.1858 30.302 97.7009 31.2275 97.4928C31.595 97.4087 31.9714 97.3533 32.3655 97.3533C34.1035 97.3533 35.6401 98.2323 36.5479 99.574C37.0461 100.314 37.3273 101.201 37.3738 102.153C37.4092 102.165 37.4424 102.173 37.4778 102.182C37.5509 101.414 37.7634 100.69 38.1398 100.063C39.0166 98.5844 40.6174 97.5858 42.4595 97.5858C44.9681 97.5858 47.0338 99.4191 47.4235 101.815C47.4678 102.083 47.5054 102.355 47.5054 102.632C47.5054 103.121 47.4146 103.579 47.284 104.024C47.4656 104.042 47.6515 104.055 47.8331 104.069C47.6427 103.542 47.5054 102.984 47.5054 102.386C47.5054 102.196 47.5453 102.014 47.5608 101.828C47.8419 99.3017 49.9564 97.3378 52.5557 97.3378C55.1152 97.3378 57.2097 99.2508 57.533 101.724C57.5662 101.943 57.6016 102.156 57.6016 102.386C57.6016 102.951 57.4754 103.475 57.3027 103.985C57.471 103.967 57.6304 103.938 57.7965 103.927C57.6836 103.508 57.6016 103.072 57.6016 102.616C57.6016 102.304 57.6415 102.003 57.6924 101.704C58.1242 99.3526 60.1744 97.5703 62.6475 97.5703C64.39 97.5703 65.9244 98.4493 66.8344 99.7932C67.2484 100.402 67.4742 101.128 67.5872 101.886C67.6337 101.87 67.6868 101.85 67.7333 101.837C67.8241 100.814 68.2182 99.8796 68.827 99.1179C69.7525 97.9666 71.154 97.2205 72.746 97.2205C72.9275 97.2205 73.1047 97.2559 73.2818 97.2714C74.3025 97.3843 75.2102 97.8116 75.9542 98.4294C77.2516 97.7585 78.5137 97.0367 79.7469 96.2618C79.1668 95.7791 78.6864 95.1857 78.3675 94.4905C78.0731 93.8506 77.9004 93.1488 77.9004 92.396C77.9004 89.6062 80.1609 87.3501 82.9463 87.3501C84.1662 87.3501 85.2688 87.7995 86.1412 88.5169C86.7257 89.0018 87.1929 89.6062 87.5161 90.2992C88.6719 89.2232 89.7878 88.094 90.8505 86.9161C90.1664 86.5907 89.5664 86.1191 89.0903 85.5323C88.3818 84.66 87.9368 83.5684 87.9368 82.3595C87.9368 79.5698 90.1974 77.3114 92.9827 77.3114C93.6624 77.3114 94.3067 77.4509 94.8913 77.6922C95.5998 77.9823 96.2175 78.4384 96.7157 78.9986C97.4862 77.7255 98.1991 76.4081 98.8611 75.0663C98.4072 74.3136 98.1349 73.4412 98.1349 72.4958C98.1349 70.1754 99.7047 68.247 101.835 67.6514C101.87 67.5362 101.901 67.4211 101.939 67.3126C101.184 67.1399 100.495 66.8056 99.9062 66.3428C98.7393 65.4174 97.9777 64.0048 97.9777 62.4062C97.9777 60.0814 99.5563 58.1463 101.688 57.5596C102.116 57.4422 102.565 57.3559 103.026 57.3559C103.338 57.3559 103.639 57.3935 103.938 57.4467C103.942 57.3957 103.947 57.3382 103.951 57.285C103.688 57.3315 103.415 57.3559 103.134 57.3559C102.652 57.3492 102.189 57.2585 101.746 57.1345ZM98.0906 52.0753C98.0906 54.865 95.83 57.1234 93.0447 57.1234C90.255 57.1234 88.001 54.8628 88.001 52.0753C88.001 49.2877 90.2594 47.0294 93.0447 47.0294C95.8278 47.0272 98.0906 49.2877 98.0906 52.0753ZM92.9894 36.9221C95.7791 36.9221 98.033 39.1827 98.033 41.9702C98.033 44.7577 95.7747 47.0161 92.9894 47.0161C90.204 47.0161 87.9435 44.7555 87.9435 41.9702C87.9412 39.1804 90.2018 36.9221 92.9894 36.9221ZM72.3829 6.40535C72.591 6.37656 72.7991 6.34114 73.0139 6.34114C74.9423 6.34114 76.6029 7.43711 77.4509 9.02904C77.8273 9.73533 78.0598 10.5324 78.0598 11.387C78.0598 14.1768 75.7992 16.4352 73.0139 16.4352C70.2241 16.4352 67.968 14.1746 67.968 11.387C67.9658 8.81649 69.8942 6.71532 72.3829 6.40535ZM62.9176 6.69097C65.7074 6.69097 67.9613 8.95155 67.9613 11.7369C67.9613 14.5266 65.703 16.785 62.9176 16.785C60.1323 16.785 57.8718 14.5244 57.8718 11.7369C57.8695 8.94933 60.1257 6.69097 62.9176 6.69097ZM52.8236 6.4607C55.6067 6.4607 57.8695 8.72128 57.8695 11.5066C57.8695 14.2963 55.609 16.5547 52.8236 16.5547C50.0339 16.5547 47.7777 14.2941 47.7777 11.5066C47.7777 8.72128 50.0339 6.4607 52.8236 6.4607ZM42.7252 6.70868C45.5149 6.70868 47.7711 8.96926 47.7711 11.7546C47.7711 14.5443 45.5127 16.8027 42.7252 16.8027C39.9377 16.8027 37.6793 14.5421 37.6793 11.7546C37.6793 8.96926 39.9377 6.70868 42.7252 6.70868ZM32.6334 6.48063C35.4187 6.48063 37.6793 8.74121 37.6793 11.5265C37.6793 14.3163 35.4187 16.5746 32.6334 16.5746C29.8436 16.5746 27.5875 14.3141 27.5875 11.5265C27.5875 8.73899 29.8436 6.48063 32.6334 6.48063ZM7.18028 41.937C7.18028 39.1472 9.44086 36.8889 12.2262 36.8889C15.0159 36.8889 17.2721 39.1495 17.2721 41.937C17.2721 44.7245 15.0137 46.9829 12.2262 46.9829C9.44086 46.9829 7.18028 44.7223 7.18028 41.937ZM17.3296 52.0399C17.3296 54.8296 15.0691 57.088 12.2837 57.088C9.494 57.088 7.23784 54.8274 7.23784 52.0399C7.23784 49.2523 9.49621 46.994 12.2837 46.994C15.0668 46.994 17.3296 49.2523 17.3296 52.0399ZM7.12714 62.1361C7.12714 59.3463 9.38551 57.0902 12.173 57.0902C14.9606 57.0902 17.2189 59.3508 17.2189 62.1361C17.2189 64.9258 14.9606 67.182 12.173 67.182C9.38551 67.1842 7.12714 64.9214 7.12714 62.1361ZM12.3347 77.276C9.54492 77.276 7.28877 75.0154 7.28877 72.2301C7.28877 69.4404 9.54713 67.1842 12.3347 67.1842C15.12 67.1842 17.3806 69.4448 17.3806 72.2301C17.3806 75.0198 15.12 77.276 12.3347 77.276ZM22.3202 87.6025C19.5349 87.6025 17.2743 85.3419 17.2743 82.5566C17.2743 79.7668 19.5349 77.5085 22.3202 77.5085C25.1099 77.5085 27.3705 79.7691 27.3705 82.5566C27.3705 85.3441 25.1077 87.6025 22.3202 87.6025ZM32.474 97.36C29.6842 97.36 27.4237 95.0994 27.4237 92.3141C27.4237 89.5243 29.6842 87.2682 32.474 87.2682C35.2593 87.2682 37.5199 89.5287 37.5199 92.3141C37.5199 95.0994 35.2571 97.36 32.474 97.36ZM42.5658 97.588C39.776 97.588 37.5199 95.3274 37.5199 92.5399C37.5199 89.7524 39.7782 87.4962 42.5658 87.4962C45.3533 87.4962 47.6117 89.7568 47.6117 92.5399C47.6139 95.3297 45.3555 97.588 42.5658 97.588ZM52.6642 97.34C49.8745 97.34 47.6139 95.0795 47.6139 92.2919C47.6139 89.5044 49.8745 87.246 52.6642 87.246C55.4495 87.246 57.7101 89.5066 57.7101 92.2919C57.7101 95.0795 55.4495 97.34 52.6642 97.34ZM62.756 97.5659C59.9663 97.5659 57.7101 95.3053 57.7101 92.52C57.7101 89.7302 59.9707 87.4741 62.756 87.4741C65.5458 87.4741 67.8019 89.7347 67.8019 92.52C67.8041 95.3097 65.5458 97.5659 62.756 97.5659ZM76.5653 95.5643C75.5844 96.1223 74.5815 96.6537 73.563 97.1474C73.3305 97.1828 73.098 97.2183 72.8589 97.2183C70.0691 97.2183 67.8086 94.9577 67.8086 92.1702C67.8086 89.3826 70.0691 87.1242 72.8589 87.1242C75.6442 87.1242 77.9048 89.3848 77.9048 92.1702C77.9004 93.4831 77.3845 94.6676 76.5653 95.5643ZM82.8909 87.339C80.1056 87.339 77.845 85.0784 77.845 82.2953C77.845 79.5056 80.1056 77.2472 82.8909 77.2472C85.6807 77.2472 87.9412 79.5078 87.9412 82.2953C87.9412 85.0829 85.6784 87.339 82.8909 87.339ZM82.9972 77.2472C80.8872 77.2472 79.0871 75.952 78.3343 74.1165C77.3092 75.3409 76.1778 76.4701 74.9955 77.5417C76.6782 78.3587 77.8428 80.0724 77.8428 82.0695C77.8428 84.857 75.5844 87.1132 72.7991 87.1132C70.171 87.1132 68.0477 85.1094 67.7997 82.5477C67.7754 82.5588 67.7532 82.5699 67.7355 82.5809C67.6425 85.291 65.4329 87.463 62.7007 87.463C61.1818 87.463 59.8379 86.7766 58.9124 85.7205C57.8341 85.9441 56.7271 86.108 55.609 86.2253C54.7676 86.8519 53.7381 87.2372 52.6111 87.2372C51.5262 87.2372 50.5276 86.8873 49.7018 86.3028C48.5128 86.2253 47.3371 86.0858 46.1814 85.8866C45.2603 86.863 43.9629 87.4829 42.5149 87.4829C39.9886 87.4829 37.914 85.6209 37.5465 83.1965C37.4867 83.1699 37.4335 83.1433 37.3782 83.1168C36.9464 85.4681 34.9006 87.2527 32.4231 87.2527C29.6333 87.2527 27.3772 84.9921 27.3772 82.2068C27.3772 80.482 28.2473 78.9587 29.5647 78.0487C28.5396 77.1653 27.5764 76.211 26.6576 75.2103C25.7587 76.5918 24.2066 77.5085 22.4331 77.5085C19.6434 77.5085 17.3872 75.2479 17.3872 72.4604C17.3872 70.047 19.0832 68.0366 21.3438 67.5362C21.3039 67.461 21.2707 67.3835 21.2309 67.306C18.9437 66.8233 17.2256 64.7974 17.2256 62.3708C17.2256 61.1597 17.6662 60.0637 18.3791 59.1936C18.0381 57.5817 17.8389 55.9256 17.7348 54.2473C17.4758 53.6429 17.3319 52.9742 17.3319 52.2701C17.3319 51.6015 17.4669 50.9638 17.7038 50.3793C17.7902 48.6147 17.9673 46.8744 18.3038 45.1895C17.6684 44.3437 17.2743 43.3031 17.2743 42.165C17.2743 39.8513 18.8396 37.9228 20.963 37.325C21.0227 37.1922 21.0892 37.0616 21.1489 36.9309C18.9858 36.3619 17.3828 34.4091 17.3828 32.0666C17.3828 29.2791 19.6434 27.0207 22.4287 27.0207C19.6434 27.0207 17.3828 24.7601 17.3828 21.9748C17.3828 19.185 19.6434 16.9267 22.4287 16.9267C25.2184 16.9267 27.479 19.1873 27.479 21.9748C27.479 24.7623 25.2184 27.0207 22.4287 27.0207C24.0892 27.0207 25.5505 27.831 26.4672 29.0687C27.5011 27.924 28.5905 26.8391 29.7617 25.8406C28.3868 24.9395 27.479 23.3918 27.479 21.625C27.479 18.8352 29.7374 16.5769 32.5249 16.5769C35.0622 16.5769 37.1435 18.4588 37.4977 20.8987C37.5575 20.87 37.6195 20.839 37.6793 20.8102C38.1642 18.523 40.1923 16.8049 42.6167 16.8049C43.9651 16.8049 45.1806 17.3407 46.0884 18.202C47.191 18.0094 48.3069 17.8721 49.4449 17.788C50.3262 17.0285 51.4598 16.5547 52.7151 16.5547C54.0525 16.5547 55.2613 17.0839 56.1669 17.9341C57.161 18.0559 58.1507 18.202 59.1205 18.4057C60.046 17.416 61.3479 16.785 62.8092 16.785C65.4993 16.785 67.6735 18.8906 67.8307 21.5408C67.844 21.5453 67.8573 21.5519 67.8706 21.5585C67.8661 21.532 67.8617 21.5098 67.8617 21.4833C67.8617 18.6935 70.1223 16.4352 72.9076 16.4352C75.6973 16.4352 77.9535 18.6957 77.9535 21.4833C77.9535 23.6597 76.5653 25.4974 74.6324 26.2081C75.952 27.3617 77.1919 28.5993 78.3166 29.9411C79.0605 28.079 80.8717 26.7594 82.9994 26.7594C80.2141 26.7594 77.9535 24.4989 77.9535 21.7135C77.9535 18.9238 80.2141 16.6654 82.9994 16.6654C85.7891 16.6654 88.0497 18.926 88.0497 21.7135C88.0497 24.5011 85.7891 26.7594 82.9994 26.7594C85.7891 26.7594 88.0497 29.02 88.0497 31.8053C88.0497 34.5951 85.7891 36.8534 82.9994 36.8534C82.9308 36.8534 82.8621 36.8357 82.7957 36.8313C82.8001 36.8424 82.8046 36.8534 82.809 36.8623C82.84 36.8623 82.8621 36.8534 82.8953 36.8534C85.6807 36.8534 87.939 39.114 87.939 41.9016C87.939 43.5975 87.0955 45.0876 85.8113 46.0043C85.9397 46.7061 86.0504 47.4102 86.1345 48.1254C87.2615 49.0508 87.9899 50.4369 87.9899 52.0044C87.9899 53.5698 87.2659 54.9536 86.1434 55.8791C86.0637 56.6097 85.9397 57.3271 85.8179 58.0467C87.0645 58.9655 87.8925 60.4335 87.8925 62.1051C87.8925 64.8926 85.6319 67.151 82.8422 67.151C82.8378 67.1576 82.8378 67.1621 82.8333 67.1687C82.8887 67.1665 82.9463 67.151 83.0016 67.151C85.7914 67.151 88.0475 69.4116 88.0475 72.1947C88.0453 74.9866 85.7891 77.2472 82.9972 77.2472ZM98.0662 71.4906C98.1083 71.7452 98.1415 71.9998 98.1415 72.2655C98.1415 74.1873 97.0588 75.8368 95.4802 76.6893C94.7673 77.0745 93.9591 77.3136 93.0978 77.3136C90.3081 77.3136 88.0542 75.0531 88.0542 72.2655C88.0542 69.478 90.3125 67.2196 93.0978 67.2196C95.6175 67.2174 97.6899 69.0728 98.0662 71.4906ZM92.9362 67.2174C90.1465 67.2174 87.8903 64.9568 87.8903 62.1715C87.8903 59.3818 90.1509 57.1234 92.9362 57.1234C95.726 57.1234 97.9821 59.384 97.9821 62.1715C97.9843 64.959 95.726 67.2174 92.9362 67.2174Z" fill="#070707"/>
</svg>
