<svg width="11" height="12" viewBox="0 0 11 12" fill="none" xmlns="http://www.w3.org/2000/svg">
<path fill-rule="evenodd" clip-rule="evenodd" d="M3.32031 0.197071C3.37971 0.291159 3.39894 0.404732 3.37377 0.512838C3.34859 0.620945 3.28108 0.714743 3.18605 0.773627L0.929641 2.16897C0.83449 2.22788 0.719581 2.24699 0.610195 2.22208C0.500808 2.19716 0.405904 2.13028 0.346359 2.03613C0.286815 1.94199 0.267508 1.82829 0.292685 1.72006C0.317863 1.61183 0.385464 1.51793 0.480615 1.45902L2.73703 0.0636759C2.78417 0.0345098 2.83666 0.0148235 2.89149 0.00574258C2.94633 -0.0033383 3.00244 -0.00163562 3.05661 0.0107532C3.11078 0.023142 3.16196 0.0459741 3.2072 0.0779439C3.25245 0.109914 3.29088 0.150394 3.32031 0.197071ZM7.67969 0.197071C7.70912 0.150394 7.74755 0.109914 7.7928 0.0779439C7.83805 0.0459741 7.88922 0.023142 7.94339 0.0107532C7.99756 -0.00163562 8.05367 -0.0033383 8.10851 0.00574258C8.16334 0.0148235 8.21583 0.0345098 8.26297 0.0636759L10.5194 1.45902C10.6145 1.51793 10.6821 1.61183 10.7073 1.72006C10.7325 1.82829 10.7132 1.94199 10.6536 2.03613C10.5941 2.13028 10.4992 2.19716 10.3898 2.22208C10.2804 2.24699 10.1655 2.22788 10.0704 2.16897L7.81395 0.773627C7.71892 0.714743 7.65141 0.620945 7.62623 0.512838C7.60106 0.404732 7.62029 0.291159 7.67969 0.197071ZM5.5 1.95353C4.26572 1.95353 3.082 2.43866 2.20923 3.30219C1.33647 4.16573 0.846154 5.33694 0.846154 6.55816C0.846154 7.77939 1.33647 8.95059 2.20923 9.81413C3.082 10.6777 4.26572 11.1628 5.5 11.1628C6.73428 11.1628 7.918 10.6777 8.79077 9.81413C9.66353 8.95059 10.1538 7.77939 10.1538 6.55816C10.1538 5.33694 9.66353 4.16573 8.79077 3.30219C7.918 2.43866 6.73428 1.95353 5.5 1.95353ZM0 6.55816C0 3.55259 2.46231 1.11632 5.5 1.11632C8.53769 1.11632 11 3.55259 11 6.55816C11 9.56373 8.53769 12 5.5 12C2.46231 12 0 9.56373 0 6.55816ZM6.996 5.07798C7.03532 5.11686 7.0665 5.16301 7.08778 5.21382C7.10906 5.26462 7.12001 5.31908 7.12001 5.37407C7.12001 5.42907 7.10906 5.48352 7.08778 5.53433C7.0665 5.58513 7.03532 5.63129 6.996 5.67017L6.09795 6.55816L6.99487 7.44616C7.0696 7.52551 7.11029 7.63047 7.10836 7.73891C7.10642 7.84736 7.06202 7.95083 6.9845 8.02753C6.90699 8.10422 6.80241 8.14815 6.69281 8.15007C6.5832 8.15198 6.47712 8.11173 6.39692 8.03778L5.5 7.1509L4.60251 8.03834C4.52231 8.11228 4.41623 8.15254 4.30663 8.15063C4.19702 8.14871 4.09245 8.10478 4.01493 8.02808C3.93742 7.95139 3.89301 7.84792 3.89108 7.73947C3.88915 7.63103 3.92983 7.52607 4.00456 7.44672L4.90149 6.55928L4.00456 5.67072C3.963 5.6324 3.92966 5.58619 3.90653 5.53484C3.88341 5.48349 3.87098 5.42806 3.86997 5.37185C3.86897 5.31565 3.87942 5.25982 3.9007 5.20769C3.92198 5.15557 3.95365 5.10822 3.99382 5.06847C4.034 5.02872 4.08185 4.99739 4.13453 4.97633C4.18722 4.95528 4.24364 4.94494 4.30045 4.94593C4.35726 4.94692 4.41328 4.95923 4.46518 4.9821C4.51707 5.00498 4.56378 5.03797 4.60251 5.0791L5.5 5.96598L6.39749 5.07854C6.47681 5.00015 6.58435 4.95612 6.69646 4.95612C6.80858 4.95612 6.91611 5.00015 6.99544 5.07854" fill="#FBFBFB"/>
</svg>
