<svg width="14" height="11" viewBox="0 0 14 11" fill="none" xmlns="http://www.w3.org/2000/svg">
<path d="M4.9314 1.73684C5.58535 1.73684 6.21251 1.98083 6.67492 2.41512C7.13733 2.84942 7.3971 3.43845 7.3971 4.05263C7.3971 4.66682 7.13733 5.25585 6.67492 5.69014C6.21251 6.12444 5.58535 6.36842 4.9314 6.36842C4.27746 6.36842 3.6503 6.12444 3.18789 5.69014C2.72548 5.25585 2.4657 4.66682 2.4657 4.05263C2.4657 3.43845 2.72548 2.84942 3.18789 2.41512C3.6503 1.98083 4.27746 1.73684 4.9314 1.73684ZM4.9314 7.52632C6.57726 7.52632 9.86281 8.3021 9.86281 9.8421V11H0V9.8421C0 8.3021 3.28555 7.52632 4.9314 7.52632ZM9.71486 1.94526C10.96 3.21895 10.96 4.98474 9.71486 6.15421L8.67927 5.17579C9.19707 4.49263 9.19707 3.60684 8.67927 2.92368L9.71486 1.94526ZM11.7552 0C14.1778 2.34474 14.1593 5.85316 11.7552 8.10526L10.7505 7.16158C12.458 5.32053 12.458 2.69211 10.7505 0.943684L11.7552 0Z" fill="#FBFBFB"/>
</svg>
