<svg width="30" height="34" viewBox="0 0 30 34" fill="none" xmlns="http://www.w3.org/2000/svg">
<path d="M25 18.701H23.8667L20.5333 22.1008H23.7167L26.6667 25.5006H3.33333L6.3 22.1008H9.71667L6.38333 18.701H5L0 23.8007V30.6002C0 31.5019 0.351189 32.3666 0.976311 33.0042C1.60143 33.6418 2.44928 34 3.33333 34H26.6667C27.5507 34 28.3986 33.6418 29.0237 33.0042C29.6488 32.3666 30 31.5019 30 30.6002V23.8007L25 18.701ZM23.3333 10.1166L15.0833 18.531L9.16667 12.5134L17.4333 4.09901L23.3333 10.1166ZM16.2667 0.495248L5.65 11.3235C5.49549 11.4808 5.37291 11.6676 5.28928 11.8732C5.20564 12.0789 5.16259 12.2993 5.16259 12.5219C5.16259 12.7446 5.20564 12.965 5.28928 13.1707C5.37291 13.3763 5.49549 13.5631 5.65 13.7204L13.9 22.1008C14.55 22.7978 15.6 22.7978 16.25 22.1008L26.85 11.3235C27.0045 11.1663 27.1271 10.9795 27.2107 10.7738C27.2944 10.5682 27.3374 10.3477 27.3374 10.1251C27.3374 9.90247 27.2944 9.68202 27.2107 9.47638C27.1271 9.27074 27.0045 9.08395 26.85 8.92668L18.6 0.512247C18.4496 0.351781 18.2692 0.223756 18.0694 0.13577C17.8696 0.0477831 17.6545 0.00162774 17.4369 4.22825e-05C17.2192 -0.00154317 17.0035 0.0414736 16.8025 0.12654C16.6015 0.211606 16.4193 0.336989 16.2667 0.495248Z" fill="#FBFBFB"/>
</svg>
