<svg width="20" height="20" viewBox="0 0 20 20" fill="none" xmlns="http://www.w3.org/2000/svg">
<path d="M20 10C20 11.9778 19.4135 13.9112 18.3147 15.5557C17.2159 17.2002 15.6541 18.4819 13.8268 19.2388C11.9996 19.9957 9.98891 20.1937 8.0491 19.8078C6.10929 19.422 4.32746 18.4696 2.92894 17.0711C1.53041 15.6725 0.578004 13.8907 0.192152 11.9509C-0.1937 10.0111 0.00433284 8.00042 0.761209 6.17316C1.51809 4.3459 2.79981 2.78412 4.4443 1.6853C6.08879 0.58649 8.02219 0 10 0C11.3132 0 12.6136 0.258658 13.8268 0.761205C15.0401 1.26375 16.1425 2.00035 17.0711 2.92893C17.9997 3.85752 18.7362 4.95991 19.2388 6.17316C19.7413 7.38642 20 8.68678 20 10ZM16.3964 14.2541C16.3957 14.1485 16.3534 14.0473 16.2787 13.9726C16.204 13.8979 16.1029 13.8557 15.9972 13.855H15.5753V13.3573C15.575 13.2515 15.5329 13.15 15.4582 13.075C15.3834 13 15.2821 12.9576 15.1762 12.9569H14.7998V9.58444H15.0701C15.1963 9.57545 15.3144 9.51898 15.4006 9.42641C15.4868 9.33383 15.5348 9.21202 15.5348 9.08551C15.5348 8.959 15.4868 8.83719 15.4006 8.74461C15.3144 8.65204 15.1963 8.59557 15.0701 8.58658H4.89327C4.76708 8.59557 4.64898 8.65204 4.56276 8.74461C4.47654 8.83719 4.42861 8.959 4.42861 9.08551C4.42861 9.21202 4.47654 9.33383 4.56276 9.42641C4.64898 9.51898 4.76708 9.57545 4.89327 9.58444H5.17873V12.9569H4.75812C4.65203 12.9573 4.55038 12.9995 4.47536 13.0746C4.40034 13.1496 4.35805 13.2512 4.35772 13.3573V13.855H3.9371C3.83123 13.8553 3.72977 13.8974 3.65478 13.9722C3.5798 14.0469 3.53736 14.1483 3.5367 14.2541V14.7518H16.3976L16.3964 14.2541ZM5.18 7.75672H14.7998C14.7998 6.48089 14.293 5.25731 13.3908 4.35516C12.4887 3.45301 11.2651 2.94619 9.98927 2.94619C8.71343 2.94619 7.48986 3.45301 6.58771 4.35516C5.68556 5.25731 5.18 6.48089 5.18 7.75672ZM7.28433 10.1149V12.9569H6.28648V10.1149C6.29292 9.98679 6.34837 9.86602 6.44134 9.7776C6.53432 9.68919 6.65773 9.63988 6.78603 9.63988C6.91434 9.63988 7.03774 9.68919 7.13072 9.7776C7.2237 9.86602 7.27788 9.98679 7.28433 10.1149ZM9.41392 10.1225V12.9569H8.41481V10.1225C8.42125 9.99437 8.4767 9.8736 8.56968 9.78518C8.66266 9.69676 8.78606 9.64746 8.91436 9.64746C9.04267 9.64746 9.16608 9.69676 9.25905 9.78518C9.35203 9.8736 9.40748 9.99437 9.41392 10.1225ZM11.5435 10.1314V12.9569H10.5444V10.1314C10.5508 10.0032 10.6063 9.88244 10.6993 9.79402C10.7922 9.7056 10.9157 9.6563 11.044 9.6563C11.1723 9.6563 11.2957 9.7056 11.3886 9.79402C11.4816 9.88244 11.5371 10.0032 11.5435 10.1314ZM13.6731 10.1389V12.9569H12.6727V10.1402C12.6727 10.0075 12.7254 9.88032 12.8192 9.78651C12.913 9.69271 13.0403 9.64001 13.1729 9.64001C13.3056 9.64001 13.4328 9.69271 13.5266 9.78651C13.6204 9.88032 13.6731 10.0063 13.6731 10.1389Z" fill="#001744"/>
</svg>
