<svg width="20" height="20" viewBox="0 0 20 20" fill="none" xmlns="http://www.w3.org/2000/svg">
<circle cx="10" cy="10" r="10" fill="#001744"/>
<path d="M10.4398 13.7529L4.09339 8.36621L3.72095 8.80525L10.0681 14.1927L10.069 14.1934C10.7905 14.8005 11.7062 15.1346 12.6493 15.1348H16.7172V14.559H12.6493C11.8426 14.559 11.0568 14.2726 10.4398 13.7529Z" fill="#FBFBFB"/>
<path d="M8.8946 11.7L10.3194 12.899C10.2667 12.6341 10.1509 12.351 9.92212 12.0898C9.74488 11.8872 9.36436 11.4691 8.90661 10.957C8.89468 11.2043 8.88992 11.4542 8.8946 11.7Z" fill="#FBFBFB"/>
<path d="M7.3099 8.38139C7.06274 8.16101 6.84304 7.95706 6.66138 7.77539C6.83747 8.04766 7.00052 8.29493 7.24341 8.60193C7.26475 8.52925 7.28701 8.45582 7.3099 8.38139Z" fill="#FBFBFB"/>
<path d="M8.67892 9.54981C8.30867 9.24185 7.95493 8.94401 7.63466 8.66602C7.61194 8.77114 7.58925 8.87895 7.5675 8.9898C7.8181 9.27754 8.14087 9.62251 8.58053 10.0655C8.60966 9.89839 8.64219 9.72608 8.67892 9.54981Z" fill="#FBFBFB"/>
<path d="M12.1276 13.9353C12.1182 13.4725 12.0157 12.3265 11.2639 11.6917C10.5539 11.0922 9.75668 10.4429 9.00483 9.82129C8.98164 10.014 8.9603 10.2178 8.94226 10.4276C8.99156 10.4765 9.04118 10.5253 9.09307 10.5761C10.1116 11.5746 10.9047 12.3589 10.9959 13.4562C11.3349 13.697 11.7211 13.8598 12.1276 13.9353Z" fill="#FBFBFB"/>
<path d="M7.36353 10.4123L8.40987 11.2929C8.43394 11.0631 8.46596 10.7993 8.50872 10.5108C8.1795 10.1385 7.83148 9.73939 7.50159 9.34863C7.44184 9.69437 7.39224 10.0555 7.36353 10.4123Z" fill="#FBFBFB"/>
<path d="M7.15127 8.92827C6.63669 8.30111 6.20967 7.73387 6.04082 7.39005L6.18276 7.22006C6.18248 7.21985 6.1822 7.21947 6.1822 7.21947L6.35201 7.00921C6.35201 7.00921 6.7962 7.43507 7.43249 8.00251C7.53457 7.70142 7.6499 7.39366 7.78051 7.08743L8.02216 7.17865C8.02216 7.17865 7.88086 7.62015 7.72651 8.26237C8.04838 8.54438 8.40383 8.84812 8.76815 9.14502C8.83648 8.85519 8.91538 8.55888 9.00705 8.26219L9.24488 8.32535C9.24488 8.32535 9.1529 8.75579 9.06286 9.38181C9.45343 9.69147 9.84571 9.98417 10.2088 10.2246C11.7608 11.253 12.823 12.3287 12.934 13.9837C13.4616 13.9837 14.6359 13.9837 15.7093 13.9837C17.1486 13.9837 16.9327 12.5445 15.9971 12.3287C15.3661 12.1829 14.5553 11.8481 14.5553 11.8481C14.2354 11.7414 13.9736 11.5075 13.8319 11.2015C13.8319 11.2015 13.7969 11.1276 13.7383 11.0024L12.5631 11.3579C12.4346 11.3966 12.2991 11.324 12.2603 11.1957C12.2214 11.0673 12.294 10.9317 12.4224 10.8929L13.5296 10.5581C13.4343 10.3554 13.3239 10.1196 13.2075 9.87082L12.1094 10.203C11.9812 10.2417 11.8454 10.1692 11.8066 10.0408C11.7678 9.91239 11.8404 9.77694 11.9688 9.73802L12.9997 9.42624C12.89 9.1908 12.7808 8.9563 12.6799 8.73841L11.6557 9.04808C11.5274 9.087 11.3918 9.01432 11.3529 8.8859C11.3142 8.7577 11.3867 8.62204 11.515 8.5833L12.4744 8.2931C12.3369 7.99371 12.2369 7.77203 12.2105 7.70333C12.0948 7.40302 11.8414 6.57056 11.2629 7.03363C10.3118 7.79474 8.5769 7.57131 8.12902 6.73923C7.79321 6.11552 7.98505 5.4439 8.12902 4.91614C8.24396 4.49428 7.64906 3.83659 7.21728 4.41224C6.91199 4.81923 4.33862 7.86668 4.33862 7.86668L6.89388 10.017C6.95683 9.70597 7.04118 9.33411 7.15127 8.92827Z" fill="#FBFBFB"/>
</svg>
