<svg width="20" height="20" viewBox="0 0 20 20" fill="none" xmlns="http://www.w3.org/2000/svg">
<circle cx="10" cy="10" r="10" fill="#001744"/>
<g clip-path="url(#clip0_543_370)">
<path d="M9.11455 6.77499H8.78471C8.62076 6.77499 8.48788 6.64211 8.48788 6.47816C8.48788 6.31422 8.62076 6.18134 8.78471 6.18134H9.11455C9.2785 6.18134 9.41138 6.31422 9.41138 6.47816C9.41138 6.64211 9.2785 6.77499 9.11455 6.77499ZM10.2457 6.77499H10.5755C10.7394 6.77499 10.8723 6.64211 10.8723 6.47816C10.8723 6.31422 10.7394 6.18134 10.5755 6.18134H10.2457C10.0817 6.18134 9.94883 6.31422 9.94883 6.47816C9.94883 6.64211 10.0817 6.77499 10.2457 6.77499ZM7.34292 7.15694C7.4288 7.17112 7.51063 7.14692 7.57721 7.09052C7.64374 7.03412 7.67583 6.95131 7.67583 6.86411V6.37098C7.67583 6.35828 7.68232 6.34578 7.68077 6.33348C7.68232 6.32121 7.68678 6.30871 7.68678 6.29601C7.68678 5.20329 8.57759 4.31432 9.67027 4.31432C9.72334 4.31432 9.7769 4.3164 9.82895 4.32053C9.55382 4.74756 9.15445 5.0562 8.7043 5.18208C8.54642 5.22621 8.45447 5.38999 8.49863 5.54787C8.54279 5.70579 8.70677 5.79817 8.86452 5.75377C9.51606 5.57159 10.0827 5.10514 10.4335 4.4664C11.1494 4.76544 11.6538 5.47294 11.6538 6.29601C11.6538 7.14451 11.1202 7.88255 10.3346 8.15953C10.2412 8.08067 10.1206 8.02823 9.9891 8.02823H9.35524C9.05937 8.02823 8.81868 8.27654 8.81868 8.57241C8.81868 8.86828 9.05937 9.1166 9.35524 9.1166H9.9891C10.229 9.1166 10.4327 8.95545 10.5011 8.73775C11.2661 8.47914 11.8448 7.8812 12.1002 7.13956C12.445 7.05586 12.6559 6.84092 12.6559 6.57767V5.9198C12.6559 5.64665 12.4284 5.42697 12.0609 5.35038C11.6831 4.39684 10.7551 3.7207 9.66872 3.7207C8.58098 3.7207 7.64812 4.39866 7.27132 5.35411C6.91384 5.43392 6.68643 5.65097 6.68643 5.91977V6.5777C6.6864 6.86364 6.94537 7.09098 7.34292 7.15694ZM10.8902 10.4489C11.2968 10.4805 11.6986 10.647 11.9872 10.9076C12.1088 11.0173 12.2965 11.0078 12.4064 10.8861C12.5163 10.7645 12.5067 10.573 12.385 10.4632C11.9569 10.0767 11.3454 9.84221 10.7492 9.84221H10.7084C10.5817 9.84221 10.4689 9.92644 10.4277 10.0464C10.3578 10.2499 10.0785 10.4579 9.6801 10.4579C9.2817 10.4579 9.00248 10.249 8.93259 10.0455C8.8914 9.92552 8.77861 9.84221 8.65183 9.84221H8.61103C7.60178 9.84221 6.6584 10.4745 6.46332 11.2771L5.59164 14.8642C5.58771 14.8788 5.58484 14.8949 5.58319 14.9103C5.57914 14.9472 5.58214 14.9841 5.59124 15.0185C5.59929 15.0492 5.61212 15.0781 5.6289 15.104C5.66393 15.1583 5.71653 15.2014 5.78111 15.2237C5.7917 15.2273 5.80255 15.2305 5.81366 15.233C5.8354 15.2378 5.8571 15.2457 5.87854 15.2457C5.8815 15.2457 5.88444 15.2511 5.88738 15.2511H7.66913C7.83308 15.2511 7.96596 15.1182 7.96596 14.9542C7.96596 14.7903 7.83308 14.6574 7.66913 14.6574H6.256L7.04012 11.4265C7.16057 10.9311 7.7972 10.5047 8.47004 10.4517C8.69929 10.8161 9.16494 11.0548 9.68004 11.0548C10.1952 11.0548 10.6609 10.8133 10.8902 10.4489ZM15.2944 13.449C15.2944 13.6548 15.1997 13.8505 15.0396 13.9787C15.0317 13.9859 15.0234 13.9926 15.0146 13.9989L14.2817 14.5292L14.5629 15.3893C14.6191 15.5622 14.6047 15.7461 14.5224 15.9076C14.4402 16.0692 14.2999 16.1891 14.1274 16.2451C14.0578 16.2678 13.9866 16.2788 13.9161 16.2788C13.7618 16.2788 13.611 16.2259 13.4875 16.1247L12.787 15.6137L12.0554 16.1473C11.9089 16.254 11.7299 16.2972 11.551 16.2691C11.3722 16.2409 11.215 16.1448 11.1084 15.9985C10.9877 15.8327 10.9489 15.6197 11.0022 15.4225C11.0044 15.4113 11.0074 15.4002 11.011 15.3892L11.2923 14.5292L10.5593 13.9989C10.4123 13.8924 10.3157 13.7352 10.2871 13.556C10.2585 13.3769 10.3014 13.1975 10.4078 13.0506C10.5442 12.8623 10.7622 12.7579 10.9948 12.7711L11.8634 12.7728L12.1412 11.912C12.2555 11.5564 12.638 11.3597 12.9943 11.474C13.2018 11.5406 13.3656 11.7042 13.4326 11.9118L13.4327 11.9122L13.4327 11.9123L13.4329 11.9129C13.4333 11.914 13.4336 11.915 13.4339 11.916L13.7104 12.7728L14.6158 12.771C14.9903 12.771 15.2944 13.0752 15.2944 13.449ZM14.7008 13.4501C14.7008 13.4036 14.663 13.3668 14.6164 13.3668L13.4951 13.3712C13.4949 13.3712 13.4947 13.3712 13.4945 13.3712C13.3657 13.3712 13.2516 13.286 13.2121 13.1634L12.8682 12.0961C12.8679 12.0952 12.8676 12.0945 12.8674 12.0936C12.8631 12.0806 12.8495 12.0516 12.813 12.0398C12.7683 12.0256 12.7206 12.0507 12.7064 12.0951L12.3619 13.1633C12.3224 13.2859 12.2082 13.3712 12.0795 13.3712C12.0793 13.3712 12.0791 13.3712 12.0789 13.3712L10.9848 13.3669C10.9779 13.3669 10.971 13.3645 10.9642 13.3639C10.9343 13.362 10.906 13.3748 10.8887 13.3989C10.8715 13.4226 10.8709 13.4465 10.8734 13.4625C10.876 13.4784 10.884 13.501 10.9076 13.5181L11.8158 14.1752C11.9204 14.2509 11.9641 14.3853 11.9239 14.508L11.5831 15.55C11.5812 15.5578 11.5791 15.5657 11.5765 15.5735C11.5725 15.5859 11.5657 15.6179 11.5885 15.6492C11.6054 15.6724 11.6277 15.6802 11.6433 15.6827C11.6591 15.6851 11.6826 15.6846 11.7059 15.6676L12.6121 15.0066C12.6642 14.9685 12.7256 14.9496 12.787 14.9496C12.8485 14.9496 12.9098 14.9685 12.962 15.0066L13.8451 15.6508C13.851 15.6551 13.8567 15.6596 13.8623 15.6643C13.8708 15.6716 13.9019 15.6942 13.944 15.6806C13.9717 15.6716 13.9861 15.6526 13.9935 15.6383C14.0008 15.624 14.0076 15.6011 13.9985 15.5733L13.6501 14.508C13.61 14.3853 13.6537 14.2509 13.7583 14.1752L14.6474 13.5319C14.6532 13.5269 14.6593 13.5221 14.6657 13.5175C14.6762 13.5098 14.7008 13.4889 14.7008 13.4501Z" fill="#FBFBFB"/>
</g>
<defs>
<clipPath id="clip0_543_370">
<rect width="12.5581" height="12.5581" fill="white" transform="translate(3.25586 3.7207)"/>
</clipPath>
</defs>
</svg>
