<svg width="20" height="20" viewBox="0 0 20 20" fill="none" xmlns="http://www.w3.org/2000/svg">
<circle cx="10" cy="10" r="10" fill="#474747"/>
<path d="M12.1858 3.7207H7.84487C7.36605 3.7207 6.97668 4.1101 6.97668 4.5889C6.97668 4.99219 7.25452 5.32926 7.62783 5.4263V10.6794H7.84487C8.4817 10.7339 9.04972 10.972 9.50659 11.3688C10.2085 12.0701 11.2484 12.6689 12.0947 12.2774L12.4029 12.1176V5.4263C12.7762 5.32929 13.054 4.99219 13.054 4.5889C13.054 4.1101 12.6647 3.7207 12.1858 3.7207ZM10.0154 10.2323H8.71306C8.59326 10.2323 8.49602 10.135 8.49602 10.0152C8.49602 9.89542 8.59326 9.79818 8.71306 9.79818H10.0154C10.1352 9.79818 10.2324 9.89542 10.2324 10.0152C10.2324 10.135 10.1352 10.2323 10.0154 10.2323ZM8.49602 9.147C8.49602 9.0272 8.59326 8.92996 8.71306 8.92996H9.3642C9.48401 8.92996 9.58125 9.0272 9.58125 9.147C9.58125 9.2668 9.48401 9.36404 9.3642 9.36404H8.71306C8.59326 9.36407 8.49602 9.26683 8.49602 9.147ZM10.0154 8.49584H8.71306C8.59326 8.49584 8.49602 8.3986 8.49602 8.2788C8.49602 8.159 8.59326 8.06176 8.71306 8.06176H10.0154C10.1352 8.06176 10.2324 8.159 10.2324 8.2788C10.2324 8.3986 10.1352 8.49584 10.0154 8.49584ZM8.49602 7.4106C8.49602 7.2908 8.59326 7.19355 8.71306 7.19355H9.3642C9.48401 7.19355 9.58125 7.2908 9.58125 7.4106C9.58125 7.5304 9.48401 7.62764 9.3642 7.62764H8.71306C8.59326 7.62764 8.49602 7.5304 8.49602 7.4106ZM12.1858 5.02302H7.84487C7.60547 5.02302 7.41077 4.82833 7.41077 4.5889C7.41077 4.3495 7.60545 4.15479 7.84487 4.15479H12.1859C12.4253 4.15479 12.62 4.34948 12.62 4.5889C12.6199 4.82833 12.4253 5.02302 12.1858 5.02302Z" fill="#FBFBFB"/>
<path d="M11.5214 12.8332C10.6775 12.8332 9.81885 12.2947 9.21089 11.6867C8.83496 11.3607 8.35224 11.1589 7.82634 11.1133H7.62817V14.3569C7.62817 15.6733 8.69911 16.7445 10.0157 16.7445C11.3321 16.7445 12.403 15.6733 12.403 14.3569V12.6068L12.2858 12.6676C12.0375 12.7824 11.7801 12.8332 11.5214 12.8332Z" fill="#FBFBFB"/>
</svg>
