<svg width="20" height="20" viewBox="0 0 20 20" fill="none" xmlns="http://www.w3.org/2000/svg">
<circle cx="10" cy="10" r="10" fill="#474747"/>
<g clip-path="url(#clip0_543_347)">
<path d="M3.72095 14.0257V6.43848H16.7442V14.0257H3.72095ZM4.5349 7.25537V13.1827H15.9302V7.25537H4.5349ZM12.2675 10.2321C12.2675 8.83561 11.3566 7.70301 10.2326 7.70301H15.5233V12.7612H10.2326C11.3566 12.7612 12.2675 11.6285 12.2675 10.2321ZM13.8954 11.0751C14.2323 11.0751 14.5058 10.6974 14.5058 10.2321C14.5058 9.76673 14.2323 9.38906 13.8954 9.38906C13.5584 9.38906 13.2849 9.76673 13.2849 10.2321C13.2849 10.6974 13.5584 11.0751 13.8954 11.0751ZM11.0946 9.16903C11.0884 9.19221 11.0799 9.20865 11.0693 9.21919C11.0583 9.22973 11.0437 9.23478 11.025 9.23478C11.0062 9.23478 10.9769 9.22298 10.9358 9.19853C10.8951 9.17367 10.8451 9.14753 10.7861 9.11887C10.7266 9.09021 10.6583 9.06407 10.5801 9.04005C10.502 9.01602 10.4165 9.00506 10.3233 9.00506C10.2501 9.00506 10.1866 9.01391 10.1325 9.03246C10.0783 9.05101 10.0327 9.0763 9.99653 9.10833C9.9599 9.14079 9.93304 9.17999 9.91513 9.22509C9.89723 9.27019 9.88868 9.31867 9.88868 9.36925C9.88868 9.44512 9.90862 9.51045 9.94851 9.56567C9.98839 9.62089 10.0417 9.67021 10.1089 9.7132C10.176 9.75662 10.2517 9.79666 10.3368 9.83417C10.421 9.87211 10.5077 9.91215 10.596 9.95388C10.6843 9.99646 10.7706 10.0441 10.8552 10.0976C10.9399 10.1512 11.016 10.2152 11.0819 10.2898C11.1479 10.3644 11.2012 10.4521 11.2423 10.5529C11.283 10.654 11.3029 10.7725 11.3029 10.9099C11.3029 11.089 11.2712 11.2458 11.2069 11.3811C11.1426 11.5164 11.0551 11.629 10.9444 11.7192C10.8341 11.8098 10.7055 11.8777 10.5582 11.9232C10.5394 11.9291 10.5191 11.9316 10.5 11.9363V12.3965H10.0999V11.9906C10.0946 11.9906 10.0901 11.9915 10.0852 11.9915C9.9717 11.9915 9.86589 11.9822 9.76862 11.9632C9.67135 11.9443 9.58507 11.9207 9.5106 11.8941C9.43571 11.8671 9.37385 11.8389 9.3238 11.8094C9.27374 11.7799 9.23792 11.7537 9.21595 11.731C9.19397 11.7082 9.1781 11.6753 9.16874 11.6323C9.15938 11.5889 9.15449 11.5274 9.15449 11.4465C9.15449 11.3921 9.15612 11.3466 9.15978 11.3095C9.16345 11.2724 9.16874 11.2429 9.17647 11.2197C9.1842 11.1965 9.19397 11.1805 9.20699 11.1708C9.21961 11.1615 9.23426 11.1565 9.25135 11.1565C9.27496 11.1565 9.30833 11.1708 9.35188 11.1999C9.39542 11.229 9.45077 11.261 9.51833 11.296C9.5863 11.3314 9.66688 11.363 9.7613 11.3925C9.85531 11.4212 9.96438 11.4359 10.0881 11.4359C10.1695 11.4359 10.2423 11.4258 10.3066 11.4056C10.3709 11.3853 10.4259 11.3571 10.4707 11.32C10.5154 11.2829 10.5496 11.2374 10.5736 11.183C10.5976 11.1282 10.6094 11.0679 10.6094 11.0005C10.6094 10.9234 10.5887 10.8572 10.5484 10.8015C10.5077 10.7463 10.4548 10.6974 10.3893 10.654C10.3241 10.611 10.2501 10.571 10.1671 10.533C10.084 10.4951 9.99856 10.4551 9.91025 10.4133C9.82234 10.3712 9.73647 10.3235 9.65345 10.2696C9.57042 10.2156 9.49635 10.1524 9.43124 10.0778C9.36612 10.0032 9.31281 9.91468 9.27252 9.8131C9.23223 9.71151 9.21147 9.58928 9.21147 9.44723C9.21147 9.28368 9.24077 9.14037 9.29897 9.01686C9.35717 8.89336 9.43612 8.79051 9.53542 8.70916C9.63473 8.62781 9.75153 8.56669 9.88624 8.52622C9.95542 8.50515 10.0271 8.4904 10.1003 8.48028V8.04444H10.5004V8.48028C10.5162 8.48239 10.5321 8.48154 10.548 8.48407C10.6257 8.4963 10.699 8.51274 10.7665 8.53381C10.8345 8.55446 10.8943 8.57765 10.9472 8.6042C10.9997 8.63034 11.0343 8.65183 11.0514 8.66954C11.0685 8.68724 11.0795 8.70157 11.086 8.7138C11.0917 8.72602 11.0966 8.74246 11.1011 8.76269C11.1055 8.78292 11.1084 8.80821 11.1096 8.83941C11.1112 8.86976 11.1121 8.90811 11.1121 8.95364C11.1121 9.00464 11.1108 9.04805 11.1084 9.08346C11.1047 9.11676 11.1007 9.14627 11.0946 9.16903ZM8.19769 10.2321C8.19769 11.6285 9.10851 12.7612 10.2326 12.7612H4.94188V7.70301H10.2326C9.10851 7.70301 8.19769 8.83561 8.19769 10.2321ZM6.56978 9.38906C6.2324 9.38906 5.95932 9.76673 5.95932 10.2321C5.95932 10.6974 6.2324 11.0751 6.56978 11.0751C6.90676 11.0751 7.18025 10.6974 7.18025 10.2321C7.18025 9.76673 6.90676 9.38906 6.56978 9.38906Z" fill="#FBFBFB"/>
</g>
<defs>
<clipPath id="clip0_543_347">
<rect width="13.0233" height="13.4884" fill="white" transform="translate(3.72095 3.48828)"/>
</clipPath>
</defs>
</svg>
