<svg width="20" height="20" viewBox="0 0 20 20" fill="none" xmlns="http://www.w3.org/2000/svg">
<circle cx="10" cy="10" r="10" fill="#474747"/>
<path d="M11.9922 12.2451C12.4998 12.2451 12.9112 12.6961 12.9112 13.2524V14.4047L12.9071 14.4672C12.7439 15.691 11.7409 16.2795 10.0579 16.2795C8.38101 16.2795 7.36204 15.6978 7.14208 14.488L7.13448 14.4036V13.2524C7.13448 12.6961 7.54595 12.2451 8.05351 12.2451H11.9922ZM12.2516 8.79136L15.4057 8.79141C15.9133 8.79141 16.3248 9.2424 16.3248 9.79873V10.9511L16.3206 11.0135C16.1574 12.2374 15.1545 12.8259 13.4715 12.8259L13.3831 12.825C13.2211 12.1901 12.707 11.7164 12.0861 11.6728L11.9922 11.6695L11.5079 11.6699C12.0436 11.195 12.3861 10.4688 12.3861 9.65482C12.3861 9.35206 12.3387 9.06143 12.2516 8.79136ZM4.63998 8.79141L7.79413 8.79136C7.70704 9.06143 7.65964 9.35206 7.65964 9.65482C7.65964 10.4209 7.96305 11.1093 8.44534 11.5835L8.53783 11.6699L8.05351 11.6695C7.39065 11.6695 6.8321 12.1589 6.6623 12.8261L6.6444 12.8259C4.96747 12.8259 3.9485 12.2441 3.72854 11.0343L3.72095 10.9499V9.79873C3.72095 9.2424 4.13241 8.79141 4.63998 8.79141ZM10.0229 7.64019C11.038 7.64019 11.8609 8.54217 11.8609 9.65482C11.8609 10.7675 11.038 11.6695 10.0229 11.6695C9.00773 11.6695 8.1848 10.7675 8.1848 9.65482C8.1848 8.54217 9.00773 7.64019 10.0229 7.64019ZM13.4364 4.18652C14.4515 4.18652 15.2745 5.08851 15.2745 6.20116C15.2745 7.31381 14.4515 8.2158 13.4364 8.2158C12.4213 8.2158 11.5983 7.31381 11.5983 6.20116C11.5983 5.08851 12.4213 4.18652 13.4364 4.18652ZM6.60932 4.18652C7.62446 4.18652 8.44738 5.08851 8.44738 6.20116C8.44738 7.31381 7.62446 8.2158 6.60932 8.2158C5.59419 8.2158 4.77127 7.31381 4.77127 6.20116C4.77127 5.08851 5.59419 4.18652 6.60932 4.18652Z" fill="#FBFBFB"/>
</svg>
