<svg width="20" height="20" viewBox="0 0 20 20" fill="none" xmlns="http://www.w3.org/2000/svg">
<circle cx="10" cy="10" r="10" fill="#474747"/>
<path d="M12.0254 9.59455C11.802 9.59455 11.6203 9.41287 11.6203 9.18945H11.2152C11.2152 9.63628 11.5786 9.99966 12.0254 9.99966C12.4722 9.99966 12.8356 9.63628 12.8356 9.18945H12.4305C12.4305 9.41287 12.2488 9.59455 12.0254 9.59455Z" fill="#FBFBFB"/>
<path d="M15.2842 11.7678L13.0227 11.0611C13.0091 10.9732 12.9868 10.8886 12.9522 10.8096C13.6214 10.5043 14.0926 9.89141 14.2187 9.17256C14.6972 9.09194 15.0638 8.67772 15.0638 8.17682V6.75896C15.0638 5.08367 13.7008 3.7207 12.0255 3.7207C11.3849 3.7207 10.791 3.92123 10.3004 4.26091C9.65123 3.90847 8.92062 3.7207 8.17706 3.7207C5.71992 3.7207 3.72095 5.71968 3.72095 8.17682C3.72095 10.529 5.55342 12.4604 7.86574 12.6208C7.8068 12.7778 7.77196 12.9457 7.77196 13.1213V14.4559C7.77196 15.0143 8.22628 15.4686 8.78471 15.4686H8.98726V16.2788H16.2791V13.1213C16.2791 12.4978 15.8793 11.9538 15.2842 11.7678ZM15.874 13.1213V14.4559H15.0638V13.038H14.6587V15.8737H12.5959C12.6186 15.8101 12.6332 15.7425 12.6332 15.6712V13.4431H13.0383V12.2278H12.7298L12.9658 11.6376C12.986 11.587 12.9996 11.5347 13.0113 11.4822L15.163 12.1547C15.5884 12.2874 15.874 12.6759 15.874 13.1213ZM8.98726 13.038V13.4431H8.17706V13.1213C8.17706 12.6759 8.46266 12.2874 8.88781 12.1547L11.0395 11.4822C11.0513 11.5349 11.0648 11.5872 11.0851 11.6378L11.3213 12.2278H11.0128V13.4431H11.4179V13.877C11.3527 13.86 11.2856 13.8482 11.2153 13.8482H9.39237V13.038H8.98726ZM12.6332 11.2151V11.2615C12.6332 11.339 12.6186 11.415 12.5896 11.4871L12.2935 12.2278H11.7578L11.4616 11.4873C11.4325 11.4152 11.4179 11.3392 11.4179 11.2615V11.2151C11.4179 10.8801 11.6905 10.6074 12.0255 10.6074C12.3605 10.6074 12.6332 10.8801 12.6332 11.2151ZM11.4179 13.038V12.6329H12.6332V13.038H11.4179ZM11.823 15.6712V15.1887C11.9475 15.0463 12.0255 14.8622 12.0255 14.6584C12.0255 14.4547 11.9475 14.2708 11.823 14.1282V13.4431H12.2281V15.6712C12.2281 15.7828 12.1371 15.8737 12.0255 15.8737C11.9139 15.8737 11.823 15.7828 11.823 15.6712ZM12.7103 10.4737C12.5297 10.3068 12.2903 10.2023 12.0255 10.2023C11.7608 10.2023 11.5214 10.3068 11.3407 10.4737C10.6553 10.1967 10.2026 9.53289 10.2026 8.78447V8.7472C10.2662 8.76989 10.3338 8.78447 10.4051 8.78447H11.2153C11.479 8.78447 11.7018 8.61453 11.7857 8.37937H12.2655C12.3494 8.61453 12.5722 8.78447 12.8359 8.78447H13.6461C13.7174 8.78447 13.7851 8.76989 13.8487 8.7472V8.78447C13.8485 9.5331 13.3956 10.1967 12.7103 10.4737ZM9.39237 8.17682C9.39237 7.9131 9.56231 7.69029 9.79747 7.60643V8.17682V8.7472C9.56231 8.66334 9.39237 8.44054 9.39237 8.17682ZM13.8485 8.17682C13.8485 8.28842 13.7575 8.37937 13.6459 8.37937H12.8357C12.7241 8.37937 12.6332 8.28842 12.6332 8.17682V7.97427H13.8485V8.17682ZM13.8485 7.56917H12.2281V7.97427H11.823V7.56917H10.2026V7.16406H13.8485V7.56917ZM11.4179 7.97427V8.17682C11.4179 8.28842 11.3269 8.37937 11.2153 8.37937H10.4051C10.2935 8.37937 10.2026 8.28842 10.2026 8.17682V7.97427H11.4179ZM14.2536 8.7472V8.17682V7.60643C14.4887 7.69029 14.6587 7.9131 14.6587 8.17682C14.6587 8.44054 14.4887 8.66334 14.2536 8.7472ZM14.6587 6.75896V7.37188C14.5404 7.28235 14.4041 7.21531 14.2536 7.18472V6.75896H9.79747V7.18452C9.64697 7.21531 9.51065 7.28215 9.39237 7.37168V6.75896C9.39237 5.30708 10.5736 4.1258 12.0255 4.1258C13.4774 4.1258 14.6587 5.30708 14.6587 6.75896ZM9.9587 4.5384C9.36279 5.09339 8.98726 5.88232 8.98726 6.75896V7.14604C8.75514 7.0873 8.58216 6.87826 8.58216 6.62811C8.58216 6.13187 8.30649 5.68565 7.8625 5.46365C7.55685 5.31093 7.36686 5.00346 7.36686 4.66175C7.36686 4.49323 7.41405 4.33139 7.49933 4.18718C7.72031 4.14971 7.94575 4.1258 8.17706 4.1258C8.79687 4.1258 9.40695 4.2682 9.9587 4.5384ZM4.12605 8.17682C4.12605 6.88292 4.73816 5.73163 5.68528 4.98948L6.50116 6.07718C6.66745 6.29897 6.75921 6.57403 6.75921 6.85153C6.75921 7.24569 6.58258 7.61312 6.27491 7.85942L6.139 7.96819C5.88945 8.1675 5.74645 8.46505 5.74645 8.78447C5.74645 9.23514 6.03367 9.63376 6.46125 9.77636L7.06405 9.97729C7.36645 10.0782 7.56941 10.3599 7.56941 10.6785C7.56941 11.0861 7.23783 11.4176 6.8303 11.4176H5.75678C4.76915 10.6781 4.12605 9.50271 4.12605 8.17682ZM6.42297 11.8227H6.8303C7.46125 11.8227 7.97451 11.3095 7.97451 10.6785C7.97451 10.1851 7.66015 9.74902 7.19226 9.59305L6.58947 9.39212C6.32757 9.30482 6.15155 9.06075 6.15155 8.78447C6.15155 8.58881 6.23926 8.40651 6.39198 8.28437L6.52789 8.1756C6.93239 7.85213 7.16431 7.36945 7.16431 6.85153C7.16431 6.48694 7.04379 6.12579 6.82524 5.83412L6.01666 4.75594C6.32433 4.56088 6.65854 4.40451 7.01483 4.29757C6.9814 4.41545 6.96176 4.53718 6.96176 4.66175C6.96176 5.158 7.23743 5.60422 7.68142 5.82622C7.98707 5.97894 8.17706 6.28641 8.17706 6.62811C8.17706 7.10229 8.53071 7.49159 8.98726 7.556V8.17682C8.98726 8.67529 9.35003 9.08829 9.8321 9.17195C9.95809 9.89121 10.4294 10.5043 11.0989 10.8098C11.0642 10.8888 11.0419 10.9734 11.0284 11.0613L8.76689 11.768C8.49466 11.8531 8.26639 12.0156 8.09543 12.2238C7.4969 12.2116 6.93137 12.0684 6.42297 11.8227ZM8.17706 14.4559V13.8482H8.98726V14.2533H11.2153C11.4387 14.2533 11.6204 14.435 11.6204 14.6584C11.6204 14.8819 11.4387 15.0635 11.2153 15.0635H8.78471C8.44969 15.0635 8.17706 14.7909 8.17706 14.4559ZM9.39237 15.4686H11.2153C11.2856 15.4686 11.3527 15.4569 11.4179 15.4399V15.6712C11.4179 15.7425 11.4325 15.8101 11.4551 15.8737H9.39237V15.4686ZM15.0638 15.8737V14.861H15.874V15.8737H15.0638Z" fill="#FBFBFB"/>
<path d="M5.5439 6.55664H5.13879V6.96174H5.5439V6.55664Z" fill="#FBFBFB"/>
<path d="M6.3542 10.4053H5.9491V10.8104H6.3542V10.4053Z" fill="#FBFBFB"/>
</svg>
