<svg width="20" height="20" viewBox="0 0 20 20" fill="none" xmlns="http://www.w3.org/2000/svg">
<circle cx="10" cy="10" r="10" fill="#474747"/>
<g clip-path="url(#clip0_1215_398)">
<path d="M6.54602 15.1942C7.57136 15.8793 8.77684 16.245 10.01 16.245C11.6636 16.245 13.2495 15.5881 14.4188 14.4188C15.5881 13.2495 16.245 11.6636 16.245 10.01C16.245 8.77684 15.8793 7.57136 15.1942 6.54602C14.5091 5.52068 13.5353 4.72153 12.396 4.24961C11.2567 3.7777 10.0031 3.65423 8.79361 3.89481C7.58414 4.13539 6.47317 4.72921 5.60119 5.60119C4.72921 6.47317 4.13539 7.58414 3.89481 8.79361C3.65423 10.0031 3.7777 11.2567 4.24961 12.396C4.72153 13.5353 5.52068 14.5091 6.54602 15.1942ZM6.94442 5.42203C7.85183 4.81572 8.91866 4.4921 10.01 4.4921C10.7346 4.4921 11.4521 4.63482 12.1216 4.91212C12.7911 5.18942 13.3994 5.59587 13.9117 6.10825C14.4241 6.62064 14.8306 7.22893 15.1079 7.89839C15.3852 8.56785 15.5279 9.28538 15.5279 10.01C15.5279 11.1013 15.2043 12.1682 14.598 13.0756C13.9917 13.983 13.1299 14.6902 12.1216 15.1079C11.1133 15.5255 10.0039 15.6348 8.93351 15.4219C7.86314 15.209 6.87995 14.6834 6.10825 13.9118C5.33656 13.1401 4.81103 12.1569 4.59812 11.0865C4.38521 10.0161 4.49448 8.90666 4.91212 7.89839C5.32976 6.89012 6.037 6.02835 6.94442 5.42203Z" fill="#FBFBFB" stroke="#FBFBFB" stroke-width="0.2"/>
<path d="M4.21631 9.64195H4.11631V9.74195V10.2582V10.3582H4.21631H15.7794H15.8794V10.2582V9.74195V9.64195H15.7794H4.21631ZM4.83805 6.87377L4.80841 6.97228L4.90773 6.99912C6.61336 7.45991 8.37322 7.68916 10.14 7.6807C11.8068 7.69143 13.4665 7.46171 15.0678 6.99864L15.1642 6.97079L15.136 6.87455L14.9917 6.38017L14.9635 6.28367L14.8671 6.31236C12.4448 7.03364 10.0176 7.03419 8.1877 6.85338C7.2732 6.76301 6.50901 6.62747 5.9707 6.51459C5.70158 6.45815 5.48893 6.40739 5.34217 6.37075C5.2699 6.35272 5.21357 6.3381 5.17406 6.32784L5.17222 6.32737L5.12537 6.31532L5.11017 6.31166L5.10245 6.31008L5.10238 6.31006C5.10148 6.30989 5.09275 6.3082 5.08256 6.3082H5.00822L4.9868 6.37939L4.83805 6.87377ZM4.99992 13.4895L5.02865 13.585L5.12422 13.5565C7.5467 12.8352 9.97283 12.8304 11.8016 13.009C12.7155 13.0982 13.4791 13.2332 14.0168 13.3469C14.2857 13.4037 14.498 13.4552 14.6443 13.4929C14.7174 13.5118 14.774 13.5272 14.8129 13.5381C14.8433 13.5467 14.8608 13.5519 14.8673 13.5538C14.8697 13.5545 14.8706 13.5548 14.8703 13.5547L14.9697 13.5908L15.0002 13.4895L15.1489 12.9951L15.1778 12.8991L15.0817 12.8705C14.8722 12.8081 9.97895 11.3655 4.91843 12.8705L4.82227 12.8991L4.85117 12.9951L4.99992 13.4895Z" fill="#FBFBFB" stroke="#FBFBFB" stroke-width="0.2"/>
<path d="M7.926 15.621L7.96504 15.7134L8.05729 15.6741L8.52979 15.4728L8.6216 15.4337L8.58269 15.3418C7.13258 11.9172 7.01785 8.07364 8.2611 4.56863L8.29252 4.48003L8.20604 4.44319L7.73354 4.24194L7.63582 4.20032L7.60016 4.30036C6.28772 7.98164 6.404 12.0213 7.926 15.621ZM11.9033 15.6741L11.9956 15.7134L12.0346 15.621C13.555 12.0225 13.6713 7.98478 12.3604 4.30476L12.3248 4.20469L12.227 4.24632L11.7545 4.44757L11.6681 4.4844L11.6995 4.57298C12.9416 8.07669 12.8269 11.9185 11.3779 15.3418L11.339 15.4337L11.4308 15.4728L11.9033 15.6741ZM9.74185 4.11582H9.64185V4.21582V15.9933V16.0933H9.74185H10.2581H10.3581V15.9933V4.21582V4.11582H10.2581H9.74185Z" fill="#FBFBFB" stroke="#FBFBFB" stroke-width="0.2"/>
</g>
<defs>
<clipPath id="clip0_1215_398">
<rect width="14" height="14" fill="white" transform="translate(3 3)"/>
</clipPath>
</defs>
</svg>
