<svg width="20" height="20" viewBox="0 0 20 20" fill="none" xmlns="http://www.w3.org/2000/svg">
<circle cx="10" cy="10" r="10" fill="#474747"/>
<path d="M16.7068 8.07557C16.3874 7.81266 15.9753 7.71428 15.5755 7.80583L12.9066 8.41723V7.59034C12.9066 7.13935 12.5838 6.76436 12.1632 6.69599C12.3757 6.35791 12.4996 5.95581 12.4996 5.52429C12.4996 4.3296 11.5533 3.35765 10.3901 3.35765C10.061 3.35765 9.74921 3.4356 9.47128 3.57431C8.99474 2.79788 8.17004 2.3252 7.26315 2.3252C5.82289 2.32522 4.65112 3.52876 4.65112 5.00808C4.65112 5.76775 4.96061 6.45411 5.45629 6.94269C5.29218 7.10725 5.19 7.33673 5.19 7.59031V13.2167C5.19 13.7161 5.58551 14.1223 6.07167 14.1223H7.38329C7.33924 14.1978 7.31343 14.2858 7.31343 14.3802C7.31343 14.6581 7.53274 14.8833 7.80325 14.8833H10.2031C10.4736 14.8833 10.6929 14.6581 10.6929 14.3802C10.6929 14.2858 10.6671 14.1978 10.6231 14.1223H12.0249C12.511 14.1223 12.9065 13.7161 12.9065 13.2167V12.3898L15.5536 13.0441C15.6588 13.0701 15.765 13.0829 15.8704 13.0829C16.1677 13.0829 16.458 12.981 16.6979 12.7868C17.0229 12.5238 17.2093 12.1293 17.2093 11.7044V9.15077C17.2093 8.73042 17.0262 8.33852 16.7068 8.07557ZM10.3902 4.36383C11.0131 4.36383 11.52 4.88441 11.52 5.52429C11.52 6.16418 11.0132 6.68475 10.3902 6.68475C9.76716 6.68475 9.2603 6.16418 9.2603 5.52429C9.2603 4.88441 9.76714 4.36383 10.3902 4.36383ZM5.63076 5.00808C5.63076 4.08354 6.36306 3.3314 7.2632 3.3314C7.87159 3.3314 8.42081 3.67183 8.70541 4.22213C8.43899 4.5849 8.28071 5.03591 8.28071 5.52429C8.28071 5.76954 8.32118 6.00511 8.39462 6.22509C8.3771 6.23723 8.35996 6.25021 8.3437 6.26497C8.04549 6.53566 7.66178 6.68475 7.26323 6.68475C6.36306 6.68475 5.63076 5.93261 5.63076 5.00808ZM11.927 9.41096V11.3914V13.1161H6.16966V7.69093H11.927V9.41096ZM16.2297 11.7044H16.2297C16.2297 11.8614 16.1432 11.9547 16.0917 11.9965C16.0401 12.0382 15.9314 12.1026 15.7829 12.0659L12.9066 11.3549V9.44809L15.7889 8.78783C15.9366 8.75405 16.0435 8.81894 16.0941 8.86063C16.1448 8.90233 16.2297 8.99546 16.2297 9.15077V11.7044H16.2297Z" fill="#FBFBFB"/>
</svg>
